<svg width="79" height="79" viewBox="0 0 79 79" fill="none" xmlns="http://www.w3.org/2000/svg">
<path d="M12.1935 58.3301C12.0217 58.1549 12.1935 58.3301 12.1935 58.3301C12.0217 58.1549 11.85 57.9797 11.85 57.8046C11.6782 57.4542 11.5065 57.2791 11.5065 57.2791C11.5065 56.7536 11.6782 56.2281 11.6782 55.7026C12.1935 55.7026 13.0521 55.5274 13.3956 54.4764C13.5674 53.9509 13.5674 53.2503 13.5674 52.5496C13.5674 52.1993 13.5674 51.8489 13.3956 51.6738C13.3956 51.3234 13.3956 51.1483 13.3956 50.9731C12.8804 51.3234 10.9913 52.7248 10.6478 53.6006C10.4761 54.1261 10.4761 54.4764 10.6478 54.8268C10.8195 55.1771 11.163 55.3523 11.3348 55.5274C11.163 55.7026 11.163 56.0529 10.9913 56.4032C10.9913 56.4032 10.8195 56.2281 10.6478 55.8777C10.4761 55.5274 10.3043 55.1771 10.1326 54.8268C9.96086 54.4764 9.78912 54.1261 9.61738 53.7758C9.61738 53.6006 9.44563 53.4254 9.44563 53.4254V53.2503L8.93041 52.0241C8.93041 51.6738 9.27389 50.9731 9.44563 50.4476C9.96085 50.4476 10.8195 50.4476 11.3348 49.5718C11.5065 49.2215 11.6782 48.5208 11.6782 47.8201C11.6782 47.4698 11.6782 47.1195 11.6782 46.7692C11.6782 46.4188 11.6782 46.2437 11.6782 46.0685C11.163 46.2437 9.10215 47.2946 8.58694 48.1705C8.4152 48.3456 8.41521 48.5208 8.41521 48.696C8.24347 49.3966 8.75867 49.9221 8.93041 50.0973C8.75867 50.2724 8.58695 50.6228 8.41521 50.798C8.41521 50.798 8.4152 50.6228 8.24346 50.4476C8.24346 50.2725 8.07171 50.0973 8.07171 49.747C7.89998 49.2215 7.72824 48.696 7.72824 48.696C7.72824 48.696 7.72826 48.5208 7.55652 48.3456C7.55652 48.1705 7.38477 47.9953 7.38477 47.9953L7.0413 46.7692C7.21304 46.4188 7.5565 45.7182 7.72824 45.3678C8.07172 45.543 9.10215 45.543 9.7891 44.6672C10.1326 44.3168 10.3043 43.6162 10.4761 42.9155C10.6478 42.2148 10.8195 41.6894 10.8195 41.339C10.3043 41.5142 8.07172 42.2148 7.38477 42.9155C6.69782 43.7913 7.21303 44.6672 7.38477 45.0175C7.21303 45.1927 7.04129 45.3678 6.86955 45.7182C6.86955 45.7182 6.86956 45.543 6.69783 45.1927C6.69783 44.8423 6.52608 44.492 6.52608 43.9665C6.52608 43.6162 6.35433 43.0907 6.35433 42.7403C6.35433 42.39 6.35433 42.2148 6.35433 42.2148C6.35433 42.2148 6.35433 41.8645 6.35433 41.5142C6.35433 41.339 6.35433 41.1639 6.35433 41.1639C6.35433 40.9887 6.35433 40.9887 6.35433 40.9887C6.52607 40.6384 7.04128 40.1129 7.21302 39.7625C7.5565 39.9377 8.58695 40.1129 9.27391 39.4122C9.61738 39.0619 9.96086 38.5364 10.1326 37.8357C10.4761 37.1351 10.6478 36.6096 10.6478 36.2592C9.96084 36.2592 7.72825 36.6096 7.0413 37.3102C6.86956 37.4854 6.69783 37.6605 6.69783 37.8357C6.35435 38.5364 6.69781 39.0619 6.86955 39.4122C6.69781 39.5874 6.52608 39.7625 6.1826 39.9377C6.1826 39.9377 6.1826 39.7625 6.1826 39.5874C6.1826 39.4122 6.1826 39.0619 6.1826 38.8867C6.1826 38.3612 6.1826 37.8357 6.1826 37.8357V36.9599C6.1826 36.9599 6.1826 36.6096 6.1826 36.2592C6.1826 35.9089 6.1826 35.5586 6.1826 35.5586C6.35434 35.2082 6.86954 34.6827 7.21302 34.5076C7.5565 34.6827 8.41521 35.2082 9.27391 34.5076C9.61738 34.1572 10.1326 33.6317 10.4761 33.1063C10.8195 32.5808 11.163 32.0553 11.163 31.7049C10.4761 31.7049 8.24346 31.7049 7.38477 32.2304C6.86955 32.5808 6.69783 32.9311 6.69783 33.2814C6.69783 33.6317 6.69781 33.9821 6.86955 34.1572C6.69781 34.3324 6.35434 34.5076 6.1826 34.6827C6.1826 34.6827 6.1826 34.5076 6.1826 34.1572C6.1826 33.8069 6.35433 33.4566 6.35433 32.9311C6.35433 32.4056 6.52608 32.0553 6.52608 31.7049C6.52608 31.3546 6.69783 31.1794 6.69783 31.1794C6.69783 31.1794 6.69783 31.1794 6.69783 31.0043C6.69783 30.8291 6.69783 30.6539 6.69783 30.6539C6.69783 30.3036 6.86955 29.9533 6.86955 29.9533C7.21303 29.6029 7.72824 29.2526 8.07171 29.0774C8.41519 29.4278 9.10217 29.9533 10.1326 29.4278C10.3043 29.2526 10.6478 29.0774 10.8195 28.9023C10.9913 28.7271 11.3348 28.3768 11.5065 28.2016C12.0217 27.6761 12.3652 27.1506 12.5369 26.9755C12.1935 26.9755 11.5065 26.8003 10.8195 26.6251C10.1326 26.6251 9.2739 26.6251 8.75869 26.8003C8.58695 26.9755 8.4152 26.9755 8.24346 27.1506C8.07172 27.3258 7.89999 27.6761 7.89999 28.0265C7.89999 28.3768 7.89999 28.552 7.89999 28.7271C7.72825 28.9023 7.38478 28.9023 7.0413 29.0774C7.0413 29.0774 7.21303 28.552 7.38477 28.0265C7.38477 27.8513 7.55652 27.501 7.55652 27.3258C7.55652 27.1506 7.72824 26.9755 7.72824 26.9755L8.07171 26.0996C8.07171 26.0996 8.07171 26.0996 8.07171 25.9245C8.07171 25.9245 8.07171 25.9245 8.07171 25.7493C8.07171 25.7493 8.07172 25.5741 8.24346 25.399C8.4152 25.0486 8.41521 24.8735 8.41521 24.8735C8.75869 24.5232 9.44562 24.348 9.7891 24.1728C10.1326 24.5232 10.8196 25.2238 11.85 24.8735C12.7087 24.5232 14.0826 23.1218 14.5978 22.7715C14.0826 22.5963 11.85 21.7205 10.8195 22.0708C10.3043 22.246 9.96084 22.5963 9.7891 22.9467C9.61736 23.297 9.61738 23.6473 9.61738 23.8225C9.44564 23.8225 9.10216 23.9977 8.75869 23.9977C8.75869 23.9977 8.93041 23.8225 8.93041 23.4722C9.10215 23.1218 9.27389 22.7715 9.44563 22.4212C9.61737 22.0708 9.78911 21.7205 9.96085 21.3702C10.1326 21.0198 10.1326 20.8447 10.1326 20.8447L10.8195 19.7937C11.163 19.6185 11.85 19.4434 12.3652 19.2682C12.5369 19.6185 13.2239 20.3192 14.2543 20.3192C14.7695 20.3192 15.2847 19.9689 15.8 19.6185C16.1434 19.4434 16.3152 19.2682 16.6587 19.093C16.8304 18.9179 17.1739 18.7427 17.1739 18.7427C16.6587 18.3924 14.5978 17.3414 13.5674 17.3414C13.3956 17.3414 13.2239 17.3414 13.0522 17.5165C12.3652 17.8669 12.1935 18.5675 12.1935 18.7427C12.0217 18.7427 11.6782 18.7427 11.3348 18.7427C11.3348 18.7427 11.3348 18.5675 11.5065 18.3924C11.6782 18.2172 11.6782 18.042 11.85 17.8669C12.1935 17.5165 12.3652 16.991 12.3652 16.991C12.3652 16.991 12.5369 16.8159 12.5369 16.6407C12.7087 16.4655 12.7087 16.2904 12.7087 16.2904L13.0522 15.7649L13.5674 15.2394C13.9109 15.0642 14.5978 15.0642 15.113 15.0642C15.2848 15.4145 15.8 16.2904 16.8304 16.2904C17.3456 16.2904 18.0326 16.1152 18.5478 15.7649C19.2347 15.5897 19.75 15.2394 19.9217 15.0642C19.4065 14.7139 17.6891 13.3126 16.6587 13.3126C16.1434 13.3126 15.8 13.4877 15.4565 13.8381C15.2847 14.1884 15.113 14.3636 15.113 14.7139C14.9413 14.7139 14.5978 14.7139 14.2543 14.7139C14.2543 14.7139 14.4261 14.5387 14.5978 14.3636C14.7695 14.1884 15.113 13.8381 15.4565 13.4877C15.6282 13.3126 15.8 13.1374 15.9717 12.9622C16.1434 12.7871 16.3152 12.6119 16.3152 12.6119C16.4869 12.4367 16.6587 12.2616 16.6587 12.2616C16.6587 12.2616 16.8304 12.0864 17.1739 11.7361C17.3456 11.5609 17.6891 11.3857 17.6891 11.3857C18.2043 11.3857 18.7195 11.3857 19.2347 11.3857C19.2347 11.9112 19.5782 12.7871 20.6086 12.9622C20.7804 12.9622 21.1239 12.9622 21.4673 12.9622C21.8108 12.9622 22.1543 12.7871 22.326 12.7871C22.6695 12.7871 23.013 12.6119 23.3565 12.6119C23.7 12.6119 23.8717 12.4367 24.0434 12.4367C23.6999 11.9112 21.9826 10.3348 21.1239 10.1596C20.9521 10.1596 20.7804 10.1596 20.4369 10.1596C20.2652 10.1596 20.0934 10.1596 19.9217 10.3348C19.75 10.3348 19.75 10.5099 19.5782 10.6851C19.4065 10.8602 19.2347 11.0354 19.2347 11.2106C19.063 11.2106 18.7195 11.0354 18.376 11.0354C18.376 11.0354 18.7195 10.6851 19.2347 10.3348C19.5782 9.98443 20.0934 9.63409 20.0934 9.63409L20.7804 9.10861C20.7804 9.10861 20.7804 9.10859 20.9521 8.93343C20.9521 8.93343 21.1239 8.93343 21.1239 8.75827C21.4673 8.5831 21.6391 8.40794 21.6391 8.40794C21.9826 8.40794 22.6695 8.5831 23.1847 8.5831C23.1847 9.1086 23.3565 9.98443 24.3869 10.3348C24.9021 10.5099 25.5891 10.5099 26.276 10.5099C26.6195 10.5099 26.963 10.5099 27.1347 10.3348C27.4782 10.3348 27.6499 10.3348 27.8217 10.3348C27.4782 9.80926 26.1043 7.88245 25.2456 7.53211C24.7304 7.35695 24.3869 7.35695 24.0434 7.53211C23.6999 7.70728 23.5282 8.05761 23.3565 8.23278C23.1847 8.05761 22.8413 8.05761 22.4978 7.88244C22.4978 7.88244 22.6695 7.70728 23.013 7.53211C23.3565 7.35695 23.6999 7.18178 24.0434 7.00661C24.2152 6.83145 26.1043 5.95562 27.4782 5.0798C27.8217 5.43013 28.5086 5.95563 29.3673 5.6053C30.226 5.25497 31.5999 3.32814 31.9434 2.80264C31.4282 2.62748 29.0239 2.27715 28.1652 2.62748C26.963 3.15298 27.1347 4.20397 27.1347 4.5543C26.4478 4.90463 25.7608 5.07979 25.4173 5.25496C25.0739 5.43013 23.3565 5.95562 23.3565 5.95562C23.3565 5.60529 23.5282 5.25496 23.5282 5.0798C23.6999 5.0798 24.0434 5.0798 24.3869 4.90463C24.7304 4.72947 25.0738 4.37914 25.2456 3.85365C25.4173 3.32815 25.4173 2.45231 25.4173 1.75165C25.4173 1.05099 25.2456 0.175165 25.2456 0C25.0738 0.175165 24.9021 0.350336 24.5586 0.525501C24.2152 0.700667 24.0434 1.051 23.6999 1.22617C23.013 1.75166 22.4978 2.45232 22.326 2.97782C21.9826 4.02881 22.6695 4.72947 23.013 4.90463C23.013 5.0798 22.8412 5.43013 22.6695 5.6053C22.4978 5.95563 22.4978 6.13078 22.326 6.30595C22.326 6.30595 22.1543 6.30596 21.9826 6.48113C21.8108 6.65629 21.4674 6.83145 21.2956 7.00661C20.7804 7.35694 20.2652 7.70728 20.2652 7.70728C20.2652 7.70728 20.2652 7.70727 20.0934 7.88244C19.9217 7.88244 19.9217 8.05761 19.75 8.23278C19.4065 8.40794 19.2347 8.5831 19.2347 8.5831L18.8913 8.75827C18.8913 8.5831 18.8913 8.40794 18.8913 8.23278C18.8913 8.05761 18.8913 8.05761 18.8913 7.88244C19.063 7.88244 19.4065 7.70728 19.75 7.53211C20.0934 7.35695 20.4369 7.00662 20.4369 6.48113C20.6087 5.43013 19.9217 3.15298 19.75 2.62748C19.5782 2.80265 19.4065 2.97782 19.2347 3.15298C19.063 3.50331 18.7195 3.67848 18.376 4.02881C17.8608 4.72947 17.3456 5.43013 17.3456 5.95562V6.13079C17.3456 7.18178 18.0326 7.53211 18.376 7.70728C18.2043 8.23277 18.2043 8.93344 18.0326 9.28377C18.0326 9.28377 17.8608 9.45893 17.6891 9.63409C17.5174 9.80926 17.1739 10.1596 16.8304 10.3348C16.4869 10.5099 16.3152 10.8603 15.9717 11.0354C15.8 11.2106 15.6282 11.3857 15.6282 11.3857C15.6282 11.3857 15.2847 11.7361 14.9413 11.9112C14.7695 12.0864 14.5978 12.2616 14.5978 12.2616C14.4261 12.4367 14.4261 12.4367 14.4261 12.4367C14.4261 12.0864 14.2543 11.7361 14.2543 11.5609C14.4261 11.5609 14.7695 11.3858 15.113 11.0354C15.4565 10.8603 15.6282 10.3348 15.6282 9.80926C15.6282 8.75826 14.5978 6.65628 14.4261 6.13079C14.2543 6.48112 13.7391 7.00661 13.3956 7.88244C13.0521 8.5831 12.7087 9.45894 12.7087 9.98443C12.7087 11.2106 13.5674 11.5609 14.0826 11.5609C14.0826 12.0864 14.0826 12.7871 13.9108 13.1374C13.9108 13.1374 13.7391 13.3126 13.5674 13.4877C13.3956 13.6629 13.2239 13.8381 13.0522 14.1884C12.8804 14.3636 12.7087 14.7139 12.5369 14.8891C12.3652 15.0642 12.3652 15.2394 12.3652 15.2394C12.3652 15.2394 12.1935 15.5897 11.85 15.7649C11.6782 15.94 11.6782 16.1152 11.5065 16.1152C11.5065 16.2904 11.3348 16.2904 11.3348 16.2904L11.163 16.6407C11.163 16.4655 10.9913 16.2904 10.9913 16.1152C10.9913 15.9401 10.9913 15.94 10.8195 15.7649C10.9913 15.5897 11.3348 15.4146 11.5065 15.2394C11.6782 14.8891 11.85 14.5387 11.85 14.0132C11.6782 12.9622 10.4761 11.0354 10.1326 10.5099C9.96086 10.8603 9.61738 11.5609 9.27391 12.2616C8.93043 13.1374 8.75867 13.8381 8.93041 14.5387V14.7139C9.10215 15.7649 9.96086 15.94 10.4761 15.94C10.4761 16.4655 10.6478 17.1662 10.6478 17.5165C10.6478 17.5165 10.3043 18.2172 9.7891 18.9179C9.44562 19.6185 8.93041 20.3192 8.93041 20.3192C8.93041 20.3192 8.93042 20.4944 8.75869 20.4944C8.75869 20.6695 8.58695 20.8447 8.41521 21.0198C8.24347 21.3702 8.07171 21.7205 8.07171 21.7205C7.89998 21.3702 7.72824 21.195 7.72824 20.8447C7.89998 20.6695 8.24347 20.4943 8.41521 20.144C8.58695 19.7937 8.75867 19.4434 8.58694 18.7427C8.24346 17.6917 6.69782 16.1152 6.1826 15.5897C6.1826 15.7649 6.01087 16.1152 5.83913 16.2904C5.66739 16.6407 5.66737 16.991 5.49563 17.5165C5.32389 18.3924 5.32389 19.2682 5.49563 19.7937C5.83911 20.8447 6.86954 21.0198 7.21302 21.0198C7.38476 21.5453 7.55652 22.246 7.55652 22.5963C7.55652 22.5963 7.55651 22.7715 7.38477 22.9467C7.21303 23.1218 7.21304 23.4722 7.0413 23.8225C6.86956 24.348 6.52608 25.0486 6.52608 25.0486C6.52608 25.0486 6.52608 25.0486 6.52608 25.2238C6.52608 25.399 6.35433 25.5741 6.35433 25.7493C6.18259 26.0996 6.1826 26.45 6.1826 26.45L6.01086 26.8003C5.83912 26.6251 5.83912 26.45 5.66738 26.45C5.66738 26.2748 5.49563 26.2748 5.49563 26.0996C5.66737 25.9245 5.83912 25.7493 6.01086 25.2238C6.18259 24.8735 6.18259 24.348 6.01086 23.8225C5.49564 22.9467 3.77827 21.3702 3.26305 21.0198C3.09131 21.7205 2.74784 24.348 3.26305 25.2238C3.26305 25.2238 3.26304 25.399 3.43477 25.399C3.94999 26.2748 4.80869 26.2748 5.32391 26.0996C5.49565 26.45 5.83913 27.1506 5.83913 27.6761C5.83913 27.6761 5.83912 27.8513 5.66738 28.2016C5.66738 28.5519 5.49563 28.9023 5.49563 29.2526C5.32389 29.603 5.32391 29.9533 5.32391 30.3036C5.32391 30.6539 5.15216 30.8291 5.15216 30.8291C5.15216 30.8291 5.15218 31.1794 4.98044 31.7049C4.8087 32.0553 4.80869 32.5807 4.80869 32.5807C4.63695 32.4056 4.29348 32.0553 4.12175 31.8801C4.29348 31.7049 4.46522 31.3546 4.46522 31.0043C4.46522 30.6539 4.46522 30.1284 4.12175 29.6029C3.60653 28.7271 1.54566 27.6761 1.03044 27.3258C1.03044 27.6761 1.03044 28.552 1.03044 29.4278C1.20218 30.3036 1.37391 31.1794 1.71739 31.5298C2.40434 32.4056 3.26303 32.2304 3.77825 32.0553C4.12172 32.4056 4.4652 33.1062 4.63694 33.4566C4.63694 33.4566 4.63694 33.6318 4.63694 33.8069C4.63694 33.9821 4.63694 34.3324 4.63694 34.6827C4.63694 35.0331 4.63694 35.3834 4.63694 35.5586C4.63694 35.7337 4.63694 35.9089 4.63694 35.9089V37.3102V37.6605C4.4652 37.4854 4.29347 37.4854 4.29347 37.3102C4.12173 37.3102 4.12173 37.1351 3.95 37.1351C4.12173 36.9599 4.12175 36.6096 4.12175 36.2592C4.12175 35.9089 3.95 35.3834 3.60652 35.0331C2.91957 34.3324 0.686965 33.4566 0.171749 33.2814C0.171749 33.6317 0.343483 34.5076 0.515221 35.2082C0.68696 36.0841 1.03044 36.7847 1.37391 37.3102C1.37391 37.3102 1.37393 37.3102 1.54566 37.4854C2.40436 38.186 3.0913 37.8357 3.43477 37.6605C3.77825 38.0109 4.29348 38.5364 4.46522 38.8867C4.46522 38.8867 4.46522 39.0619 4.46522 39.4122C4.46522 39.7625 4.46522 40.1129 4.46522 40.4632C4.46522 40.8135 4.4652 41.1639 4.63694 41.5142C4.63694 41.8645 4.63694 42.0397 4.63694 42.0397C4.63694 42.0397 4.63695 42.5652 4.80869 42.9155C4.80869 43.2658 4.98044 43.7913 4.98044 43.7913C4.63696 43.6162 4.46522 43.441 4.12175 43.441C4.29348 43.0907 4.46522 42.0397 3.60652 41.339C2.74783 40.6384 0.515216 40.288 0 40.288C0.171739 40.6384 0.343493 41.339 0.686971 42.2148C1.03045 42.9155 1.54566 43.7913 1.88914 44.1417C2.74783 44.8423 3.60652 44.3168 3.95 43.9665C4.29347 44.3168 4.80868 44.6672 5.15216 45.0175C5.15216 45.0175 5.32389 45.7182 5.49563 46.2437C5.49563 46.594 5.66738 46.9443 5.66738 47.1195C5.66738 47.2946 5.83913 47.4698 5.83913 47.4698C5.83913 47.4698 6.01086 47.8201 6.01086 48.1705C6.01086 48.3456 6.1826 48.5208 6.1826 48.696C6.1826 48.8711 6.1826 48.8711 6.1826 48.8711L6.35433 49.2215C6.18259 49.2215 6.01087 49.0463 5.83913 49.0463C5.66739 49.0463 5.66737 48.8711 5.49563 48.8711C5.49563 48.696 5.49563 48.3456 5.49563 47.9953C5.32389 47.645 5.15216 47.2946 4.63694 46.9443C3.77825 46.4188 1.37391 46.4188 0.858694 46.4188C1.03043 46.7691 1.37392 47.4698 1.88914 48.1705C2.40435 48.8711 2.91956 49.5718 3.43477 49.747H3.60652C4.46522 50.0973 5.15216 49.5718 5.49563 49.2215C5.83911 49.3966 6.52607 49.747 6.86955 50.0973C6.86955 50.0973 7.21303 50.798 7.38477 51.4986C7.55651 51.8489 7.72825 52.1993 7.89999 52.5496C8.07173 52.8999 8.07171 53.0751 8.07171 53.0751C8.07171 53.0751 8.07172 53.2503 8.24346 53.2503C8.24346 53.4254 8.4152 53.6006 8.58694 53.7758C8.75867 54.1261 8.93041 54.6516 8.93041 54.6516C8.58693 54.6516 8.24345 54.4764 8.07171 54.4764C8.07171 54.3013 8.07173 53.9509 7.89999 53.6006C7.72825 53.2503 7.38477 52.8999 6.86955 52.7248C6.35433 52.5496 5.49564 52.5496 4.80869 52.5496C4.12173 52.5496 3.26304 52.7248 3.0913 52.7248C3.26304 52.8999 3.26305 53.0751 3.60652 53.4254C3.77826 53.7758 4.12173 53.9509 4.29347 54.3013C4.80868 55.0019 5.49564 55.5274 6.01086 55.7026C7.04129 56.0529 7.72825 55.3523 7.89999 55.0019C8.07173 55.0019 8.4152 55.1771 8.58694 55.3522C8.93041 55.5274 9.10217 55.5274 9.27391 55.7026C9.27391 55.7026 9.27389 55.8777 9.44563 56.0529C9.61737 56.2281 9.78911 56.5784 9.96085 56.7536C10.3043 57.2791 10.6478 57.8046 10.6478 57.8046C10.6478 57.8046 10.6478 57.8046 10.8195 57.9797C10.8195 58.1549 10.9913 58.1549 11.163 58.3301C11.3348 58.6804 11.5065 58.8556 11.5065 58.8556L12.1935 58.3301Z" fill="#F5EFDB"/>
<path d="M66.2915 59.9073C65.9481 60.2576 65.6046 60.7831 65.6046 60.7831C65.6046 60.4328 65.4328 60.0825 65.4328 59.9073C65.6046 59.9073 65.7763 59.7321 65.9481 59.557C66.1198 59.3818 66.1198 59.3818 66.2915 59.2066C66.2915 59.0315 66.4633 58.8563 66.4633 58.6811C66.4633 58.506 66.4633 58.3308 66.4633 57.9805C66.2915 56.9295 64.5742 55.353 64.2307 55.0027C64.2307 55.1778 64.0589 55.353 64.0589 55.7033C64.0589 56.0537 63.8872 56.404 63.8872 56.7543C63.8872 57.1047 63.7155 57.455 63.7155 57.6302C63.7155 57.9805 63.7155 58.1557 63.7155 58.506C63.8872 59.557 64.7459 59.9073 65.2611 59.9073C65.2611 60.4328 65.2611 61.1335 65.2611 61.4838C65.2611 61.4838 65.0894 61.659 64.9176 62.0093C64.7459 62.1845 64.4024 62.5348 64.4024 62.5348C64.4024 62.5348 64.2307 62.71 64.0589 62.8851C63.8872 63.0603 63.8872 63.0603 63.7155 63.2354C63.5437 63.4106 63.372 63.5858 63.2002 63.7609C62.8568 64.1113 62.5133 64.4616 62.3415 64.6368C62.1698 64.8119 61.9981 64.9871 61.9981 64.9871C61.9981 64.6368 61.9981 64.2864 61.9981 64.1113C62.1698 64.1113 62.5133 63.9361 62.8568 63.7609C63.2002 63.5858 63.372 63.0603 63.372 62.5348C63.372 61.4838 61.9981 59.557 61.6546 59.2066C61.4828 59.3818 61.3111 60.0825 60.9676 60.608C60.6241 61.3086 60.4524 62.0093 60.4524 62.3596C60.4524 63.4106 61.3111 63.9361 61.6546 64.1113C61.6546 64.6368 61.4828 65.3374 61.4828 65.6878L60.4524 66.5636C60.4524 66.5636 60.2807 66.7388 60.1089 66.7388C59.9372 66.9139 59.7654 66.9139 59.7654 66.9139C59.7654 66.9139 59.422 67.2643 58.9068 67.4394C58.735 67.6146 58.3915 67.7898 58.3915 67.7898C58.2198 67.9649 58.0481 67.9649 58.0481 67.9649C58.0481 67.6146 58.0481 67.2643 58.0481 67.0891C58.3915 67.0891 59.0785 66.9139 59.2502 66.2133C59.2502 66.0381 59.422 65.8629 59.422 65.6878C59.5937 64.6368 58.3915 62.5348 58.2198 62.0093C58.2198 62.1845 58.048 62.3596 57.8763 62.5348C57.7046 62.71 57.5329 63.0603 57.3611 63.4106C57.0176 63.9361 56.6741 64.6368 56.6741 64.9871C56.5024 66.0381 57.1894 66.5636 57.7046 66.9139C57.5328 67.2643 57.3611 67.9649 57.1894 68.4904L56.1589 69.1911C56.1589 69.1911 55.9872 69.3662 55.6437 69.3662C55.3002 69.5414 54.9568 69.7166 54.6133 69.8917C54.2698 70.0669 53.7546 70.2421 53.5828 70.4172C53.2394 70.5924 53.0676 70.5924 53.0676 70.5924C53.0676 70.2421 53.2394 69.8917 53.2394 69.7166C53.4111 69.7166 53.7546 69.7166 54.0981 69.5414C54.4415 69.3662 54.785 69.0159 54.9568 68.4904C55.3002 67.4394 54.4415 65.3374 54.2698 64.6368C54.0981 64.8119 54.0981 64.9871 53.9263 65.1623C53.7546 65.3374 53.5828 65.5126 53.2394 65.8629C52.8959 66.3884 52.3807 66.9139 52.2089 67.4394C51.8655 68.4904 52.5524 69.1911 52.8959 69.5414C52.7242 69.8917 52.3807 70.5924 52.2089 70.9427C52.2089 70.9427 51.8655 71.1179 51.6937 71.1179C51.522 71.1179 51.3503 71.2931 51.3503 71.2931C51.1785 71.2931 51.1785 71.2931 51.1785 71.2931L50.3198 71.6434C50.3198 71.6434 50.1481 71.6434 49.9763 71.8186C49.8046 71.8186 49.4611 71.9937 49.2894 71.9937C48.7741 72.1689 48.2589 72.3441 48.2589 72.3441C48.4307 71.9937 48.4307 71.8186 48.6024 71.4682C48.7742 71.4682 48.9459 71.4682 49.2894 71.4682C49.6328 71.4682 49.8046 71.2931 50.1481 71.1179C50.3198 70.9427 50.3198 70.7676 50.4916 70.5924C50.6633 70.0669 50.6633 69.3662 50.6633 68.4904C50.6633 67.7897 50.4915 66.9139 50.3198 66.7388C50.1481 66.9139 49.6329 67.2643 49.1176 67.7898C48.9459 67.9649 48.6024 68.3152 48.4307 68.4904C48.2589 68.6656 48.0872 69.0159 47.9155 69.1911C47.4003 70.2421 47.9155 70.9427 48.2589 71.2931C48.0872 71.6434 47.572 72.1689 47.4002 72.5192C47.4002 72.5192 47.0568 72.5192 46.7133 72.6944H46.5416C44.3089 72.8696 40.7024 73.2199 40.7024 73.2199C40.7024 73.2199 36.5807 73.0447 34.5198 72.8695C34.5198 72.8695 34.5198 72.8695 34.3481 72.8695C34.1763 72.8695 34.0046 72.8695 34.0046 72.8695C33.6611 72.8695 33.3177 72.6944 33.3177 72.6944C32.9742 72.3441 32.6307 71.8186 32.459 71.4682C32.8024 71.1179 33.3177 70.4172 32.8024 69.3662C32.6307 69.1911 32.6307 68.8407 32.2872 68.6656C32.1155 68.4904 31.772 68.1401 31.6003 67.9649C31.0851 67.4394 30.5698 67.0891 30.3981 66.9139C30.3981 67.2643 30.2263 67.9649 30.0546 68.6656C30.0546 69.3662 30.0546 70.2421 30.2264 70.7676C30.3981 70.9427 30.3981 71.1179 30.5698 71.2931C30.7416 71.4682 31.085 71.6434 31.4285 71.6434C31.772 71.6434 31.9437 71.6434 32.1155 71.6434C32.2872 71.8186 32.2872 72.1689 32.459 72.5192C32.459 72.5192 31.9437 72.3441 31.4285 72.1689C31.2568 72.1689 30.9133 71.9937 30.7416 71.9937C30.5698 71.9937 30.3981 71.8186 30.3981 71.8186L29.5394 71.4682C29.5394 71.4682 29.5394 71.4682 29.3677 71.4682C29.3677 71.4682 29.3676 71.4682 29.1959 71.4682C29.0242 71.4682 29.0242 71.2931 28.8524 71.2931C28.509 71.1179 28.3372 71.1179 28.3372 71.1179C28.1655 70.7676 27.822 70.0669 27.6503 69.7166C27.9937 69.3662 28.6807 68.6656 28.3372 67.6146C28.1655 67.0891 27.822 66.5636 27.3068 66.0381C27.1351 65.8629 26.9633 65.5126 26.6198 65.3374C26.4481 65.1623 26.2763 64.9871 26.2763 64.8119C26.1046 65.3374 25.2459 67.6146 25.5894 68.6656C25.7611 69.1911 26.1046 69.5414 26.4481 69.7166C26.7916 69.8917 27.1351 69.8917 27.3068 69.8917C27.3068 70.0669 27.4785 70.4172 27.4785 70.7676C27.4785 70.7676 27.3068 70.5924 26.9633 70.5924C26.6198 70.4172 26.2764 70.2421 25.9329 70.0669C25.5894 69.8917 25.2459 69.7166 24.9024 69.5414C24.559 69.3662 24.3872 69.3662 24.3872 69.3662L23.3568 68.6656C23.1851 68.3153 23.0133 67.6146 22.8416 67.0891C23.185 66.9139 23.872 66.2133 23.872 65.1623C23.872 64.6368 23.5285 64.1113 23.185 63.5858C23.0133 63.2355 22.8416 63.0603 22.6698 62.71C22.4981 62.5348 22.3263 62.1845 22.3263 62.1845C21.9829 62.71 20.9524 64.8119 20.9524 65.8629C20.9524 66.0381 20.9524 66.2133 21.1242 66.3884C21.4677 67.0891 21.9829 67.2643 22.3263 67.2643C22.3263 67.4394 22.3263 67.7897 22.3263 68.1401C22.3263 68.1401 22.1546 68.1401 21.9829 67.9649C21.8111 67.7898 21.6394 67.7897 21.4677 67.6146C21.1242 67.2642 20.609 66.9139 20.609 66.9139C20.609 66.9139 20.4372 66.7388 20.2655 66.7388C20.0937 66.5636 19.922 66.5636 19.922 66.5636L18.5481 65.5126C18.3764 65.1623 18.3763 64.4616 18.3763 63.9361C18.7198 63.7609 19.5785 63.2354 19.5785 62.1845C19.5785 61.659 19.4068 60.9583 19.0633 60.4328C18.8916 59.7321 18.5481 59.2067 18.3763 59.0315C18.0329 59.557 16.659 61.3086 16.659 62.3596C16.659 62.8851 16.8307 63.2355 17.1742 63.5858C17.5177 63.7609 17.6894 63.9361 18.0329 63.9361C18.0329 64.1113 18.0329 64.4616 18.0329 64.8119C18.0329 64.8119 17.8611 64.6368 17.6894 64.4616C17.5177 64.2864 17.1742 63.9361 16.8307 63.5858C16.659 63.4106 16.4872 63.2354 16.3155 63.0603C16.1437 62.8851 15.972 62.71 15.972 62.71C15.8003 62.5348 15.6285 62.3596 15.6285 62.3596C15.6285 62.3596 15.4568 62.1845 15.1133 61.8341C14.9416 61.659 14.7698 61.3086 14.7698 61.3086C14.7698 60.7831 14.7698 60.2576 14.7698 59.7321C15.2851 59.7321 16.1437 59.3818 16.3155 58.3308C16.3155 58.1557 16.3155 57.8053 16.3155 57.455C16.3155 57.1047 16.1438 56.7543 16.1438 56.5792C16.1438 56.2288 15.972 55.8785 15.972 55.5282C15.972 55.1778 15.8003 55.0027 15.8003 54.8275C15.285 55.1778 13.7394 56.9295 13.5677 57.8053C13.5677 57.9805 13.5677 58.1557 13.5677 58.506C13.5677 58.6811 13.5677 58.8563 13.7394 59.0315C13.7394 59.2067 13.9111 59.2066 14.0829 59.3818C14.2546 59.557 14.4264 59.7321 14.5981 59.7321C14.5981 59.9073 14.4264 60.2576 14.4264 60.608C14.4264 60.608 14.0829 60.2576 13.7394 59.7321C13.3959 59.3818 13.0525 58.8563 13.0525 58.8563L12.3655 59.3818L12.5372 59.7321C12.3655 59.7321 12.1937 59.7321 12.022 59.7321C11.8503 59.7321 11.8503 59.7321 11.6785 59.7321C11.6785 59.557 11.5068 59.2066 11.3351 58.8563C11.1633 58.506 10.8198 58.1557 10.3046 58.1557C9.27419 57.9805 7.04158 58.6811 6.52637 58.8563C6.69811 59.0315 6.86985 59.2066 7.04159 59.3818C7.21333 59.557 7.55681 59.9073 7.90028 60.2576C8.58724 60.7831 9.27418 61.3086 9.7894 61.3086H9.96115C10.9916 61.3086 11.335 60.608 11.5068 60.2576C12.022 60.4328 12.709 60.4328 13.0525 60.608C13.0525 60.608 13.2242 60.7831 13.3959 60.9583C13.5677 61.1335 13.7394 61.4838 14.0829 61.8341C14.2546 62.1845 14.5981 62.3596 14.7698 62.71C14.9416 62.8851 15.1133 63.0603 15.1133 63.0603C15.1133 63.0603 15.4568 63.4106 15.6285 63.7609C15.8003 63.9361 15.972 64.1113 15.972 64.1113C16.1437 64.2864 16.1438 64.2864 16.1438 64.2864C15.8003 64.2864 15.4568 64.4616 15.2851 64.4616C15.2851 64.2864 15.1133 63.9361 14.7698 63.5858C14.5981 63.2355 14.0829 63.0603 13.5677 63.0603C12.5372 63.0603 10.4764 64.1113 9.96115 64.2864C10.3046 64.4616 10.8198 64.9871 11.6785 65.3374C12.3655 65.6878 13.2242 66.0381 13.7394 66.0381C14.9416 66.0381 15.2851 65.1623 15.2851 64.6368C15.8003 64.6368 16.4872 64.6368 16.8307 64.8119C16.8307 64.8119 17.0024 64.9871 17.1742 65.1623C17.3459 65.3374 17.5177 65.5126 17.8611 65.6878C18.0329 65.8629 18.3764 66.0381 18.5481 66.2133C18.7198 66.3884 18.8916 66.3884 18.8916 66.3884C18.8916 66.3884 19.2351 66.5636 19.4068 66.9139C19.5785 67.0891 19.7503 67.0891 19.7503 67.2643C19.922 67.2643 19.922 67.4394 19.922 67.4394L20.0937 67.6146C19.922 67.6146 19.7503 67.7898 19.5785 67.7898C19.4068 67.7898 19.4068 67.7898 19.235 67.9649C19.0633 67.7898 18.8916 67.4394 18.7198 67.2643C18.3764 67.0891 18.0329 66.9139 17.5177 66.9139C16.4872 67.0891 14.5981 68.3153 14.0829 68.6656C14.4263 68.8407 15.1133 69.1911 15.8003 69.5414C16.659 69.8917 17.3459 70.0669 18.0329 70.0669H18.2046C19.2351 69.8917 19.4068 69.0159 19.4068 68.4904C19.922 68.4904 20.609 68.3152 20.9524 68.3152C20.9524 68.3152 21.6394 68.6656 22.3263 69.1911C23.0133 69.5414 23.7003 70.0669 23.7003 70.0669C23.7003 70.0669 23.872 70.0669 23.872 70.2421C24.0438 70.2421 24.2155 70.4172 24.3872 70.5924C24.7307 70.7676 25.2459 70.9427 25.2459 70.9427C24.9024 71.1179 24.7307 71.2931 24.3872 71.2931C24.2155 71.1179 24.0437 70.7676 23.7003 70.5924C23.3568 70.4172 23.0133 70.2421 22.3263 70.4172C21.2959 70.7676 19.7503 72.344 19.235 72.8695C19.4068 72.8695 19.7503 73.0447 19.922 73.2199C20.2655 73.395 20.609 73.3951 21.1242 73.5702C21.9829 73.7454 22.8416 73.7454 23.3568 73.5702C24.3872 73.2199 24.559 72.1689 24.559 71.8186C25.0742 71.6434 25.7611 71.4682 26.1046 71.4682C26.1046 71.4682 26.2764 71.4682 26.4481 71.6434C26.6198 71.8186 26.9633 71.8185 27.3068 71.9937C27.822 72.1689 28.509 72.5192 28.509 72.5192C28.509 72.5192 28.5089 72.5192 28.6807 72.5192C28.8524 72.5192 29.0242 72.6944 29.1959 72.6944C29.5394 72.8696 29.8829 72.8695 29.8829 72.8695L30.2264 73.0447C30.0546 73.2199 29.8829 73.2199 29.8829 73.395C29.7111 73.395 29.7111 73.5702 29.5394 73.5702C29.3676 73.3951 29.1959 73.2199 28.6807 73.0447C28.3372 72.8696 27.822 72.8696 27.3068 73.0447C26.4481 73.5702 24.9024 75.3218 24.559 75.8473C25.2459 76.0225 27.822 76.3728 28.6807 75.8473C28.6807 75.8473 28.8524 75.8474 28.8524 75.6722C29.7111 75.1467 29.5394 74.2709 29.5394 73.7454C29.8829 73.5702 30.5698 73.2199 31.085 73.2199C31.085 73.2199 31.2568 73.2199 31.6003 73.395C31.9437 73.5702 32.2872 73.5702 32.6307 73.7454C32.9742 73.9205 33.3177 73.9205 33.6611 73.9205C34.0046 73.9205 34.1764 73.9205 34.1764 73.9205C35.2068 74.0957 36.7524 74.2709 38.1263 74.446C38.1263 74.446 38.2981 74.446 38.4698 74.446C33.8329 76.0225 32.6307 79.0003 32.6307 79.0003H34.6915C35.2068 77.2487 38.1263 75.8474 40.3589 75.1467C42.4198 76.0225 45.3394 77.4238 46.0263 79.0003H48.0872C48.0872 79.0003 46.885 76.0225 42.2481 74.446C42.2481 74.446 42.2481 74.446 42.4198 74.446C43.7937 74.2709 46.1981 74.0957 47.7437 73.7454C47.9155 73.7454 48.0872 73.7454 48.2589 73.5702C48.6024 73.3951 48.9459 73.395 49.2894 73.2199C49.6328 73.2199 49.8046 73.0447 49.8046 73.0447C50.1481 73.2199 50.835 73.395 51.3503 73.7454C51.3503 74.0957 51.1785 75.1467 52.0372 75.6722H52.2089C53.2394 76.1977 55.6437 75.8474 56.3307 75.6722C55.9872 75.1467 54.6133 73.2199 53.5828 72.8695C53.0676 72.6944 52.5524 72.6944 52.2089 72.8695C51.8655 73.0447 51.522 73.2199 51.3503 73.395C51.1785 73.395 51.1785 73.2199 51.0067 73.2199C50.835 73.0447 50.6633 73.0447 50.6633 72.8695L51.0067 72.6944C51.0067 72.6944 51.3502 72.5192 51.6937 72.5192C51.8655 72.5192 52.0372 72.3441 52.2089 72.3441C52.3807 72.3441 52.3807 72.3441 52.3807 72.3441C52.3807 72.3441 52.8959 72.1689 53.5828 71.8186C53.9263 71.6434 54.0981 71.6434 54.4415 71.4682C54.6133 71.2931 54.785 71.2931 54.785 71.2931C55.3002 71.2931 55.9872 71.6434 56.3307 71.6434C56.3307 72.1689 56.3307 73.0447 57.5328 73.395C58.0481 73.5702 58.9068 73.5702 59.7654 73.395C60.1089 73.395 60.6241 73.2199 60.9676 73.0447C61.3111 72.8696 61.6546 72.8696 61.6546 72.6944C61.1394 72.1689 59.5937 70.5924 58.5633 70.2421C58.0481 70.0669 57.5328 70.2421 57.1894 70.4172C56.8459 70.5924 56.6742 70.9427 56.5024 71.1179C56.3307 70.9427 55.9872 70.9427 55.6437 70.7676C55.6437 70.7676 55.9872 70.5924 56.3307 70.4172C56.5024 70.2421 56.6742 70.2421 56.8459 70.0669C57.0176 70.0669 57.0176 69.8917 57.0176 69.8917C57.0176 69.8917 57.7046 69.5414 58.3915 69.0159C59.0785 68.6656 59.7654 68.1401 59.7654 68.1401C60.2807 68.1401 60.9676 68.1401 61.3111 68.3152C61.3111 68.6656 61.4828 69.5414 62.5133 69.8917H62.685C63.2002 70.0669 64.0589 69.7166 64.9176 69.5414C65.7763 69.1911 66.4633 68.8407 66.635 68.6656C66.1198 68.3153 64.2307 66.9139 63.2002 66.9139C62.685 66.9139 62.1698 67.0891 61.9981 67.2643C61.6546 67.4394 61.4828 67.7898 61.4828 67.9649C61.3111 67.9649 61.3111 67.9649 61.1394 67.7898C60.9676 67.7898 60.7959 67.6146 60.6241 67.6146L60.9676 67.4394C60.9676 67.4394 60.9676 67.4394 61.1394 67.2643C61.3111 67.2643 61.3111 67.0891 61.4828 66.9139C61.8263 66.7388 61.9981 66.3884 61.9981 66.3884C61.9981 66.3884 62.1698 66.2133 62.3415 66.2133C62.5133 66.0381 62.8567 65.8629 63.0285 65.6878C63.2002 65.5126 63.5437 65.3374 63.7155 65.1623C63.8872 64.9871 64.0589 64.8119 64.0589 64.8119C64.4024 64.6368 65.2611 64.6368 65.6046 64.6368C65.7763 64.9871 66.1198 66.0381 67.1502 66.0381C67.6654 66.0381 68.5241 65.6878 69.2111 65.3374C69.898 64.9871 70.585 64.4616 70.9285 64.2864C70.4133 63.9361 68.3524 62.8851 67.322 63.0603C66.8067 63.0603 66.2915 63.2355 66.1198 63.5858C65.7763 63.9361 65.7763 64.2864 65.6046 64.4616C65.4328 64.4616 65.0893 64.4616 64.7459 64.2864C64.7459 64.2864 64.7459 64.2864 64.9176 64.1113C65.0894 63.9361 65.2611 63.7609 65.2611 63.7609C65.6046 63.4106 65.9481 63.0603 65.9481 63.0603C65.9481 63.0603 66.1198 62.8851 66.2915 62.71C66.4633 62.5348 66.8067 62.1845 66.9785 61.8341C67.1502 61.4838 67.4937 61.3086 67.6655 60.9583C67.8372 60.7831 68.0089 60.608 68.0089 60.608C68.3524 60.4328 69.0393 60.2576 69.5546 60.2576C69.7263 60.608 70.2415 61.4838 71.1002 61.3086H71.272C71.7872 61.1335 72.4741 60.7831 73.1611 60.2576C73.5046 59.9073 73.848 59.7321 74.0198 59.557C74.1915 59.3818 74.535 59.0315 74.535 59.0315C74.0198 58.8563 71.7872 58.1557 70.7567 58.3308C70.2415 58.506 69.8981 58.6812 69.7263 59.0315C69.5546 59.3818 69.3828 59.7321 69.3828 59.9073C69.2111 59.9073 69.2111 59.9073 69.0393 59.9073C68.8676 59.9073 68.6959 59.9073 68.5241 59.9073L68.6959 59.557L68.0089 59.0315C66.9785 59.0315 66.635 59.557 66.2915 59.9073Z" fill="#F5EFDB"/>
<path d="M73.5043 46.9444C73.6761 46.2437 73.8478 45.7182 73.8478 45.7182C74.1913 45.3679 74.7065 45.0175 75.05 44.6672C75.3935 45.0175 76.2522 45.543 77.1109 44.8424C77.6261 44.492 77.9696 43.7914 78.313 42.9155C78.6565 42.2149 78.8282 41.3391 79 40.9887C78.313 41.1639 76.0804 41.5142 75.3935 42.0397C74.5348 42.7404 74.7065 43.7914 74.8783 44.1417C74.7065 44.3169 74.363 44.492 74.0196 44.492C74.0196 44.492 74.0195 44.1417 74.1913 43.6162C74.1913 43.0907 74.363 42.7404 74.363 42.7404C74.363 42.7404 74.363 42.5652 74.363 42.2149C74.363 41.8645 74.363 41.5142 74.5348 41.1639C74.5348 40.8136 74.5348 40.4632 74.5348 40.1129C74.5348 39.7626 74.5348 39.5874 74.5348 39.5874C74.7065 39.2371 75.2217 38.7116 75.5652 38.3612C75.9087 38.5364 76.7674 38.8867 77.4543 38.1861C77.4543 38.1861 77.6261 38.1861 77.6261 38.0109C77.9695 37.6606 78.313 36.7848 78.4848 35.9089C78.6565 35.0331 78.8283 34.3324 78.8283 33.9821C78.313 34.1573 76.0804 34.8579 75.3935 35.7338C75.05 36.0841 74.8783 36.6096 74.8783 36.9599C74.8783 37.3102 75.05 37.6606 75.05 37.8357C75.05 37.8357 74.8782 38.0109 74.7065 38.0109C74.5348 38.1861 74.363 38.1861 74.363 38.3612V38.0109V36.6096C74.363 36.6096 74.363 36.4344 74.363 36.2593C74.363 36.0841 74.363 35.7338 74.363 35.3834C74.363 35.0331 74.363 34.6828 74.363 34.5076C74.363 34.3324 74.363 34.1573 74.363 34.1573C74.5348 33.8069 74.8783 33.1063 75.2217 32.756C75.5652 32.9311 76.5956 33.1063 77.2826 32.2305C77.6261 31.8801 77.7978 31.0043 77.9696 30.1285C78.1413 29.2526 78.1413 28.3768 77.9696 28.0265C77.4543 28.3768 75.3935 29.4278 74.7065 30.3036C74.363 30.8291 74.363 31.1795 74.363 31.705C74.363 32.0553 74.5348 32.4056 74.7065 32.5808C74.5348 32.7559 74.363 32.9311 74.0196 33.2814C74.0196 33.2814 74.0196 32.7559 73.8478 32.4056C73.8478 32.0553 73.6761 31.5298 73.6761 31.5298C73.6761 31.5298 73.6761 31.3546 73.6761 31.0043C73.6761 30.654 73.5043 30.3036 73.5043 29.9533C73.5043 29.603 73.3326 29.2526 73.3326 28.9023C73.3326 28.552 73.1609 28.3768 73.1609 28.3768C73.3326 28.0265 73.5043 27.3258 73.8478 26.8003C74.1913 26.8003 75.2217 26.9755 75.737 26.0997V25.9245C76.2522 25.0487 75.9087 22.4212 75.737 21.7205C75.2217 22.0709 73.3326 23.4722 72.9891 24.5232C72.8174 25.0487 72.8174 25.5742 72.9891 25.9245C73.1609 26.2748 73.3326 26.6252 73.5043 26.8003C73.5043 26.9755 73.3326 26.9755 73.3326 27.1507C73.1609 27.3258 73.1609 27.501 72.9891 27.501L72.8174 27.1507C72.8174 27.1507 72.6456 26.8003 72.6456 26.45C72.6456 26.2748 72.4739 26.0997 72.4739 25.9245C72.4739 25.7493 72.4739 25.7493 72.4739 25.7493C72.4739 25.7493 72.3022 25.2238 71.9587 24.5232C71.787 24.1728 71.7869 23.9977 71.6152 23.6473C71.4435 23.4722 71.4435 23.297 71.4435 23.297C71.4435 22.7715 71.787 22.246 71.787 21.7205C72.3022 21.7205 73.1609 21.7205 73.5043 20.4944C73.6761 19.9689 73.6761 19.093 73.5043 18.2172C73.5043 17.8669 73.3326 17.3414 73.1609 16.9911C72.9891 16.6407 72.9891 16.2904 72.8174 16.2904C72.3022 16.8159 70.7565 18.3924 70.413 19.4434C70.2413 19.9689 70.413 20.4944 70.5848 20.8447C70.7565 21.195 71.1 21.3702 71.2717 21.5454C71.1 21.7205 71.1 22.0709 70.9283 22.4212C70.9283 22.4212 70.7565 22.0709 70.5848 21.5454C70.413 21.3702 70.4131 21.195 70.2413 21.0199C70.2413 20.8447 70.0696 20.8447 70.0696 20.8447C70.0696 20.8447 69.7261 20.144 69.3826 19.4434C69.0391 18.7427 68.5239 18.0421 68.5239 18.0421C68.5239 17.5166 68.5239 16.8159 68.6957 16.4656C69.0391 16.4656 69.8978 16.2904 70.2413 15.2394V15.0642C70.4131 14.5387 70.0696 13.6629 69.8978 12.7871C69.5543 11.9113 69.2109 11.2106 69.0391 11.0354C68.6956 11.5609 67.3218 13.4878 67.15 14.5387C67.15 15.0642 67.3217 15.5897 67.4935 15.7649C67.6652 16.1152 68.0087 16.2904 68.1804 16.2904C68.1804 16.4656 68.1804 16.4656 68.0087 16.6407C68.0087 16.8159 67.837 16.9911 67.837 17.1662L67.6652 16.8159C67.6652 16.8159 67.6652 16.8159 67.4935 16.6407C67.4935 16.4656 67.3218 16.4656 67.15 16.2904C66.9783 15.9401 66.6348 15.7649 66.6348 15.7649C66.6348 15.7649 66.463 15.5897 66.463 15.4146C66.2913 15.2394 66.1196 14.8891 65.9478 14.7139C65.7761 14.5387 65.6044 14.1884 65.4326 14.0132C65.2609 13.8381 65.2609 13.6629 65.2609 13.6629C65.0891 13.3126 65.0892 12.4368 65.0892 12.0864C65.4326 11.9113 66.463 11.5609 66.463 10.5099C66.463 9.98444 66.1196 9.10862 65.7761 8.40796C65.4326 7.7073 64.9174 7.00663 64.7457 6.6563C64.4022 7.1818 63.3717 9.28378 63.5435 10.3348C63.5435 10.8603 63.7152 11.3858 64.0587 11.5609C64.4022 11.9113 64.7457 11.9113 64.9174 12.0864C64.9174 12.2616 64.9174 12.6119 64.7457 12.9623C64.7457 12.9623 64.7457 12.9623 64.5739 12.7871C64.4022 12.6119 64.4022 12.4368 64.2305 12.4368C63.887 12.0864 63.5435 11.9113 63.5435 11.9113C63.5435 11.9113 63.3718 11.7361 63.2 11.5609C63.0283 11.3858 62.6848 11.0354 62.3413 10.8603C61.9978 10.6851 61.8261 10.3348 61.4826 10.1596C61.3109 9.98445 61.1392 9.80927 61.1392 9.80927C60.9674 9.45894 60.7957 8.75829 60.7957 8.23279C61.1392 8.05763 61.9978 7.53213 61.8261 6.6563V6.48114C61.6544 5.95564 61.3109 5.25497 60.7957 4.55431C60.4522 4.20398 60.2805 3.85365 59.937 3.67848C59.7653 3.50332 59.4218 3.15299 59.4218 3.15299C59.25 3.67849 58.5631 5.95564 58.7348 7.00663C58.9065 7.53212 59.0783 7.88245 59.4218 8.05762C59.7652 8.23278 60.1087 8.40796 60.2805 8.40796C60.2805 8.58312 60.2805 8.58312 60.2805 8.75828C60.2805 8.93345 60.2805 9.10862 60.2805 9.28378L60.1087 9.10862C60.1087 9.10862 59.7652 8.93345 59.5935 8.75828C59.4218 8.58312 59.25 8.58312 59.25 8.40796C59.0783 8.40796 59.0783 8.23279 59.0783 8.23279C59.0783 8.23279 58.5631 7.88246 58.0479 7.53213C57.7044 7.35696 57.5326 7.18179 57.3609 7.00663C57.1892 6.83146 57.0174 6.83147 57.0174 6.83147C56.8457 6.6563 56.8457 6.30597 56.6739 6.1308C56.5022 5.78047 56.5022 5.6053 56.3305 5.43014C56.6739 5.25497 57.5326 4.55431 57.1892 3.50332C57.0174 2.97782 56.5022 2.27716 55.8152 1.75167C55.4718 1.40133 55.1283 1.22617 54.9565 1.051C54.6131 0.875836 54.4413 0.700678 54.2696 0.525513C54.2696 0.875844 54.0979 1.57651 54.0979 2.27717C54.0979 2.97783 54.0979 3.85365 54.2696 4.37915C54.4413 4.90464 54.7848 5.25497 55.1283 5.43014C55.4718 5.6053 55.8153 5.60531 55.987 5.60531C55.987 5.78048 56.1587 6.13081 56.1587 6.48114C56.1587 6.48114 54.6131 5.95564 54.0979 5.78048C53.9261 5.60531 53.2392 5.43014 52.3805 5.07981C52.3805 4.72948 52.5522 3.67849 51.3501 3.15299C50.4914 2.80266 48.087 3.15299 47.5718 3.15299C47.9153 3.67849 49.2892 5.60531 50.1479 5.95564C51.1783 6.30597 51.8653 5.78047 52.037 5.43014C53.5826 6.30596 55.3 7.1818 55.4718 7.35697C55.8152 7.53213 56.1587 7.70729 56.5022 7.88246C56.8457 8.05762 57.0174 8.23279 57.0174 8.23279C56.6739 8.40796 56.5022 8.40795 56.1587 8.58312C55.987 8.40795 55.8152 8.05762 55.4718 7.88246C55.1283 7.70729 54.7848 7.70729 54.2696 7.88246C53.4109 8.23279 52.037 10.1596 51.6935 10.6851C51.8653 10.6851 52.037 10.6851 52.3805 10.6851C52.7239 10.6851 52.8957 10.6851 53.2392 10.8603C53.9261 10.8603 54.6131 10.8603 55.1283 10.6851C56.1587 10.3348 56.3305 9.45894 56.3305 8.93344C56.8457 8.75828 57.3609 8.75828 57.8761 8.75828C57.8761 8.75828 58.2196 8.93346 58.3913 9.10862C58.5631 9.10862 58.5631 9.28378 58.7348 9.28378C58.9065 9.28378 58.9065 9.45895 58.9065 9.45895L59.5935 9.98445C59.5935 9.98445 59.937 10.3348 60.4522 10.6851C60.7957 11.0354 61.3109 11.3858 61.3109 11.3858C60.9674 11.3858 60.6239 11.5609 60.4522 11.5609C60.4522 11.3858 60.2805 11.2106 60.1087 11.0354C59.937 10.8603 59.937 10.8603 59.7652 10.6851C59.5935 10.6851 59.4218 10.5099 59.25 10.5099C59.0783 10.5099 58.9066 10.5099 58.5631 10.5099C57.5326 10.6851 55.987 12.4368 55.6435 12.7871C55.8153 12.7871 55.987 12.9623 56.3305 12.9623C56.6739 12.9623 57.0174 13.1374 57.3609 13.1374C57.7044 13.1374 58.0479 13.3126 58.2196 13.3126C58.5631 13.3126 58.7348 13.3126 59.0783 13.3126C60.1087 13.1374 60.4522 12.2616 60.4522 11.7361C60.9674 11.7361 61.6544 11.7361 61.9978 11.7361C61.9978 11.7361 62.1696 11.9113 62.5131 12.0864C62.6848 12.2616 63.0283 12.6119 63.0283 12.6119C63.0283 12.6119 63.2 12.7871 63.3718 12.9623C63.5435 13.1374 63.5435 13.1374 63.7152 13.3126C63.887 13.4877 64.0587 13.6629 64.2305 13.8381C64.5739 14.1884 64.7457 14.5387 65.0892 14.7139C65.2609 14.8891 65.4326 15.0642 65.4326 15.0642C65.0891 15.0642 64.7457 15.0642 64.5739 15.0642C64.5739 14.8891 64.4022 14.5387 64.2305 14.1884C64.0587 13.8381 63.5435 13.6629 63.0283 13.6629C61.9978 13.6629 60.1087 15.0642 59.7652 15.4146C59.937 15.5897 60.6239 15.7649 61.1392 16.1152C61.8261 16.4656 62.5131 16.6407 62.8565 16.6407C63.887 16.6407 64.4022 15.7649 64.5739 15.4146C65.0891 15.4146 65.7761 15.5897 66.1196 15.5897L66.9783 16.6407C66.9783 16.6407 67.15 16.8159 67.15 16.9911C67.3218 17.1662 67.3217 17.3414 67.3217 17.3414C67.3217 17.3414 67.6652 17.6917 67.837 18.2172C68.0087 18.3924 68.1804 18.7427 68.1804 18.7427C68.3522 18.9179 68.3522 19.093 68.3522 19.093C68.0087 19.093 67.6652 19.093 67.4935 19.093C67.4935 18.7427 67.3217 18.0421 66.6348 17.8669C66.4631 17.8669 66.2913 17.6917 66.1196 17.6917C65.0891 17.5166 63.0283 18.7427 62.5131 18.9179C62.6848 18.9179 62.8565 19.093 63.0283 19.2682C63.2 19.4434 63.5435 19.6185 63.887 19.7937C64.4022 20.144 65.0891 20.4944 65.4326 20.4944C66.4631 20.6695 66.9783 19.9689 67.3217 19.4434C67.6652 19.6185 68.3522 19.7937 68.8674 19.9689L69.5543 21.0199C69.5543 21.0199 69.7261 21.195 69.7261 21.5454C69.8978 21.8957 70.0696 22.246 70.2413 22.5964C70.4131 22.9467 70.5848 23.4722 70.7565 23.6473C70.9282 23.9977 70.9283 24.1728 70.9283 24.1728C70.5848 24.1728 70.2413 23.9977 70.0696 23.9977C70.0696 23.8225 70.0696 23.4722 69.8978 23.1219C69.7261 22.7715 69.3826 22.4212 68.8674 22.246C67.837 21.8957 65.7761 22.7715 65.0892 22.9467C65.4326 23.297 66.8065 24.6983 67.837 25.0487C68.8674 25.399 69.5543 24.6983 69.8978 24.348C70.2413 24.5232 70.9283 24.8735 71.2717 25.0487C71.2717 25.0487 71.4435 25.399 71.4435 25.5742C71.4435 25.7493 71.6152 25.9245 71.6152 25.9245C71.6152 26.0997 71.6152 26.0997 71.6152 26.0997L71.9587 26.9755C71.9587 26.9755 71.9587 27.1507 72.1304 27.3258C72.1304 27.501 72.3022 27.8513 72.3022 28.0265C72.4739 28.552 72.6456 29.0775 72.6456 29.0775C72.3022 28.9023 72.1304 28.9023 71.787 28.7271C71.787 28.552 71.787 28.3768 71.787 28.0265C71.787 27.6761 71.6152 27.501 71.4435 27.1507C71.2717 26.9755 71.1 26.9755 70.9283 26.8003C70.413 26.6252 69.7261 26.6252 68.8674 26.6252C68.1804 26.6252 67.3218 26.8003 67.15 26.9755C67.3218 27.1507 67.6652 27.6761 68.1804 28.2016C68.3522 28.3768 68.6957 28.7271 68.8674 28.9023C69.0391 29.0775 69.3826 29.2526 69.5543 29.4278C70.5848 29.9533 71.2717 29.4278 71.6152 29.0775C71.9587 29.2526 72.4739 29.7781 72.8174 29.9533C72.8174 29.9533 72.8174 30.3036 72.9891 30.654C72.9891 30.8291 72.9891 31.0043 72.9891 31.0043C72.9891 31.1795 72.9891 31.1795 72.9891 31.1795C72.9891 31.1795 72.9891 31.3546 73.1609 31.705C73.1609 32.0553 73.3326 32.4056 73.3326 32.9311C73.3326 33.4566 73.5043 33.8069 73.5043 34.1573C73.5043 34.5076 73.5043 34.6828 73.5043 34.6828C73.1609 34.5076 72.9891 34.3324 72.8174 34.1573C72.8174 33.9821 72.9891 33.6318 72.9891 33.2814C72.9891 32.9311 72.8174 32.5808 72.3022 32.2305C71.4435 31.705 69.2109 31.705 68.5239 31.705C68.6957 31.8801 68.8674 32.5808 69.2109 33.1063C69.5543 33.6318 69.8978 34.3324 70.413 34.5076C71.2717 35.0331 72.1304 34.6828 72.4739 34.5076C72.8174 34.8579 73.3326 35.2083 73.5043 35.5586C73.5043 35.5586 73.5043 35.9089 73.5043 36.2593C73.5043 36.6096 73.5043 36.9599 73.5043 36.9599V37.8357C73.5043 37.8357 73.5043 38.3612 73.5043 38.8867C73.5043 39.0619 73.5043 39.4122 73.5043 39.5874C73.5043 39.7626 73.5043 39.9377 73.5043 39.9377C73.3326 39.7626 72.9891 39.5874 72.8174 39.4122C72.9891 39.0619 73.1609 38.5364 72.9891 37.8357C72.8174 37.6606 72.8174 37.4854 72.6456 37.3103C71.9587 36.6096 69.5543 36.2593 69.0391 36.2593C69.0391 36.6096 69.3826 37.1351 69.5543 37.8357C69.7261 38.3612 70.0696 39.0619 70.413 39.4122C71.1 40.1129 72.1304 39.9377 72.4739 39.7626C72.8174 40.1129 73.1609 40.6384 73.3326 40.9887C73.3326 40.9887 73.3326 40.9887 73.3326 41.1639C73.3326 41.3391 73.3326 41.5142 73.3326 41.6894C73.3326 42.0397 73.3326 42.3901 73.3326 42.3901C73.3326 42.3901 73.3326 42.5652 73.3326 42.9155C73.3326 43.2659 73.1609 43.6162 73.1609 44.1417C73.1609 44.492 72.9891 45.0175 72.9891 45.3679C72.9891 45.7182 72.8174 45.8934 72.8174 45.8934C72.6457 45.7182 72.4739 45.3679 72.3022 45.1927C72.6457 44.8424 72.9891 43.9665 72.3022 43.0907C71.6152 42.2149 69.5544 41.5142 68.8674 41.5142C68.8674 41.6894 69.0391 42.39 69.2109 43.0907C69.3826 43.7914 69.5543 44.492 69.8978 44.8424C70.5848 45.7182 71.4435 45.543 71.9587 45.543C72.1304 45.8934 72.4739 46.594 72.6456 46.9444L72.3022 48.1705C72.3022 48.1705 72.3022 48.3457 72.1304 48.5208C72.1304 48.696 71.9587 48.8712 71.9587 48.8712C71.9587 48.8712 71.7869 49.3967 71.6152 49.9222C71.6152 50.0973 71.4435 50.4477 71.4435 50.6228C71.4435 50.798 71.2717 50.9731 71.2717 50.9731C71.1 50.798 70.9282 50.4477 70.7565 50.2725C71.1 50.0973 71.4435 49.5718 71.2717 48.8712C71.2717 48.696 71.1 48.5208 71.1 48.3457C70.5848 47.4698 68.5239 46.4188 68.0087 46.2437C68.0087 46.4188 68.0087 46.594 68.0087 46.9444C68.0087 47.2947 68.0087 47.645 68.0087 47.9953C68.0087 48.696 68.1804 49.3967 68.3522 49.747C68.8674 50.6228 69.7261 50.798 70.2413 50.6228C70.4131 50.9732 70.7565 51.6738 70.7565 52.1993L70.2413 53.4255C70.2413 53.4255 70.2413 53.4255 70.2413 53.6006C70.2413 53.6006 70.0696 53.7758 70.0696 53.951C69.8978 54.3013 69.7261 54.6516 69.5543 55.002C69.3826 55.3523 69.2109 55.7026 69.0391 56.0529C68.8674 56.4033 68.6957 56.5784 68.6957 56.5784C68.5239 56.2281 68.5239 56.053 68.3522 55.7026C68.5239 55.5275 68.8674 55.3523 69.0391 55.002C69.2109 54.6516 69.2109 54.3013 69.0391 53.7758C68.6956 52.9 66.8065 51.4987 66.2913 51.1483C66.2913 51.3235 66.2913 51.4986 66.2913 51.849C66.2913 52.1993 66.2913 52.3745 66.1196 52.7248C66.1196 53.4255 66.1196 54.1261 66.2913 54.6516C66.6348 55.7026 67.4935 55.8778 68.0087 55.8778C68.1804 56.4033 68.1804 56.9288 68.1804 57.4543C68.1804 57.4543 68.0087 57.8046 67.837 57.9798C67.6652 58.1549 67.6652 58.3301 67.6652 58.3301C67.6652 58.5053 67.4935 58.5053 67.4935 58.5053L66.9783 59.2059L67.6652 59.7314C67.6652 59.7314 67.837 59.3811 68.0087 59.2059C68.1804 59.0308 68.1804 58.8556 68.3522 58.8556C68.3522 58.6804 68.5239 58.6804 68.5239 58.6804C68.5239 58.6804 68.8674 58.1549 69.2109 57.6294C69.3826 57.2791 69.5544 57.1039 69.7261 56.9288C69.8978 56.7536 69.8978 56.5784 69.8978 56.5784C70.0696 56.4033 70.413 56.4033 70.5848 56.2281C70.9283 56.0529 71.1 56.053 71.2717 55.8778C71.4435 56.2281 72.1304 57.1039 73.1609 56.5784C73.6761 56.4033 74.363 55.8778 74.8783 55.1771C75.2217 54.8268 75.3935 54.4765 75.5652 54.3013C75.7369 53.951 75.9087 53.7758 76.0804 53.6006C75.7369 53.6006 75.05 53.4255 74.363 53.4255C73.6761 53.4255 72.8174 53.4255 72.3022 53.6006C71.787 53.7758 71.4435 54.1261 71.2717 54.4765C71.1 54.8268 71.1 55.1771 71.1 55.3523C70.9283 55.3523 70.5848 55.5275 70.2413 55.5275C70.2413 55.5275 70.413 55.1771 70.5848 54.8268C70.7565 54.6516 70.7565 54.4765 70.9283 54.3013C70.9283 54.1261 71.1 54.1261 71.1 54.1261C71.1 54.1261 71.1 53.951 71.2717 53.6006C71.4435 53.2503 71.6152 52.9 71.787 52.5496C72.1304 51.849 72.3022 51.1483 72.3022 51.1483C72.6457 50.798 73.1609 50.4477 73.6761 50.2725C74.0196 50.6228 74.5348 51.1483 75.5652 50.798H75.737C76.2522 50.6228 76.7674 49.9222 77.2826 49.2215C77.7978 48.5208 78.1413 47.8202 78.313 47.4698C77.6261 47.4698 75.3935 47.4698 74.5348 47.9953C74.0196 48.3457 73.8478 48.696 73.6761 49.0463C73.5044 49.3967 73.6761 49.747 73.6761 49.9222C73.5044 49.9222 73.5043 50.0973 73.3326 50.0973C73.1609 50.0973 72.9891 50.2725 72.8174 50.2725L72.9891 49.9222C72.9891 49.9222 72.9891 49.9222 72.9891 49.747C72.9891 49.5718 73.1609 49.3967 73.1609 49.2215C73.3326 48.8712 73.3326 48.5208 73.3326 48.5208C73.3326 48.5208 73.3326 48.3457 73.5043 48.1705C73.3326 47.4698 73.3326 47.2947 73.5043 46.9444Z" fill="#F5EFDB"/>
<path d="M33.3962 53C33.3375 53 33.3082 52.9085 33.3082 52.7256C33.3082 52.5426 33.3375 52.4511 33.3962 52.4511C34.6876 52.4511 35.6562 52.3749 36.3019 52.2224C36.9769 52.0394 37.4612 51.7345 37.7547 51.3076C38.0482 50.8502 38.195 50.1793 38.195 49.295V32.2792C38.195 30.2056 37.7254 29.1688 36.7862 29.1688C36.0818 29.1688 34.9518 29.7482 33.3962 30.9069L33.3082 30.9527C33.1908 30.9527 33.1027 30.8917 33.044 30.7697C32.9853 30.6172 32.9853 30.5105 33.044 30.4495L41.5409 24.0915C41.6583 24.0305 41.761 24 41.8491 24C41.9078 24 41.9665 24.0305 42.0252 24.0915C42.0839 24.1525 42.1132 24.2135 42.1132 24.2744V49.295C42.1132 50.2098 42.2453 50.8807 42.5094 51.3076C42.7736 51.7345 43.2285 52.0394 43.8742 52.2224C44.5493 52.3749 45.5472 52.4511 46.8679 52.4511C46.956 52.4511 47 52.5426 47 52.7256C47 52.9085 46.956 53 46.8679 53C45.6939 53 44.7694 52.9848 44.0943 52.9543L40.1321 52.9085L36.3019 52.9543C35.5975 52.9848 34.6289 53 33.3962 53Z" fill="#AAAAAA"/>
</svg>
