<svg width="79" height="79" viewBox="0 0 79 79" fill="none" xmlns="http://www.w3.org/2000/svg">
<path d="M73.712 54.3326C73.5518 54.0101 73.2313 53.6877 72.9108 53.5265C72.4301 53.0428 71.9493 52.8816 71.9493 52.8816C71.9493 52.8816 71.4686 52.7203 70.8276 52.7203C70.5071 52.7203 70.1867 52.7203 69.7059 52.7203C69.3854 52.7203 68.9047 52.8816 68.5842 53.0428C68.2637 53.204 67.9432 53.3652 67.783 53.5265C67.3023 53.8489 66.9818 54.1714 66.6613 54.4938C66.5011 54.655 66.5011 54.8163 66.3408 54.8163C66.3408 54.9775 66.1806 54.9775 66.1806 54.9775C66.1806 54.9775 66.6613 55.1387 67.3023 55.2999C67.6228 55.2999 67.9432 55.4612 68.424 55.4612C68.7445 55.4612 69.2252 55.4611 69.7059 55.2999C70.0264 55.1387 70.3469 54.9775 70.6674 54.8163C71.1481 54.4938 71.4686 54.0101 71.7891 53.6877C72.1096 53.3652 72.1096 53.0428 72.1096 53.0428C72.1096 53.0428 71.9493 53.3653 71.9493 53.8489C71.7891 54.3326 71.7891 54.8163 71.7891 55.4612C71.7891 55.7836 71.7891 56.106 71.9493 56.5897C72.1096 57.0734 72.2698 57.3958 72.4301 57.7183C72.5903 58.0407 72.9108 58.3632 73.071 58.6856C73.5518 59.1693 73.8723 59.4917 73.8723 59.4917C73.8723 59.4917 73.8722 59.4917 74.0325 59.3305C74.0325 59.1693 74.1927 59.0081 74.353 58.8469C74.5132 58.3632 74.6735 57.7183 74.6735 57.0734C74.6735 56.7509 74.6735 56.2673 74.5132 55.9448C74.1927 54.9775 74.0325 54.655 73.712 54.3326Z" fill="#F5EFDB"/>
<path d="M76.2757 49.9796C76.1155 49.4959 75.795 49.1734 75.4745 48.851C75.154 48.5286 74.8335 48.3673 74.6733 48.2061C74.0323 47.8837 73.7118 47.7224 73.7118 47.7224C73.7118 47.7224 73.2311 47.7224 72.5901 47.7224C72.2696 47.7224 71.9492 47.7224 71.4684 47.8836C71.1479 48.0449 70.6672 48.0449 70.3467 48.3673C70.0262 48.5286 69.7057 48.851 69.3852 49.0122C69.0648 49.3347 68.9045 49.4959 68.7443 49.8184C68.584 50.1408 68.4238 50.302 68.4238 50.4632C68.2635 50.6245 68.2635 50.7857 68.2635 50.7857C68.2635 50.7857 68.7443 50.9469 69.3852 50.9469C70.0262 50.9469 70.8274 50.9469 71.6286 50.6245C71.9491 50.4633 72.2696 50.1408 72.5901 49.8184C72.9106 49.4959 73.0708 49.1735 73.2311 49.0122C73.5516 48.5286 73.7118 48.0449 73.7118 47.8836C73.7118 47.8836 73.5516 48.3673 73.5516 49.0122C73.5516 49.3347 73.5516 49.6571 73.5516 50.1408C73.5516 50.4632 73.7118 50.9469 73.8721 51.2694C74.1926 52.0755 74.8335 52.7204 75.3143 53.2041C75.795 53.6877 76.2757 53.849 76.2757 53.849C76.2757 53.849 76.2757 53.6877 76.436 53.5265C76.436 53.3653 76.5962 53.0428 76.5962 52.7204C76.5962 52.3979 76.5962 51.9143 76.5962 51.4306C76.5962 50.9469 76.436 50.4633 76.2757 49.9796Z" fill="#F5EFDB"/>
<path d="M77.8785 45.6271C77.7183 45.1434 77.5581 44.821 77.3978 44.3373C77.0773 44.0149 76.9171 43.6924 76.5966 43.37C76.2761 43.0475 75.9556 42.8863 75.6351 42.8863C74.9942 42.5638 74.5134 42.5638 74.5134 42.5638C74.5134 42.5638 74.0327 42.5639 73.3917 42.7251C73.0712 42.7251 72.7508 42.8863 72.27 43.0475C71.9495 43.2087 71.4688 43.3699 71.1483 43.6924C70.8278 44.0148 70.5074 44.1761 70.3471 44.4985C70.1869 44.8209 70.0266 45.1434 69.8664 45.3046C69.7061 45.7883 69.5459 46.272 69.5459 46.272C69.5459 46.272 70.0266 46.272 70.6676 46.272C71.3086 46.272 72.1098 46.1107 72.911 45.4659C73.2315 45.1434 73.552 44.9822 73.7122 44.6597C73.8725 44.3373 74.0327 44.0148 74.1929 43.6924C74.3532 43.0475 74.5134 42.5638 74.5134 42.5638C74.5134 42.5638 74.5134 43.0475 74.5134 43.6924C74.5134 44.0148 74.6737 44.3373 74.6737 44.821C74.8339 45.1434 74.9942 45.6271 75.1544 45.9496C75.6351 46.7557 76.2761 47.2393 76.9171 47.5618C77.5581 47.8842 77.8785 48.0454 77.8785 48.0454C77.8785 48.0454 78.0388 47.5618 78.0388 46.7557C78.0388 46.4332 78.0388 46.1108 77.8785 45.6271Z" fill="#F5EFDB"/>
<path d="M78.8396 41.4349C78.8396 40.9512 78.6794 40.3063 78.3589 39.6614C78.1987 39.339 78.0384 39.0166 77.7179 38.6941C77.077 38.0492 76.2758 37.7268 75.6348 37.5655C74.9938 37.4043 74.5131 37.4043 74.5131 37.4043C74.5131 37.4043 74.0324 37.4043 73.3914 37.7268C72.7504 37.888 71.9492 38.3716 71.4685 39.0165C71.148 39.339 70.9877 39.5002 70.8275 39.8227C70.507 40.3063 70.3468 40.79 70.3468 41.2737C70.3468 41.4349 70.3468 41.5961 70.1865 41.7574C70.1865 41.9186 70.1865 41.9186 70.1865 41.9186C70.1865 41.9186 70.6672 41.9186 71.3082 41.7574C71.9492 41.5961 72.7504 41.2737 73.3914 40.6288C73.7119 40.3063 73.8721 40.1451 74.0323 39.8227C74.3528 39.339 74.3528 38.6941 74.5131 38.3717C74.5131 37.888 74.5131 37.5655 74.5131 37.5655C74.5131 37.5655 74.5131 37.888 74.6733 38.3717C74.8336 38.8553 74.8336 39.339 75.1541 39.9839C75.3143 40.3063 75.4745 40.6288 75.795 40.9512C76.436 41.5961 77.077 42.0798 77.7179 42.241C78.3589 42.5635 78.8396 42.5635 78.8396 42.5635V42.4023C78.8396 41.9186 78.8396 41.5961 78.8396 41.4349Z" fill="#F5EFDB"/>
<path d="M63.1358 65.6185C63.1358 65.6185 62.8153 65.2961 62.1743 64.9736C61.5334 64.6512 60.8924 64.3287 59.9309 64.1675C59.6105 64.1675 59.29 64.1675 58.9695 64.1675C58.3285 64.3287 57.8478 64.4899 57.5273 64.6511C57.2068 64.8124 56.8863 64.9736 56.8863 64.9736C56.8863 64.9736 57.2068 65.2961 57.6875 65.7797C58.1682 66.2634 58.9695 66.5859 59.7707 66.7471C60.0912 66.7471 60.4117 66.7471 60.7322 66.7471C61.3731 66.5859 61.8539 66.4247 62.1743 66.1022C62.9756 65.941 63.1358 65.7797 63.1358 65.6185C63.1358 65.6185 62.8153 65.9409 62.6551 66.2634C62.3346 66.5858 62.0141 67.0695 61.8539 67.5532C61.6936 67.8757 61.5334 68.1981 61.5334 68.5206C61.3731 69.3267 61.5334 70.2941 61.6936 70.939C61.8539 71.5838 62.1743 72.0675 62.1743 72.0675C62.1743 72.0675 62.4948 71.9063 62.8153 71.5838C63.1358 71.2614 63.6166 70.7777 63.937 70.1328C64.0973 69.8104 64.2575 69.4879 64.2575 69.0042C64.4178 68.0369 64.0973 67.2308 63.937 66.5859C63.4563 66.1022 63.1358 65.6185 63.1358 65.6185Z" fill="#F5EFDB"/>
<path d="M66.8213 61.9102C66.8213 61.9102 66.3406 61.5878 65.8598 61.4265C65.2189 61.1041 64.4176 60.9429 63.6164 60.9429C63.4562 60.9429 63.1357 60.9429 62.9755 61.1041C62.8152 61.1041 62.655 61.2653 62.4947 61.2653C62.1742 61.4266 61.8537 61.5878 61.6935 61.749C61.373 61.9102 61.2128 62.0715 61.0525 62.0715C60.8923 62.2327 60.8923 62.2327 60.8923 62.2327C60.8923 62.2327 61.2128 62.5551 61.8537 62.8776C62.1742 63.0388 62.4947 63.2 62.8152 63.3612C62.9754 63.3612 63.1357 63.5225 63.4562 63.5225C63.6164 63.5225 63.9369 63.5225 64.0972 63.5225C64.5779 63.5225 64.8984 63.3612 65.2189 63.2C65.5393 63.0388 65.8598 62.8776 66.1803 62.7164C66.3406 62.2327 66.6611 61.9102 66.8213 61.9102C66.8213 61.9102 66.5008 62.3939 66.1803 62.8776C66.0201 63.2 65.8598 63.5225 65.6996 63.8449C65.5394 64.1674 65.5394 64.651 65.5394 64.9735C65.5394 65.1347 65.5394 65.4572 65.5394 65.6184C65.5394 65.7796 65.5394 66.1021 65.6996 66.2633C65.8598 66.5857 65.8598 67.0694 66.0201 67.3919C66.3406 68.0368 66.6611 68.3592 66.6611 68.3592C66.6611 68.3592 66.8213 68.198 66.9816 68.0368C67.1418 67.8755 67.302 67.5531 67.4623 67.3919C67.6225 67.0694 67.7828 66.747 67.943 66.2633C67.943 66.1021 68.1033 65.7796 68.1033 65.6184C68.1033 65.4572 68.1033 65.1347 68.1033 64.9735C68.1033 64.0061 67.7828 63.2 67.4623 62.7164C67.1418 62.2327 66.8213 61.9102 66.8213 61.9102Z" fill="#F5EFDB"/>
<path d="M70.6672 58.3628C70.1865 57.8791 69.866 57.5567 69.866 57.5567C69.866 57.5567 69.3853 57.3955 68.7443 57.2342C68.1033 57.073 67.3021 56.9118 66.5009 57.073C65.6997 57.2342 65.0587 57.7179 64.578 58.0404C64.4177 58.2016 64.0972 58.3628 64.0972 58.524C63.937 58.6852 63.937 58.6852 63.937 58.6852C63.937 58.6852 64.4177 59.0077 64.8985 59.1689C65.5394 59.4913 66.3407 59.6526 67.1419 59.4914C67.6226 59.4914 67.9431 59.3301 68.2636 59.0077C68.5841 58.8464 68.9046 58.524 69.0648 58.3628C69.225 58.2016 69.5455 57.8791 69.5455 57.7179C69.7058 57.5567 69.7058 57.3954 69.7058 57.3954C69.7058 57.3954 69.5455 57.5567 69.5455 57.7179C69.3853 57.8791 69.3853 58.2016 69.225 58.524C69.0648 58.8465 69.0648 59.1689 68.9046 59.6526C68.9046 59.975 68.7443 60.4587 68.9046 60.9424C69.0648 61.9097 69.3853 62.5546 69.7058 63.1995C70.0263 63.8444 70.3468 64.1669 70.3468 64.1669C70.3468 64.1669 70.507 64.0056 70.507 63.8444C70.6672 63.6832 70.8275 63.3607 70.9877 63.0383C71.3082 62.3934 71.6287 61.426 71.4685 60.6199C71.4685 59.4913 70.9877 58.8464 70.6672 58.3628Z" fill="#F5EFDB"/>
<path d="M49.0344 72.3899C48.7139 71.9063 48.0729 71.1001 47.4319 70.7777C47.1114 70.6165 46.7909 70.4552 46.4704 70.294C46.15 70.1328 45.9897 70.1328 45.6692 70.1328C45.3487 70.1328 45.1885 70.1328 45.0283 70.1328C44.7078 70.1328 44.3873 70.1328 44.3873 70.1328C44.3873 70.1328 44.5475 70.6165 44.7078 71.2614C45.0283 71.9063 45.509 72.5512 46.15 73.0348C46.4704 73.1961 46.7909 73.3573 47.1114 73.3573C48.2331 73.6797 49.3548 73.3573 49.5151 73.3573C49.3548 73.3573 48.3934 73.6797 47.4319 74.4858C47.1114 74.6471 46.9512 74.9695 46.6307 75.292C46.15 75.9369 45.8295 76.9042 45.6692 77.5491C45.509 78.194 45.509 78.6777 45.509 78.6777C45.509 78.6777 45.8295 78.6777 46.3102 78.5165C46.4705 78.5165 46.7909 78.3553 47.1114 78.194C47.4319 78.0328 47.7524 77.8716 47.9127 77.7103C48.2331 77.5491 48.5536 77.2267 48.7139 76.9042C49.1946 76.0981 49.3548 75.292 49.3548 74.6471C49.3548 74.0022 49.3548 73.5185 49.3548 73.5185C49.3548 73.5185 49.3548 72.8736 49.0344 72.3899Z" fill="#F5EFDB"/>
<path d="M54.4826 71.5841C54.4826 71.5841 54.1622 71.1004 53.8417 70.6167C53.361 70.1331 52.72 69.4882 52.079 69.1657C51.7585 69.0045 51.2778 68.8433 50.9573 68.8433C50.6368 68.8433 50.3163 68.8433 49.9958 68.8433C49.3549 68.8433 49.0344 69.0045 49.0344 69.0045C49.0344 69.0045 49.1946 69.4882 49.5151 69.9719C49.8356 70.4555 50.4766 71.1004 51.2778 71.5841C52.079 71.9065 52.8802 71.9066 53.5212 71.7453C54.0019 71.7453 54.4826 71.5841 54.4826 71.5841C54.4826 71.5841 54.0019 71.7453 53.5212 72.229C53.0405 72.5514 52.3995 73.1963 52.079 74.0025C51.5983 74.8086 51.5983 75.6147 51.438 76.2596C51.438 76.9045 51.5983 77.3882 51.5983 77.3882C51.5983 77.3882 52.079 77.2269 52.72 76.9045C53.0405 76.7433 53.3609 76.4208 53.6814 76.0984C54.0019 75.7759 54.3224 75.4535 54.4826 74.9698C54.9634 74.1637 54.9634 73.1963 54.8031 72.5515C54.6429 71.9066 54.4826 71.5841 54.4826 71.5841Z" fill="#F5EFDB"/>
<path d="M59.13 68.8426C59.13 68.8426 58.8095 68.5201 58.3288 68.0365C57.848 67.5528 57.0468 67.0692 56.2456 66.9079C55.7648 66.7467 55.4444 66.7467 55.1239 66.7467C54.8034 66.7467 54.4829 66.9079 54.1624 66.9079C53.5214 67.0692 53.2009 67.2304 53.2009 67.2304C53.2009 67.2304 53.5214 67.714 53.8419 68.1977C54.3227 68.6814 54.9636 69.165 55.7648 69.4875C56.0853 69.6487 56.5661 69.6487 56.8865 69.6487C57.207 69.6487 57.6878 69.4875 57.848 69.4875C58.6492 69.165 58.9697 69.0038 59.13 68.8426C59.13 68.8426 58.6492 69.165 58.1685 69.6487C58.0083 69.8099 57.6878 70.1324 57.5275 70.4548C57.3673 70.7773 57.0468 71.0998 56.8865 71.5834C56.5661 72.3895 56.5661 73.3569 56.7263 74.0018C56.8866 74.6467 57.0468 75.1303 57.0468 75.1303C57.0468 75.1303 57.5275 74.9691 58.1685 74.4854C58.489 74.3242 58.8095 74.0018 58.9697 73.6793C59.2902 73.3569 59.4504 72.8732 59.6107 72.5508C59.9312 71.7447 59.7709 70.7773 59.6107 70.1324C59.2902 69.3263 59.13 68.8426 59.13 68.8426Z" fill="#F5EFDB"/>
<path d="M33.9718 73.3582C33.8116 72.7133 33.6513 71.9072 33.1706 71.101C33.0104 70.7786 32.6899 70.6174 32.5296 70.2949C32.3694 70.1337 32.0489 69.9725 31.8887 69.8113C31.7284 69.65 31.4079 69.4888 31.2477 69.4888C30.9272 69.3276 30.6067 69.1664 30.6067 69.1664C30.6067 69.1664 30.4465 69.65 30.4465 70.2949C30.4465 70.9398 30.6067 71.746 31.0875 72.5521C31.2477 72.8745 31.5682 73.0358 31.7284 73.3582C31.8887 73.5194 32.2091 73.6806 32.3694 73.8419C32.5296 74.0031 32.8501 74.0031 33.0104 74.1643C33.4911 74.3256 33.6513 74.3255 33.8116 74.3255C33.8116 74.3255 33.4911 74.3255 33.0104 74.3255C32.8501 74.3255 32.5296 74.3255 32.2092 74.3255C31.8887 74.3255 31.5682 74.3255 31.4079 74.4868C31.0874 74.4868 30.767 74.648 30.4465 74.8092C29.6452 75.2929 29.0043 75.7766 28.6838 76.4215C28.3633 76.9051 28.0428 77.3888 28.0428 77.3888C28.0428 77.3888 28.3633 77.55 28.844 77.55C29.1645 77.55 29.3248 77.55 29.6452 77.55C29.9657 77.55 30.2862 77.55 30.6067 77.3888C30.9272 77.3888 31.2477 77.2276 31.7284 77.0664C32.5296 76.5827 33.0104 75.9378 33.3309 75.2929C33.6513 74.648 33.8116 74.1643 33.8116 74.1643C33.8116 74.1643 34.1321 74.0031 33.9718 73.3582Z" fill="#F5EFDB"/>
<path d="M37.9776 71.7451C37.6571 71.4226 37.3366 71.2614 37.0162 70.9389C36.6957 70.7777 36.3752 70.6165 36.2149 70.4552C35.7342 70.294 35.2535 70.1328 35.2535 70.1328C35.2535 70.1328 35.2535 70.6165 35.2535 71.2613C35.4137 71.9062 35.574 72.7124 36.2149 73.3573C36.5354 73.6797 36.8559 73.841 37.1764 74.1634C37.4969 74.3246 37.8174 74.4858 38.1378 74.6471C38.7788 74.8083 39.2595 74.8083 39.2595 74.8083C39.2595 74.8083 38.7788 74.8083 38.1378 74.9695C37.8174 74.9695 37.4969 75.1307 37.1764 75.2919C36.8559 75.4532 36.3752 75.6144 36.0547 75.9368C35.4137 76.4205 34.933 77.2266 34.6125 77.7103C34.292 78.3552 34.1318 78.8389 34.1318 78.8389C34.1318 78.8389 34.6125 78.8389 35.4137 78.8389C36.2149 78.8389 37.0162 78.5164 37.8174 78.0328C38.6186 77.3879 38.9391 76.743 39.0993 76.0981C39.2596 75.4532 39.4198 74.9695 39.4198 74.9695C39.4198 74.9695 39.4198 74.4858 39.2595 73.8409C38.7788 73.0348 38.4583 72.3899 37.9776 71.7451Z" fill="#F5EFDB"/>
<path d="M44.0672 73.5182C43.7468 72.8733 43.4263 72.2285 42.7853 71.5836C42.4648 71.2611 42.1443 71.0999 41.8238 70.9387C41.5034 70.7774 41.1829 70.7774 40.8624 70.6162C40.2214 70.455 39.9009 70.455 39.9009 70.455C39.9009 70.455 39.9009 70.9387 40.0611 71.5836C40.2214 72.2285 40.5419 73.0345 41.1828 73.5182C41.8238 74.0019 42.6251 74.3244 43.266 74.3244C43.907 74.3244 44.3877 74.3244 44.3877 74.3244C44.3877 74.3244 43.907 74.3244 43.266 74.6468C42.6251 74.808 41.9841 75.1305 41.3431 75.7754C40.7021 76.4203 40.3816 77.2264 40.0611 77.8713C39.9009 78.5162 39.7407 78.9999 39.7407 78.9999C39.7407 78.9999 40.2214 78.9999 41.0226 78.8387C41.3431 78.8387 41.8238 78.6774 42.1443 78.355C42.4648 78.1938 42.9455 77.8713 43.266 77.5489C43.907 76.904 44.2275 76.0978 44.2275 75.4529C44.3877 74.808 44.3877 74.3244 44.3877 74.3244C44.3877 74.3244 44.3877 74.0019 44.0672 73.5182Z" fill="#F5EFDB"/>
<path d="M19.5496 68.5206C19.5496 68.5206 19.7099 68.0369 20.0303 67.392C20.1906 66.7471 20.3508 65.941 20.3508 65.1349C20.3508 64.8124 20.1906 64.49 20.0303 64.1675C19.8701 63.6838 19.5496 63.2002 19.2291 62.8777C19.0689 62.7165 19.0689 62.5553 18.9086 62.5553C18.7484 62.5553 18.7484 62.394 18.7484 62.394C18.7484 62.394 18.4279 62.7165 18.1074 63.3614C17.7869 64.0063 17.6267 64.8124 17.6267 65.6185C17.6267 65.941 17.7869 66.2634 17.9472 66.5859C18.5881 67.8757 19.5496 68.5206 19.5496 68.5206C19.3894 68.5206 18.5882 67.8757 17.3062 67.5533C16.9857 67.5533 16.6652 67.392 16.1845 67.392C15.3833 67.392 14.4218 67.7145 13.9411 68.0369C13.3001 68.3594 12.9796 68.6818 12.9796 68.6818C12.9796 68.6818 12.9796 68.6818 13.1399 68.843C13.3001 69.0043 13.4604 69.0043 13.6206 69.1655C14.1013 69.4879 14.5821 69.8104 15.223 69.9716C15.5435 70.1328 16.0243 70.1329 16.3447 70.1329C17.3062 70.1329 18.1074 69.6492 18.5882 69.3267C19.2291 69.0043 19.5496 68.5206 19.5496 68.5206Z" fill="#F5EFDB"/>
<path d="M24.0365 71.2618C24.0365 71.2618 24.1968 70.7781 24.357 70.1332C24.5173 69.4883 24.5173 68.6822 24.357 67.8761C24.1968 67.3924 24.0366 67.07 23.8763 66.7475C23.7161 66.5863 23.7161 66.425 23.5558 66.2638C23.3956 66.1026 23.3956 65.9414 23.2353 65.9414C22.9148 65.4577 22.4341 65.2965 22.4341 65.2965C22.4341 65.2965 22.2739 65.7802 21.9534 66.425C21.7931 67.0699 21.6329 67.8761 21.7931 68.6822C21.9534 69.1658 22.1136 69.4883 22.2739 69.8108C22.4341 70.1332 22.7546 70.4557 22.9148 70.6169C23.5558 70.9393 24.0365 71.2618 24.0365 71.2618C24.0365 71.2618 23.5558 70.9393 22.9148 70.7781C22.5944 70.7781 22.2739 70.6169 21.7931 70.6169C21.4726 70.6169 20.9919 70.6169 20.5112 70.6169C19.71 70.7781 18.9087 71.2618 18.428 71.5842C17.9473 72.0679 17.6268 72.3904 17.6268 72.3904C17.6268 72.3904 18.1075 72.7128 18.7485 72.874C18.9087 72.874 19.069 73.0352 19.2292 73.0352C19.3895 73.0352 19.71 73.1965 19.8702 73.1965C20.3509 73.1965 20.6714 73.1965 21.1521 73.1965C22.1136 73.0353 22.7546 72.5516 23.2353 72.0679C23.8763 71.7454 24.0365 71.2618 24.0365 71.2618Z" fill="#F5EFDB"/>
<path d="M29.0041 73.1958C29.0041 73.1958 29.1643 72.7121 29.1643 72.0672C29.1643 71.4223 29.1643 70.6162 28.6836 69.81C28.5233 69.4876 28.3631 69.1651 28.0426 68.8427C27.8824 68.5202 27.5619 68.359 27.4016 68.1978C26.9209 67.8753 26.6004 67.7141 26.6004 67.7141C26.6004 67.7141 26.4402 68.1978 26.28 68.8427C26.1197 69.4876 26.1197 70.2937 26.4402 71.0998C26.6004 71.4223 26.7607 71.7447 27.0812 72.0672C27.4016 72.3896 27.5619 72.5508 27.8824 72.7121C28.3631 73.0345 28.8438 73.1958 29.0041 73.1958C29.0041 73.1958 28.5233 73.0345 27.8824 73.0345C27.5619 73.0345 27.2414 73.0345 26.7607 73.0345C26.4402 73.0345 25.9595 73.1958 25.639 73.1958C24.8378 73.5182 24.1968 74.0019 23.7161 74.4856C23.2353 74.9692 23.0751 75.4529 23.0751 75.4529C23.0751 75.4529 23.5558 75.6142 24.1968 75.7754C24.5173 75.9366 24.998 75.9366 25.3185 75.9366C25.7992 75.9366 26.1197 75.9366 26.6004 75.7754C27.4016 75.4529 28.0426 74.808 28.5233 74.3243C28.6836 73.6794 29.0041 73.1958 29.0041 73.1958Z" fill="#F5EFDB"/>
<path d="M8.01225 57.2351C8.65322 57.0738 9.13395 56.9126 9.13395 56.9126C9.13395 56.9126 9.45444 56.5902 9.93517 56.1065C10.0954 55.9453 10.4159 55.6228 10.5762 55.3004C10.7364 54.9779 11.0569 54.6554 11.0569 54.1718C11.2171 53.8493 11.2171 53.5269 11.2171 53.2045C11.2171 52.5596 11.2171 52.0759 11.0569 51.7534C11.0569 51.5922 10.8966 51.431 10.8966 51.2698C10.8966 51.1085 10.8966 51.1085 10.8966 51.1085C10.8966 51.1085 10.4159 51.2697 9.93517 51.7534C9.61468 51.9146 9.45444 52.2371 9.13395 52.5595C8.81346 52.882 8.65323 53.2044 8.49298 53.6881C8.33274 54.0106 8.33273 54.333 8.33273 54.6555C8.33273 55.3004 8.49299 55.784 8.65324 56.2677C8.81348 56.7514 8.97372 56.9126 8.97372 57.0738C8.97372 57.0738 8.81347 56.7514 8.49298 56.429C8.1725 56.1065 7.85202 55.6228 7.37128 55.3004C7.0508 55.1391 6.7303 54.8167 6.40981 54.8167C5.92908 54.6555 5.60859 54.4942 5.12786 54.4942C4.64713 54.4942 4.32665 54.4942 4.00616 54.4942C3.36519 54.4942 2.88446 54.6555 2.88446 54.6555C2.88446 54.6555 2.88447 54.6555 3.04471 54.8167C3.04471 54.9779 3.20495 55.1391 3.3652 55.3004C3.68568 55.784 4.00617 56.2677 4.4869 56.7514C4.80738 56.9126 5.12788 57.235 5.44837 57.3963C5.9291 57.5575 6.24957 57.7187 6.7303 57.7187C7.21103 57.3963 7.69176 57.3963 8.01225 57.2351Z" fill="#F5EFDB"/>
<path d="M10.8964 61.9111C11.5374 61.7499 11.8579 61.4274 11.8579 61.4274C11.8579 61.4274 12.1783 61.105 12.6591 60.6213C12.9796 60.1376 13.4603 59.3315 13.6205 58.5254C13.6205 58.0417 13.6205 57.7193 13.6205 57.3968C13.6205 57.0744 13.4603 56.752 13.4603 56.4295C13.3001 55.9458 13.1398 55.4622 13.1398 55.4622C13.1398 55.4622 12.8193 55.7846 12.3386 56.2683C11.8578 56.752 11.3771 57.3968 11.2169 58.3642C11.0566 59.1703 11.2169 59.9764 11.5374 60.6213C11.6976 60.9438 11.8579 61.105 11.8579 61.2663C12.0181 61.4275 12.0181 61.5887 12.0181 61.5887C11.8578 61.4275 10.8964 60.1377 9.1337 59.654C8.33249 59.4928 7.37103 59.4928 6.73005 59.654C6.08908 59.8152 5.60835 59.9764 5.60835 59.9764C5.60835 59.9764 5.92884 60.4601 6.40957 60.9438C6.73006 61.2662 6.89031 61.4275 7.37104 61.7499C7.69153 61.9111 8.17226 62.2336 8.65299 62.2336C9.45421 62.2336 10.2554 62.0724 10.8964 61.9111Z" fill="#F5EFDB"/>
<path d="M14.582 65.9409C15.223 65.6184 15.5435 65.296 15.5435 65.296C15.5435 65.296 15.864 64.9735 16.1845 64.3286C16.3447 64.0062 16.505 63.6837 16.6652 63.3613C16.6652 63.2001 16.8254 63.0388 16.8254 62.7164C16.8254 62.5552 16.8254 62.2327 16.8254 62.0715C16.8254 61.5878 16.8254 61.2654 16.6652 60.9429C16.505 60.6205 16.5049 60.298 16.3447 59.9756C16.1844 59.6531 16.0242 59.4919 16.0242 59.3307C15.864 59.1694 15.864 59.1694 15.864 59.1694C15.864 59.1694 15.5435 59.4919 15.0628 59.9756C14.7423 60.4592 14.2615 61.2654 14.2615 62.0715C14.2615 62.2327 14.2615 62.5552 14.2615 62.7164C14.2615 62.8776 14.4218 63.0388 14.4218 63.2001C14.582 63.5225 14.7423 63.845 14.9025 64.1674C15.223 64.6511 15.5435 64.9735 15.7037 65.1348C15.7037 65.1348 15.223 64.8123 14.7422 64.4899C14.4218 64.3287 14.1013 64.1674 13.7808 64.0062C13.6206 64.0062 13.4603 63.8449 13.1398 63.8449C12.9796 63.8449 12.8193 63.6838 12.4988 63.6838C11.6976 63.5225 10.7362 63.8449 10.0952 64.0062C9.45421 64.1674 9.13371 64.4899 9.13371 64.4899C9.13371 64.4899 9.29397 64.6511 9.29397 64.8123C9.45421 64.9735 9.61444 65.1347 9.93493 65.4572C10.2554 65.6184 10.5759 65.9409 10.8964 66.1021C11.2169 66.2633 11.6976 66.4245 12.1784 66.4245C12.3386 66.4245 12.6591 66.4245 12.8193 66.4245C12.9796 66.4245 13.3001 66.4245 13.4603 66.2633C13.941 66.2633 14.2615 66.1021 14.582 65.9409Z" fill="#F5EFDB"/>
<path d="M1.44178 40.6284C2.08275 41.2733 2.88395 41.5958 3.52493 41.757C4.1659 41.9182 4.64665 41.9182 4.64665 41.9182C4.64665 41.9182 5.12738 41.9182 5.76835 41.5958C6.40932 41.4345 7.21054 40.9509 7.69127 40.306C8.01176 39.9835 8.17199 39.8223 8.33223 39.4999C8.65272 39.0162 8.81297 38.5325 8.81297 38.0488C8.81297 37.8876 8.81298 37.7264 8.97322 37.5652C8.97322 37.4039 8.97322 37.4039 8.97322 37.4039C8.97322 37.4039 8.4925 37.4039 7.85152 37.5652C7.21055 37.7264 6.40932 38.0488 5.76835 38.6937C5.44786 39.0162 5.2876 39.1774 5.12736 39.4999C4.80687 39.9835 4.80689 40.6284 4.64665 40.9509C4.64665 41.4345 4.64665 41.757 4.64665 41.757C4.64665 41.757 4.64664 41.4345 4.4864 40.9509C4.32615 40.4672 4.32615 39.9835 4.00566 39.4999C3.84542 39.1774 3.68518 38.855 3.3647 38.5325C2.72372 37.8876 2.08275 37.4039 1.44178 37.0815C0.800803 36.7591 0.320053 36.759 0.320053 36.759V36.9203C0.320053 37.0815 0.320053 37.2427 0.320053 37.5652C0.320053 38.0488 0.480302 38.6937 0.800789 39.3386C0.961032 39.9835 1.12129 40.306 1.44178 40.6284Z" fill="#F5EFDB"/>
<path d="M1.92292 46.2713C2.56389 46.9162 3.52537 47.0774 4.16634 47.0774C4.80731 47.0774 5.28804 47.0774 5.28804 47.0774C5.28804 47.0774 5.76878 46.9162 6.24951 46.5938C6.89048 46.2713 7.53144 45.7877 8.01217 45.1428C8.4929 44.4979 8.65314 43.6917 8.81339 43.2081C8.81339 43.0468 8.81339 42.8856 8.81339 42.8856C8.81339 42.7244 8.81339 42.7244 8.81339 42.5632C8.81339 42.402 8.81339 42.2407 8.81339 42.2407C8.81339 42.2407 8.33266 42.2407 7.69169 42.5632C7.3712 42.7244 7.05071 42.8856 6.73022 43.0468C6.40973 43.2081 6.08926 43.5305 5.76877 43.853C5.44829 44.1754 5.28804 44.4979 5.28804 44.9815C5.12779 45.304 5.12778 45.6264 5.12778 45.9489C5.12778 46.2713 5.12778 46.5938 5.12778 46.755C5.12778 46.9162 5.12778 47.0774 5.12778 47.0774C5.12778 47.0774 5.1278 46.9162 4.96756 46.755C4.96756 46.5938 4.80732 46.2713 4.64707 45.9489C4.48683 45.6264 4.32658 45.304 4.16634 44.9815C4.0061 44.6591 3.68561 44.3366 3.36512 44.0142C3.04463 43.6917 2.72415 43.5305 2.24342 43.3693C1.92294 43.2081 1.44219 43.0468 1.1217 43.0468C0.480725 42.8856 0 42.8856 0 42.8856C0 42.8856 0 43.0468 0 43.2081C0 43.3693 0 43.5305 0 43.5305C0 43.6918 0.160253 43.853 0.160253 44.0142C0.801227 44.8203 1.28194 45.6264 1.92292 46.2713Z" fill="#F5EFDB"/>
<path d="M5.60866 52.3977C6.24964 52.3977 6.73036 52.2365 6.73036 52.2365C6.73036 52.2365 7.2111 52.0753 7.69183 51.5916C8.17256 51.1079 8.81352 50.6243 9.13401 49.8181C9.29425 49.4957 9.45452 49.012 9.45452 48.6895C9.45452 48.3671 9.61475 48.0446 9.61475 47.7222C9.61475 47.561 9.61475 47.3998 9.61475 47.3998C9.61475 47.2385 9.61475 47.2385 9.61475 47.0773C9.61475 46.9161 9.61475 46.7549 9.61475 46.7549C9.61475 46.7549 9.13403 46.9161 8.6533 47.2385C8.33281 47.3998 8.01232 47.561 7.69183 47.8834C7.37135 48.2059 7.2111 48.5283 6.89061 48.8508C6.73037 49.1732 6.57013 49.6569 6.57013 49.9794C6.57013 50.3018 6.57013 50.7855 6.57013 51.1079C6.57013 51.7528 6.73037 52.2365 6.89061 52.2365C6.89061 52.2365 6.73037 51.7528 6.40988 51.1079C6.24964 50.7855 6.0894 50.463 5.76892 50.3018C5.44843 49.9793 5.28818 49.6569 4.80745 49.4957C4.48696 49.3344 4.00624 49.012 3.68575 49.012C3.36526 48.8508 2.88454 48.8508 2.56405 48.8508C1.92308 48.8508 1.44235 48.8508 1.44235 48.8508C1.44235 48.8508 1.44234 49.012 1.60258 49.1732C1.60258 49.3345 1.60259 49.3344 1.76283 49.4957C1.76283 49.6569 1.92306 49.8181 1.92306 49.9794C2.08331 50.3018 2.24356 50.6242 2.56405 50.9467C2.88454 51.2691 3.20501 51.5916 3.5255 51.7528C4.16647 52.2365 4.96769 52.3977 5.60866 52.3977Z" fill="#F5EFDB"/>
<path d="M5.28779 24.9894C5.44803 25.3119 5.76852 25.6343 6.08901 25.7955C6.56974 26.2792 7.05048 26.4404 7.05048 26.4404C7.05048 26.4404 7.5312 26.6017 8.17218 26.6017C8.49267 26.6017 8.81315 26.6017 9.29388 26.6017C9.61437 26.6017 10.0951 26.4404 10.4156 26.2792C10.7361 26.118 11.0566 25.9568 11.2168 25.7955C11.6975 25.4731 12.018 25.1506 12.3385 24.8282C12.4987 24.6669 12.4988 24.5057 12.659 24.5057C12.659 24.3445 12.8192 24.3445 12.8192 24.3445C12.8192 24.3445 12.3385 24.1833 11.6975 24.0221C11.377 24.0221 11.0566 23.8608 10.5758 23.8608C10.2553 23.8608 9.77461 23.8608 9.29388 24.0221C8.97339 24.1833 8.65289 24.3445 8.33241 24.5057C7.85168 24.8282 7.53119 25.3118 7.21071 25.6343C6.89022 25.9567 6.89023 26.2792 6.89023 26.2792C6.89023 26.2792 7.05048 25.9567 7.05048 25.4731C7.21072 24.9894 7.21071 24.5057 7.21071 23.8608C7.21071 23.5384 7.21072 23.2159 7.05048 22.7322C6.89024 22.2486 6.72999 21.9261 6.56974 21.6037C6.4095 21.2812 6.089 20.9588 5.92875 20.6363C5.44802 20.1526 5.12754 19.8302 5.12754 19.8302C5.12754 19.8302 5.12755 19.8302 4.96731 19.9914C4.96731 20.1527 4.80705 20.3139 4.80705 20.4751C4.64681 20.9588 4.48657 21.6037 4.48657 22.2486C4.48657 22.571 4.48658 23.0547 4.64683 23.3772C4.96731 24.1833 5.12755 24.667 5.28779 24.9894Z" fill="#F5EFDB"/>
<path d="M2.88436 29.1822C3.0446 29.6659 3.36509 29.9884 3.68557 30.3108C4.00606 30.6333 4.32655 30.7945 4.48679 30.9557C5.12777 31.2782 5.44826 31.4394 5.44826 31.4394C5.44826 31.4394 5.92899 31.4394 6.56996 31.4394C6.89045 31.4394 7.21093 31.4394 7.69166 31.2782C8.01215 31.117 8.49287 31.1169 8.81336 30.7945C9.13385 30.6333 9.45435 30.3108 9.77483 30.1496C10.0953 29.8271 10.2556 29.6659 10.4158 29.3435C10.576 29.021 10.7363 28.8598 10.7363 28.6986C10.8965 28.5374 10.8965 28.3761 10.8965 28.3761C10.8965 28.3761 10.4158 28.2149 9.77483 28.2149C9.13386 28.2149 8.33263 28.2149 7.53141 28.5374C7.21092 28.6986 6.89045 29.021 6.56996 29.3435C6.24947 29.6659 6.08922 29.9884 5.92897 30.1496C5.60849 30.6333 5.44826 31.117 5.44826 31.2782C5.44826 31.2782 5.60849 30.7945 5.60849 30.1496C5.60849 29.8271 5.60849 29.5047 5.60849 29.0211C5.60849 28.6986 5.44825 28.2149 5.28801 27.8925C4.96752 27.0863 4.32656 26.4414 3.84583 25.9578C3.3651 25.4741 2.88436 25.3129 2.88436 25.3129C2.88436 25.3129 2.88435 25.4741 2.7241 25.6353C2.7241 25.7966 2.56387 26.119 2.56387 26.4415C2.56387 26.7639 2.56387 27.2475 2.56387 27.57C2.56387 28.3761 2.56387 28.6986 2.88436 29.1822Z" fill="#F5EFDB"/>
<path d="M1.12168 33.5341C1.28192 34.0178 1.44217 34.3402 1.60241 34.8238C1.9229 35.1463 2.08314 35.4688 2.40363 35.7912C2.72412 36.1136 3.04462 36.2749 3.3651 36.2749C4.00608 36.5974 4.48681 36.5973 4.48681 36.5973C4.48681 36.5973 4.96753 36.5973 5.60851 36.4361C5.92899 36.4361 6.24949 36.2749 6.56998 36.1137C6.89047 35.9524 7.37119 35.7912 7.69168 35.4688C8.01217 35.1463 8.33266 34.9851 8.4929 34.6627C8.65314 34.3402 8.81339 34.0178 8.97364 33.8565C9.13388 33.3729 9.29412 32.8892 9.29412 32.8892C9.29412 32.8892 8.81339 32.8892 8.17242 32.8892C7.53144 32.8892 6.73021 33.0504 5.92899 33.6953C5.6085 34.0178 5.28801 34.179 5.12777 34.5014C4.96753 34.8239 4.8073 35.1463 4.64706 35.4688C4.48681 36.1137 4.32655 36.5973 4.32655 36.5973C4.32655 36.5973 4.32655 36.1137 4.32655 35.4688C4.32655 35.1463 4.16632 34.8239 4.16632 34.3402C4.00608 34.0178 3.84583 33.5341 3.68559 33.2116C3.20485 32.4055 2.56387 31.9218 1.92289 31.5994C1.28192 31.2769 0.961447 31.1157 0.961447 31.1157C0.961447 31.1157 0.801193 31.5994 0.801193 32.4055C1.12168 32.7279 1.12168 33.2116 1.12168 33.5341Z" fill="#F5EFDB"/>
<path d="M16.0241 13.5434C16.0241 13.5434 16.3446 13.8659 16.9856 14.1883C17.6265 14.5108 18.2675 14.8332 19.229 14.9945C19.5495 14.9945 19.87 14.9945 20.1904 14.9945C20.8314 14.8332 21.3121 14.672 21.6326 14.5108C21.9531 14.3496 22.2736 14.1883 22.2736 14.1883C22.2736 14.1883 21.9531 13.8659 21.4724 13.3822C20.9917 12.8985 20.1904 12.5761 19.3892 12.4149C19.0687 12.4149 18.7482 12.4149 18.4278 12.4149C17.7868 12.5761 17.3061 12.7373 16.9856 13.0597C16.1844 13.3822 16.0241 13.5434 16.0241 13.5434C16.0241 13.5434 16.3446 13.221 16.5048 12.8986C16.8253 12.5761 17.1458 12.0924 17.3061 11.6087C17.4663 11.2863 17.6265 10.9638 17.6265 10.6414C17.7868 9.83526 17.6266 8.86792 17.4663 8.22302C17.3061 7.57813 16.9856 7.09448 16.9856 7.09448C16.9856 7.09448 16.6651 7.25569 16.3446 7.57813C16.0241 7.90058 15.5434 8.38425 15.2229 9.02914C15.0626 9.35159 14.9024 9.67406 14.9024 10.1577C14.7422 11.1251 14.9024 11.9312 15.2229 12.5761C15.7036 13.221 16.0241 13.5434 16.0241 13.5434Z" fill="#F5EFDB"/>
<path d="M12.3386 17.4112C12.3386 17.4112 12.8194 17.7337 13.3001 17.8949C13.9411 18.2173 14.7423 18.3786 15.5435 18.3786C15.7037 18.3786 16.0242 18.3786 16.1845 18.2174C16.3447 18.2174 16.505 18.0561 16.6652 18.0561C16.9857 17.8949 17.3062 17.7337 17.6266 17.5725C17.9471 17.4112 18.1074 17.25 18.2676 17.25C18.4279 17.0888 18.4279 17.0888 18.4279 17.0888C18.4279 17.0888 18.1074 16.7663 17.4664 16.4439C17.1459 16.2827 16.8254 16.1215 16.505 15.9602C16.3447 15.9602 16.1845 15.799 15.864 15.799C15.7037 15.799 15.3832 15.799 15.223 15.799C14.7423 15.799 14.4218 15.9602 14.1013 16.1215C13.7808 16.2827 13.4603 16.4439 13.1398 16.6051C12.6591 16.9276 12.3386 17.25 12.3386 17.4112C12.3386 17.4112 12.6591 16.9276 12.9796 16.4439C13.1398 16.1214 13.3001 15.799 13.4603 15.4765C13.6206 15.1541 13.6206 14.6704 13.6206 14.348C13.6206 14.1868 13.6206 13.8643 13.6206 13.7031C13.6206 13.5419 13.6206 13.2194 13.4603 13.0582C13.3001 12.7357 13.3001 12.2521 13.1398 11.9296C12.8193 11.2847 12.4989 10.9623 12.4989 10.9623C12.4989 10.9623 12.3386 11.1235 12.1784 11.2847C12.0181 11.446 11.8579 11.7684 11.6976 11.9296C11.5374 12.2521 11.3772 12.5745 11.2169 13.0582C11.2169 13.2194 11.0567 13.5419 11.0567 13.7031C11.0567 13.8643 11.0567 14.1868 11.0567 14.348C11.0567 15.3153 11.3772 16.1214 11.6976 16.6051C12.0181 17.0888 12.3386 17.4112 12.3386 17.4112Z" fill="#F5EFDB"/>
<path d="M8.49296 20.9599C8.9737 21.4436 9.29418 21.766 9.29418 21.766C9.29418 21.766 9.77491 21.9272 10.4159 22.0884C11.0569 22.2497 11.8581 22.4109 12.6593 22.2497C13.4605 22.0884 14.1015 21.6048 14.5822 21.2823C14.7425 21.1211 15.063 20.9599 15.063 20.7986C15.2232 20.6374 15.2232 20.6374 15.2232 20.6374C15.2232 20.6374 14.7425 20.315 14.2617 20.1538C13.6208 19.8313 12.8195 19.6701 12.0183 19.8313C11.5376 19.8313 11.2171 19.9925 10.8966 20.3149C10.5761 20.4762 10.2556 20.7987 10.0954 20.9599C9.93516 21.1211 9.61467 21.4435 9.61467 21.6048C9.45442 21.766 9.45444 21.9272 9.45444 21.9272C9.45444 21.9272 9.61467 21.766 9.61467 21.6048C9.77491 21.4435 9.7749 21.1211 9.93515 20.7986C10.0954 20.4762 10.0954 20.1537 10.2557 19.8313C10.2557 19.5088 10.4159 19.0252 10.2557 18.5415C10.0954 17.5742 9.77492 16.9292 9.45444 16.2843C9.13395 15.6394 8.81345 15.317 8.81345 15.317C8.81345 15.317 8.65322 15.4782 8.65322 15.6394C8.49297 15.8007 8.33273 16.1231 8.17248 16.4456C7.85199 17.0905 7.5315 18.0578 7.69175 18.8639C7.69175 19.6701 8.01223 20.4762 8.49296 20.9599Z" fill="#F5EFDB"/>
<path d="M30.1259 6.77147C30.4464 7.25514 31.0874 8.06126 31.7284 8.38371C32.0489 8.54493 32.3694 8.70618 32.6899 8.86741C33.0103 9.02863 33.1706 9.02859 33.4911 9.02859C33.8116 9.02859 33.9718 9.02859 34.132 9.02859C34.4525 9.02859 34.773 9.02859 34.773 9.02859C34.773 9.02859 34.6128 8.54495 34.4525 7.90006C34.132 7.25516 33.6513 6.61026 33.0103 6.12659C32.6898 5.96536 32.3693 5.80412 32.0489 5.80412C30.9272 5.48167 29.8054 5.80412 29.6452 5.80412C29.8054 5.80412 30.7669 5.4817 31.7284 4.67559C32.0489 4.51436 32.2091 4.19192 32.5296 3.86947C33.0103 3.22457 33.3308 2.25724 33.4911 1.61235C33.6513 0.967455 33.6513 0.483765 33.6513 0.483765C33.6513 0.483765 33.3308 0.483774 32.8501 0.644998C32.6898 0.644998 32.3693 0.806192 32.0489 0.967416C31.7284 1.12864 31.4079 1.28989 31.2476 1.45112C30.9272 1.61234 30.6067 1.93479 30.4464 2.25723C29.9657 3.06335 29.8055 3.86946 29.8055 4.51435C29.8055 5.15925 29.8055 5.64294 29.8055 5.64294C29.8055 5.64294 29.6452 6.2878 30.1259 6.77147Z" fill="#F5EFDB"/>
<path d="M24.6773 7.73901C24.6773 7.73901 24.9978 8.22269 25.3183 8.70637C25.799 9.19004 26.44 9.83492 27.2412 9.99614C27.5617 10.1574 28.0424 10.3186 28.3629 10.3186C28.6834 10.3186 29.0039 10.3186 29.3244 10.3186C29.9654 10.3186 30.2859 10.1574 30.2859 10.1574C30.2859 10.1574 30.1256 9.67369 29.8051 9.19002C29.4846 8.70635 28.8437 8.06145 28.0424 7.57778C27.2412 7.25533 26.44 7.25532 25.799 7.41654C25.1581 7.41654 24.6773 7.73901 24.6773 7.73901C24.6773 7.73901 25.158 7.5778 25.6388 7.09413C26.1195 6.77168 26.7605 6.12677 27.081 5.32065C27.5617 4.51453 27.5617 3.70842 27.722 3.06352C27.722 2.41863 27.5617 1.93494 27.5617 1.93494C27.5617 1.93494 27.081 2.09619 26.44 2.41864C26.1195 2.57986 25.799 2.90231 25.4785 3.22476C25.1581 3.54721 24.8376 3.86963 24.6773 4.3533C24.1966 5.15942 24.1966 6.12676 24.3568 6.77166C24.5171 7.25533 24.6773 7.73901 24.6773 7.73901Z" fill="#F5EFDB"/>
<path d="M20.0301 10.3183C20.0301 10.3183 20.3506 10.6407 20.8314 11.1244C21.3121 11.6081 22.1133 12.0917 22.9146 12.253C23.3953 12.4142 23.7158 12.4142 24.0363 12.4142C24.3567 12.4142 24.6772 12.253 24.9977 12.253C25.6387 12.0917 25.9592 11.9305 25.9592 11.9305C25.9592 11.9305 25.6387 11.4468 25.3182 10.9632C24.8375 10.4795 24.1965 9.99584 23.3953 9.67339C23.0748 9.51217 22.5941 9.51216 22.2736 9.51216C21.9531 9.51216 21.4724 9.67339 21.3121 9.67339C20.5109 9.99584 20.1904 10.3183 20.0301 10.3183C20.0301 10.3183 20.5109 9.99583 20.9916 9.51216C21.1519 9.35093 21.4723 9.02848 21.6326 8.70603C21.7928 8.38358 22.1133 8.06111 22.1133 7.57744C22.4338 6.77131 22.4338 5.80396 22.2736 5.15906C22.1133 4.51416 21.9531 4.03052 21.9531 4.03052C21.9531 4.03052 21.4723 4.19173 20.8314 4.67541C20.5109 4.83663 20.1904 5.15908 20.0301 5.48153C19.7097 5.80398 19.5494 6.28763 19.3892 6.61008C19.0687 7.4162 19.2289 8.38355 19.3892 9.02845C19.8699 9.83458 20.0301 10.3183 20.0301 10.3183Z" fill="#F5EFDB"/>
<path d="M45.1885 5.9651C45.3488 6.60999 45.509 7.4161 45.9897 8.22221C46.15 8.54465 46.4705 8.70587 46.6307 9.02832C46.791 9.18954 47.1114 9.35079 47.2717 9.51201C47.4319 9.67324 47.7524 9.83443 47.9127 9.83443C48.2332 9.99565 48.5536 10.1569 48.5536 10.1569C48.5536 10.1569 48.7139 9.67321 48.7139 9.02832C48.7139 8.38343 48.5536 7.57733 48.0729 6.77122C47.9127 6.44877 47.5922 6.28755 47.4319 5.9651C47.2717 5.80388 46.9512 5.64268 46.7909 5.48146C46.6307 5.32024 46.3102 5.32022 46.15 5.15899C45.6693 4.99777 45.509 4.99776 45.3488 4.99776C45.3488 4.99776 45.6693 4.99776 46.15 4.99776C46.3102 4.99776 46.6307 4.99776 46.9512 4.99776C47.2717 4.99776 47.4319 4.9978 47.7524 4.83658C48.0729 4.67536 48.3934 4.67534 48.7139 4.51411C49.5151 4.03045 50.1561 3.54678 50.4765 2.90189C50.797 2.41822 51.1175 1.93455 51.1175 1.93455C51.1175 1.93455 50.7971 1.77332 50.3163 1.77332C49.9958 1.77332 49.8356 1.77332 49.5151 1.77332C49.1946 1.77332 48.8741 1.77333 48.5536 1.93455C48.2331 1.93455 47.9127 2.09579 47.4319 2.25701C46.6307 2.74068 46.15 3.38558 45.8295 4.03047C45.509 4.67536 45.3488 5.15899 45.3488 5.15899C45.3488 5.15899 45.0283 5.32022 45.1885 5.9651Z" fill="#F5EFDB"/>
<path d="M41.1826 7.5776C41.5031 7.90005 41.8236 8.06128 42.1441 8.38372C42.4646 8.54495 42.7851 8.7062 43.1056 8.86742C43.5863 9.02865 44.067 9.18984 44.067 9.18984C44.067 9.18984 44.067 8.7062 44.067 8.06131C43.9068 7.41641 43.7465 6.61026 43.1056 5.96537C42.7851 5.64292 42.4646 5.48169 42.1441 5.15925C41.8236 4.99802 41.5031 4.83682 41.1826 4.67559C40.5417 4.51437 40.0609 4.51436 40.0609 4.51436C40.0609 4.51436 40.5417 4.51435 41.1826 4.35313C41.5031 4.35313 41.8236 4.19193 42.1441 4.03071C42.4646 3.86948 42.9453 3.70822 43.2658 3.38577C43.9068 2.9021 44.3875 2.09602 44.708 1.61235C45.0285 0.967456 45.1887 0.483765 45.1887 0.483765C45.1887 0.483765 44.708 0.483765 43.9068 0.483765C43.1056 0.483765 42.3044 0.806212 41.5031 1.28988C40.7019 1.93478 40.3814 2.57969 40.2212 3.22459C40.0609 3.86948 39.9007 4.35313 39.9007 4.35313C39.9007 4.35313 39.9007 4.83682 40.0609 5.48171C40.2212 6.12661 40.5417 6.93271 41.1826 7.5776Z" fill="#F5EFDB"/>
<path d="M37.8173 5.48164C37.1763 4.99796 36.3751 4.67551 35.7341 4.67551C35.0931 4.67551 34.6124 4.67551 34.6124 4.67551C34.6124 4.67551 35.0931 4.67549 35.7341 4.35304C36.3751 4.19182 37.016 3.8694 37.657 3.2245C38.298 2.5796 38.6185 1.77344 38.939 1.12855C39.0992 0.483645 39.2594 0 39.2594 0C39.2594 0 38.7787 -3.9364e-05 37.9775 0.161186C37.657 0.161186 37.1763 0.32244 36.8558 0.64489C36.5353 0.806115 36.0546 1.12856 35.7341 1.45101C35.0931 2.09591 34.7726 2.90202 34.7726 3.54692C34.6124 4.19182 34.6124 4.67551 34.6124 4.67551C34.6124 4.67551 34.7726 5.15916 34.9329 5.80406C35.2534 6.44896 35.5739 7.09388 36.2148 7.73878C36.5353 8.06123 36.8558 8.22244 37.1763 8.38367C37.4968 8.54489 37.8173 8.54491 38.1377 8.70614C38.7787 8.86736 39.0992 8.86737 39.0992 8.86737C39.0992 8.86737 39.0992 8.38368 38.939 7.73878C38.939 6.93265 38.4582 6.12654 37.8173 5.48164Z" fill="#F5EFDB"/>
<path d="M59.6105 10.6407C59.6105 10.6407 59.4503 11.1244 59.1298 11.7693C58.9695 12.4142 58.8093 13.2203 58.8093 14.0264C58.8093 14.3488 58.9695 14.6713 59.1298 14.9937C59.29 15.4774 59.6105 15.9611 59.931 16.2835C60.0912 16.4447 60.0912 16.606 60.2515 16.606C60.4117 16.7672 60.4117 16.7672 60.4117 16.7672C60.4117 16.7672 60.7322 16.4448 61.0527 15.7999C61.3732 15.155 61.5334 14.3489 61.5334 13.5427C61.5334 13.2203 61.3731 12.8978 61.2129 12.5754C60.5719 11.4468 59.6105 10.6407 59.6105 10.6407C59.7707 10.6407 60.572 11.2856 61.8539 11.608C62.1744 11.608 62.4949 11.7693 62.9756 11.7693C63.7768 11.7693 64.7382 11.4468 65.219 11.1244C65.8599 10.8019 66.1804 10.4795 66.1804 10.4795C66.1804 10.4795 66.1804 10.4795 66.0202 10.3183C65.8599 10.157 65.6997 10.157 65.5395 9.99579C65.0588 9.67335 64.578 9.3509 63.9371 9.18968C63.6166 9.02845 63.1358 9.02844 62.8153 9.02844C61.8539 9.02844 61.0527 9.51211 60.5719 9.83456C59.931 10.3182 59.6105 10.6407 59.6105 10.6407Z" fill="#F5EFDB"/>
<path d="M55.1238 7.90017C55.1238 7.90017 54.9635 8.38382 54.8033 9.02872C54.643 9.67362 54.643 10.4798 54.9635 11.2859C55.1237 11.7696 55.284 12.092 55.4442 12.4145C55.6045 12.5757 55.6045 12.7369 55.7647 12.8982C55.925 13.0594 55.925 13.2206 56.0852 13.2206C56.4057 13.7043 56.8864 13.8655 56.8864 13.8655C56.8864 13.8655 57.0467 13.3818 57.3672 12.7369C57.5274 12.092 57.6877 11.2859 57.5274 10.4798C57.3672 9.99611 57.2069 9.67364 57.0467 9.35119C56.8864 9.02874 56.5659 8.70629 56.4057 8.54506C55.6045 8.22261 55.1238 8.0614 55.1238 7.90017C55.1238 7.90017 55.6045 8.2226 56.2455 8.38383C56.566 8.38383 56.8864 8.54506 57.3672 8.54506C57.6877 8.54506 58.1684 8.54506 58.6491 8.54506C59.4503 8.38384 60.2516 7.90015 60.7323 7.5777C61.213 7.09403 61.5335 6.77158 61.5335 6.77158C61.5335 6.77158 61.0528 6.44915 60.4118 6.28792C60.2516 6.28792 60.0913 6.12669 59.9311 6.12669C59.7708 6.12669 59.4503 5.96545 59.2901 5.96545C58.8094 5.96545 58.4889 5.96545 58.0081 5.96545C57.0467 6.12668 56.4057 6.61037 55.925 7.09405C55.284 7.57772 55.1238 7.90017 55.1238 7.90017Z" fill="#F5EFDB"/>
<path d="M50.1564 5.96538C50.1564 5.96538 49.9962 6.44908 49.9962 7.09397C49.9962 7.73887 49.9962 8.54497 50.4769 9.35109C50.6371 9.67354 50.7974 9.996 51.1179 10.3184C51.2781 10.6409 51.5986 10.8021 51.7588 10.9633C52.2396 11.2858 52.5601 11.447 52.5601 11.447C52.5601 11.447 52.7203 10.9633 52.8805 10.3184C53.0408 9.67355 53.0408 8.86744 52.7203 8.06132C52.5601 7.73888 52.3998 7.41642 52.0793 7.09397C51.7588 6.77152 51.5986 6.61031 51.2781 6.44909C50.7974 6.12664 50.3167 5.96538 50.1564 5.96538C50.1564 5.96538 50.6371 6.12662 51.2781 6.12662C51.5986 6.12662 51.9191 6.12662 52.3998 6.12662C52.7203 6.12662 53.201 5.96538 53.5215 5.96538C54.3227 5.64294 54.9637 5.15929 55.4444 4.67561C55.9252 4.19194 56.0854 3.70826 56.0854 3.70826C56.0854 3.70826 55.6047 3.54702 54.9637 3.38579C54.6432 3.22457 54.1625 3.22461 53.842 3.22461C53.3613 3.22461 53.0408 3.22457 52.5601 3.38579C51.7588 3.70824 51.1179 4.35318 50.6371 4.83685C50.3167 5.48174 50.1564 5.96538 50.1564 5.96538Z" fill="#F5EFDB"/>
<path d="M71.1484 21.9266C70.5074 22.0879 70.0267 22.2491 70.0267 22.2491C70.0267 22.2491 69.7062 22.5716 69.2254 23.0552C69.0652 23.2165 68.7447 23.5389 68.5845 23.8614C68.4242 24.1838 68.1037 24.5063 68.1037 24.9899C67.9435 25.3124 67.9435 25.6348 67.9435 25.9573C67.9435 26.6022 67.9435 27.0859 68.1037 27.4083C68.1037 27.5695 68.264 27.7307 68.264 27.892C68.264 28.0532 68.264 28.0532 68.264 28.0532C68.264 28.0532 68.7447 27.892 69.2254 27.4083C69.5459 27.2471 69.7062 26.9246 70.0267 26.6022C70.1869 26.2797 70.5074 25.9573 70.6677 25.4736C70.8279 25.1512 70.8279 24.8287 70.8279 24.5062C70.8279 23.8613 70.6676 23.3777 70.5074 22.894C70.3472 22.4103 70.1869 22.2491 70.1869 22.0879C70.1869 22.0879 70.3472 22.4103 70.6677 22.7328C70.9881 23.0552 71.3086 23.5389 71.7894 23.8614C72.1098 24.0226 72.4303 24.345 72.7508 24.345C73.2316 24.5062 73.552 24.6675 74.0328 24.6675C74.5135 24.6675 74.834 24.6675 75.1545 24.6675C75.7955 24.6675 76.2762 24.5062 76.2762 24.5062C76.2762 24.5062 76.2762 24.5062 76.1159 24.345C76.1159 24.1838 75.9557 24.0226 75.7955 23.8614C75.475 23.3777 75.1545 22.894 74.6738 22.4103C74.3533 22.2491 74.0328 21.9267 73.7123 21.7655C73.2315 21.6042 72.9111 21.443 72.4303 21.443C71.9496 21.7654 71.4689 21.7654 71.1484 21.9266Z" fill="#F5EFDB"/>
<path d="M68.2641 17.4126C67.6231 17.5738 67.3026 17.8962 67.3026 17.8962C67.3026 17.8962 66.9821 18.2187 66.5014 18.7023C66.1809 19.186 65.7002 19.9922 65.5399 20.7983C65.5399 21.282 65.5399 21.6044 65.5399 21.9268C65.5399 22.2493 65.7001 22.5718 65.7001 22.8942C65.8604 23.3779 66.0206 23.8616 66.0206 23.8616C66.0206 23.8616 66.3411 23.5391 66.8218 23.0554C67.3026 22.5718 67.7833 21.9269 67.9436 20.9595C68.1038 20.1534 67.9436 19.3472 67.6231 18.7023C67.4628 18.3799 67.3026 18.2187 67.3026 18.0575C67.1423 17.8962 67.1424 17.735 67.1424 17.735C67.3026 17.8963 68.264 19.186 70.0267 19.6697C70.8279 19.8309 71.7894 19.8309 72.4304 19.6697C73.0714 19.5085 73.5521 19.3473 73.5521 19.3473C73.5521 19.3473 73.2316 18.8636 72.7509 18.3799C72.4304 18.0575 72.2702 17.8963 71.7894 17.5738C71.4689 17.4126 70.9882 17.0901 70.5075 17.0901C69.7062 16.9289 68.7448 17.0901 68.2641 17.4126Z" fill="#F5EFDB"/>
<path d="M64.578 13.382C63.937 13.7044 63.6166 14.0269 63.6166 14.0269C63.6166 14.0269 63.2961 14.3493 62.9756 14.9942C62.8153 15.3167 62.6551 15.6391 62.4949 15.9616C62.4949 16.1228 62.3346 16.284 62.3346 16.6064C62.3346 16.7677 62.3346 17.0901 62.3346 17.2513C62.3346 17.735 62.3346 18.0575 62.4949 18.3799C62.6551 18.7024 62.6551 19.0248 62.8153 19.3473C62.9756 19.6697 63.1358 19.8309 63.1358 19.9921C63.2961 20.1534 63.2961 20.1534 63.2961 20.1534C63.2961 20.1534 63.6166 19.8309 64.0973 19.3473C64.4178 18.8636 64.8985 18.0574 64.8985 17.2513C64.8985 17.0901 64.8985 16.7677 64.8985 16.6064C64.8985 16.4452 64.7383 16.284 64.7383 16.1228C64.578 15.8003 64.4178 15.4779 64.2575 15.1554C63.9371 14.6718 63.6166 14.3493 63.4563 14.1881C63.4563 14.1881 63.937 14.5105 64.4178 14.833C64.7383 14.9942 65.0588 15.1554 65.3792 15.3167C65.5395 15.3167 65.6997 15.4779 66.0202 15.4779C66.1804 15.4779 66.3407 15.6391 66.6612 15.6391C67.4624 15.8003 68.4239 15.4779 69.0648 15.3167C69.7058 15.1554 70.0263 14.833 70.0263 14.833C70.0263 14.833 69.8661 14.6718 69.8661 14.5106C69.7058 14.3493 69.5456 14.1881 69.2251 13.8656C68.9046 13.7044 68.5841 13.382 68.2636 13.2207C67.9431 13.0595 67.4624 12.8983 66.9817 12.8983C66.8214 12.8983 66.501 12.8983 66.3407 12.8983C66.1805 12.8983 65.86 12.8983 65.6997 13.0595C65.219 13.0595 64.8985 13.2207 64.578 13.382Z" fill="#F5EFDB"/>
<path d="M77.077 32.8903C76.436 32.2455 75.4745 32.0842 74.8336 32.0842C74.1926 32.0842 73.7119 32.0842 73.7119 32.0842C73.7119 32.0842 73.2312 32.2454 72.7504 32.5679C72.1094 32.8903 71.4685 33.374 70.9877 34.0189C70.507 34.6638 70.3468 35.4699 70.1865 35.9536C70.1865 36.1148 70.1865 36.276 70.1865 36.276C70.1865 36.4373 70.1865 36.4372 70.1865 36.5985C70.1865 36.7597 70.1865 36.9209 70.1865 36.9209C70.1865 36.9209 70.6672 36.9209 71.3082 36.5985C71.6287 36.4372 71.9492 36.276 72.2697 36.1148C72.5902 35.9536 72.9106 35.6311 73.2311 35.3087C73.5516 34.9862 73.7119 34.6638 73.7119 34.1801C73.8721 33.8577 73.8721 33.5352 73.8721 33.2128C73.8721 32.8903 73.8721 32.5679 73.8721 32.4066C73.8721 32.2454 73.8721 32.0842 73.8721 32.0842C73.8721 32.0842 73.8721 32.2454 74.0323 32.4066C74.0323 32.5679 74.1926 32.8903 74.3529 33.2128C74.5131 33.5352 74.6733 33.8577 74.8336 34.1801C74.9938 34.5026 75.3143 34.825 75.6348 35.1475C75.9553 35.4699 76.2758 35.6311 76.7565 35.7923C77.077 35.9536 77.5577 36.1148 77.8782 36.1148C78.5192 36.276 78.9999 36.276 78.9999 36.276C78.9999 36.276 78.9999 36.1148 78.9999 35.9536C78.9999 35.7924 78.9999 35.6311 78.9999 35.6311C78.9999 35.4699 78.8396 35.3087 78.8396 35.1475C78.1987 34.3413 77.8782 33.5352 77.077 32.8903Z" fill="#F5EFDB"/>
<path d="M73.3914 26.7621C72.7505 26.7621 72.2697 26.9233 72.2697 26.9233C72.2697 26.9233 71.789 27.0845 71.3083 27.5682C70.8275 27.8907 70.1866 28.5356 69.8661 29.3417C69.7058 29.6641 69.5456 30.1478 69.5456 30.4703C69.5456 30.7927 69.3853 31.1152 69.3853 31.4376C69.3853 31.5989 69.3853 31.76 69.3853 31.76C69.3853 31.9213 69.3853 31.9213 69.3853 32.0825C69.3853 32.2437 69.3853 32.4049 69.3853 32.4049C69.3853 32.4049 69.8661 32.2437 70.3468 31.9213C70.6673 31.7601 70.9878 31.5988 71.3083 31.2764C71.6288 30.9539 71.789 30.6315 72.1095 30.309C72.2697 29.9866 72.43 29.5029 72.43 29.1804C72.43 28.858 72.43 28.3744 72.43 28.0519C72.43 27.407 72.2697 26.9233 72.1095 26.9233C72.1095 26.9233 72.2697 27.407 72.5902 28.0519C72.7505 28.3744 72.9107 28.6968 73.2312 28.858C73.5517 29.1805 73.7119 29.5029 74.1927 29.6642C74.5131 29.8254 74.9939 30.1478 75.3144 30.1478C75.6348 30.309 76.1156 30.309 76.4361 30.309C77.077 30.309 77.5578 30.309 77.5578 30.309C77.5578 30.309 77.5578 30.1478 77.3975 29.9866C77.3975 29.8253 77.3975 29.8254 77.2373 29.6642C77.2373 29.5029 77.077 29.3417 77.077 29.1804C76.9168 28.858 76.7565 28.5356 76.4361 28.2131C76.1156 27.8907 75.7951 27.5682 75.4746 27.407C74.9939 26.9233 74.1927 26.7621 73.3914 26.7621Z" fill="#F5EFDB"/>
<path d="M40.3194 38.6944C42.3978 38.8138 44.0309 39.5448 45.2185 40.8873C46.4062 42.2299 47 43.8112 47 45.6312C47 47.2721 46.6289 48.7341 45.8866 50.017C45.174 51.2701 44.1645 52.2546 42.858 52.9707C41.5516 53.6569 40.0522 54 38.3598 54C35.5391 54 33.1044 52.8812 31.0557 50.6435L31.0111 50.554C31.0111 50.4347 31.0705 50.3452 31.1893 50.2855C31.3377 50.196 31.4417 50.196 31.501 50.2855C32.1839 50.9717 33.0005 51.4938 33.9506 51.8519C34.9304 52.2099 35.8805 52.3889 36.801 52.3889C38.82 52.3889 40.2897 51.8071 41.2102 50.6435C42.1603 49.4501 42.6354 47.8987 42.6354 45.9892C42.6354 41.4841 40.2007 39.2315 35.3312 39.2315C35.2125 39.2315 35.1383 39.142 35.1086 38.963C35.1086 38.7541 35.1828 38.6497 35.3312 38.6497C37.7066 38.6497 39.3693 38.1276 40.3194 37.0833C41.2992 36.0391 41.7891 34.5622 41.7891 32.6528C41.7891 30.7731 41.3883 29.3858 40.5866 28.4907C39.785 27.5957 38.6715 27.1481 37.2463 27.1481C36.0884 27.1481 34.9749 27.4465 33.9061 28.0432C32.8372 28.6101 32.0503 29.4604 31.5456 30.5941C31.5456 30.624 31.501 30.6389 31.412 30.6389C31.3229 30.6389 31.219 30.6091 31.1002 30.5494C31.0111 30.4897 30.9814 30.445 31.0111 30.4151C31.6643 28.7443 32.7035 27.4316 34.1287 26.4769C35.5539 25.4923 37.187 25 39.0278 25C41.0765 25 42.7393 25.5818 44.016 26.7454C45.3224 27.909 45.9756 29.4007 45.9756 31.2207C45.9756 32.8318 45.456 34.3236 44.4168 35.696C43.4073 37.0684 42.0415 38.0679 40.3194 38.6944Z" fill="#AAAAAA"/>
</svg>
