<svg width="79" height="69" viewBox="0 0 79 69" fill="none" xmlns="http://www.w3.org/2000/svg">
<path d="M20.6548 63.2498C21.2578 62.4932 20.9563 62.4932 21.8609 61.434C21.8609 61.434 21.8609 61.434 21.7101 61.434H21.5594C21.4086 61.5853 21.2578 61.7366 21.1071 62.0392C20.9563 62.1905 20.6548 62.3419 20.3533 62.3419C20.2025 62.3419 19.901 62.3419 19.7502 62.1905C19.4487 62.0392 19.2979 62.0392 18.9964 61.8879L18.0918 63.2498C18.8456 63.5524 20.0517 64.1577 20.6548 63.2498Z" fill="#F5EFDB"/>
<path d="M22.0118 60.2234C21.861 60.526 21.861 60.6773 21.861 60.8286C21.861 60.8286 21.861 60.8286 22.0118 60.8286H22.1625C22.3133 59.7694 22.6148 59.7694 22.7656 59.0128C23.0671 57.9536 22.1625 57.4997 21.7102 57.0458L20.8057 58.4076C21.1072 58.5589 21.258 58.7103 21.4087 58.8616C21.5595 59.0129 21.7102 59.1642 21.861 59.3155C22.0118 59.7694 22.0118 60.0721 22.0118 60.2234Z" fill="#F5EFDB"/>
<path d="M23.8204 64.1577C23.0666 63.8551 22.3128 64.1577 21.7097 64.6117C21.1067 65.2169 20.8051 65.9735 20.9559 67.0327C20.9559 67.0327 21.1067 66.7301 21.4082 66.2761C21.7097 65.9735 22.0112 65.5196 22.6143 65.5196C23.5189 65.5196 25.328 66.4274 25.9311 65.2169C26.3834 64.4603 26.0819 64.309 26.8357 63.2498L26.5342 63.0985C26.3834 63.2498 26.2326 63.4011 26.0819 63.7038C25.9311 64.0064 25.7803 64.0064 25.328 64.1577C24.8758 64.4604 24.4235 64.309 23.8204 64.1577Z" fill="#F5EFDB"/>
<path d="M27.1375 60.9799C27.1375 60.3746 26.8359 59.9207 26.3836 59.618C26.2329 59.4667 25.9313 59.3154 25.7806 59.1641C25.6298 59.0128 25.3283 58.8615 25.3283 58.7102C25.0268 58.4075 25.0268 57.9536 25.1775 57.4996C25.3283 57.0457 25.4791 56.743 25.4791 56.743C24.7252 57.3483 24.4237 58.1049 24.2729 58.8615C24.2729 59.618 24.5745 60.3746 25.1775 60.5259C25.7806 60.6772 26.0821 60.9799 26.3836 61.1312C26.6852 61.4338 26.6852 61.5851 26.6852 61.8878C26.6852 62.1904 26.6852 62.3417 26.6852 62.493L26.9867 62.6443C26.8359 61.7364 26.9867 61.7364 27.1375 60.9799Z" fill="#F5EFDB"/>
<path d="M29.0974 65.6713C28.6451 65.52 28.3436 65.6713 27.8913 65.8226C27.5898 65.9739 27.2882 66.2765 26.9867 66.5792C26.5344 67.1844 26.3837 68.0923 26.6852 69.0002C26.6852 69.0002 26.6852 68.6976 26.9867 68.2436C27.1375 67.7897 27.439 67.487 28.0421 67.3357C28.3436 67.3357 28.4944 67.3357 28.7959 67.3357C29.0974 67.3357 29.3989 67.3357 29.7005 67.3357C30.3035 67.3357 30.9066 67.1845 31.0573 66.4279C31.3589 65.52 31.0573 65.52 31.5096 64.3094H31.2081C31.2081 64.4608 31.0573 64.6121 30.9066 65.066C30.9066 65.3686 30.6051 65.52 30.3035 65.6713C30.1528 65.6713 29.7005 65.6713 29.0974 65.6713Z" fill="#F5EFDB"/>
<path d="M31.8114 61.8887C31.8114 61.2835 31.3591 60.9808 30.9068 60.6782C30.6053 60.5269 30.4545 60.5269 30.153 60.3756C29.8515 60.2243 29.7007 60.2242 29.5499 60.0729C29.2484 59.7703 29.2484 59.3164 29.2484 58.8624C29.2484 58.4085 29.3992 58.1058 29.3992 58.1058C28.7961 58.8624 28.4946 59.7703 28.6454 60.5269C28.6454 60.8295 28.7961 61.2835 28.9469 61.5861C29.0976 61.8887 29.3992 62.04 29.8515 62.1913C30.4545 62.3427 30.756 62.494 31.0576 62.6453C31.3591 62.7966 31.5099 63.0993 31.5099 63.2506C31.5099 63.5532 31.5099 63.7045 31.5099 63.8558C31.5099 63.8558 31.5099 63.8558 31.6606 63.8558H31.8114C31.6606 62.7966 31.8114 62.6453 31.8114 61.8887Z" fill="#F5EFDB"/>
<path d="M5.72897 47.5123C6.63355 47.361 6.48279 47.0584 7.6889 46.907L7.53813 46.6044C7.38737 46.6044 7.08584 46.6045 6.78432 46.7558C6.48279 46.7558 6.33202 46.7557 6.0305 46.4531C5.72897 46.1505 5.57821 45.6966 5.27668 45.0913L3.76904 45.6966C3.91981 46.1505 4.22133 46.6044 4.52286 46.907C4.82439 47.361 5.27668 47.5123 5.72897 47.5123Z" fill="#F5EFDB"/>
<path d="M8.59388 45.9993C8.29236 46.1507 8.14159 46.302 8.14159 46.302L8.29236 46.6046C9.19694 45.848 9.34771 46.1506 9.95076 45.5454C10.4031 45.2427 10.5538 44.9401 10.5538 44.4862C10.5538 44.0322 10.4031 43.7296 10.4031 43.2756L8.89541 43.8809C9.04618 44.4862 9.19694 44.7888 9.19694 45.2428C8.89541 45.5454 8.89541 45.848 8.59388 45.9993Z" fill="#F5EFDB"/>
<path d="M7.53815 50.0852C7.08586 49.3286 6.33204 49.026 5.57822 49.026C4.8244 49.026 3.91982 49.4799 3.46753 50.3878C3.46753 50.3878 3.76906 50.2365 4.22135 50.0852C4.67364 49.9339 5.12593 49.9339 5.57822 50.2365C5.72898 50.3878 5.87975 50.5391 6.18128 50.8418C6.33204 51.1444 6.4828 51.2957 6.78433 51.5984C7.23662 52.0523 7.68891 52.3549 8.29197 52.2036C9.04578 51.901 9.04578 51.5984 10.2519 51.2957L10.1011 50.9931C9.95036 50.9931 9.64884 51.1444 9.34731 51.2957C9.04578 51.4471 8.89502 51.2957 8.59349 51.1444C8.29196 51.1444 7.83967 50.6905 7.53815 50.0852Z" fill="#F5EFDB"/>
<path d="M12.2121 49.7832C12.6644 49.3293 12.6644 48.8753 12.5136 48.2701C12.3629 47.9674 12.3629 47.8161 12.2121 47.5135C12.0613 47.2108 12.0613 47.0595 12.0613 46.9082C12.0613 46.4542 12.3629 46.1516 12.8152 45.849C13.1167 45.5464 13.569 45.395 13.569 45.395C12.6644 45.395 11.7598 45.6977 11.3075 46.3029C10.7045 46.9082 10.5537 47.5135 10.8552 48.2701C11.1568 48.724 11.3075 49.1779 11.3075 49.4806C11.3075 49.7832 11.3075 50.0858 11.006 50.2371C10.8552 50.3885 10.7045 50.5398 10.5537 50.6911L10.7045 50.9937C11.4583 50.2371 11.6091 50.3885 12.2121 49.7832Z" fill="#F5EFDB"/>
<path d="M10.704 54.6241C10.101 54.0189 9.34716 53.7162 8.59334 54.0189C8.14105 54.1702 7.83953 54.3215 7.538 54.6241C7.23647 54.9268 6.93494 55.2294 6.78418 55.8347C6.78418 55.8347 7.08571 55.532 7.538 55.3807C7.99029 55.2294 8.44258 55.0781 8.89487 55.3807C9.34716 55.6833 9.79945 56.1373 10.2517 56.5913C10.704 57.0452 11.3071 57.1965 11.9101 56.8939C12.664 56.4399 12.5132 56.2886 13.5685 55.6834L13.4178 55.532C13.267 55.532 13.1163 55.6833 12.8147 55.986C12.2117 55.8347 11.4579 55.6833 10.704 54.6241Z" fill="#F5EFDB"/>
<path d="M15.0761 53.566C15.5284 52.9608 15.3777 52.5068 15.0761 52.0529C14.9254 51.5989 14.4731 51.145 14.4731 50.8423C14.4731 50.3884 14.6238 49.9345 14.9254 49.6318C15.2269 49.3292 15.5284 49.1779 15.5284 49.1779C15.0761 49.3292 14.6238 49.4805 14.3223 49.6318C14.0208 49.7831 13.7193 50.0858 13.4177 50.3884C13.267 50.691 13.1162 50.9936 13.1162 51.4476C13.1162 51.7502 13.1162 52.2042 13.4177 52.3555C13.7193 52.8094 14.0208 53.2634 14.0208 53.566C14.1716 53.8687 14.0208 54.1713 13.87 54.3226C13.7193 54.4739 13.5685 54.7765 13.5685 54.7765L13.7193 54.9278C14.4731 54.02 14.6238 54.1713 15.0761 53.566Z" fill="#F5EFDB"/>
<path d="M14.4733 58.558C14.1718 58.2554 13.8703 58.1041 13.418 58.1041C13.1164 58.1041 12.6641 58.1041 12.3626 58.2554C11.6088 58.558 11.0057 59.3146 10.855 60.2225C10.855 60.2225 11.1565 59.9198 11.458 59.7685C11.7596 59.4659 12.3626 59.3146 12.8149 59.4659C12.9657 59.4659 13.2672 59.6172 13.5687 59.9198C13.8703 60.0712 14.1718 60.2225 14.3225 60.3738C14.6241 60.5251 14.9256 60.6764 15.2271 60.6764C15.5287 60.6764 15.8302 60.6764 15.9809 60.3738C16.584 59.7686 16.4332 59.6172 17.4886 58.8607L17.1871 58.7094C17.0363 58.8607 16.8855 59.012 16.584 59.1633C16.2825 59.4659 15.5287 59.4659 14.4733 58.558Z" fill="#F5EFDB"/>
<path d="M18.6951 56.7432C18.8459 56.4406 18.8459 56.138 18.8459 55.9867C18.8459 55.684 18.6951 55.5327 18.5444 55.3814C18.3936 55.2301 18.2428 54.9275 18.0921 54.7762C17.9413 54.6248 17.7905 54.4735 17.7905 54.1709C17.6398 53.717 17.7905 53.263 18.0921 52.9604C18.3936 52.6577 18.5444 52.3551 18.5444 52.3551C17.6398 52.6577 17.0367 53.263 16.7352 54.0196C16.5844 54.3222 16.4337 54.7762 16.5844 55.0788C16.5844 55.3814 16.7352 55.684 17.0367 55.9867C17.9413 56.7432 18.0921 57.3485 17.9413 57.8024C17.7905 58.1051 17.7905 58.2564 17.6398 58.4077L17.9413 58.559C18.0921 57.3485 18.2428 57.4998 18.6951 56.7432Z" fill="#F5EFDB"/>
<path d="M15.679 64.1574C15.679 64.1574 15.8298 63.8548 16.1313 63.5522C16.4328 63.2495 16.8851 62.9469 17.3374 63.0982C17.4882 63.0982 17.7897 63.2496 18.0912 63.2496L18.9958 61.8877C18.6943 61.7364 18.242 61.5851 17.9405 61.5851C17.6389 61.5851 17.1867 61.7364 16.8851 61.8877C16.1313 62.3417 15.5283 63.0982 15.679 64.1574Z" fill="#F5EFDB"/>
<path d="M21.711 54.776C20.9567 55.2299 20.3533 55.9865 20.2025 56.7431C20.0516 57.0457 20.0516 57.4997 20.2025 57.8023C20.3533 58.105 20.5042 58.4076 20.8059 58.5589L21.711 57.1971C21.5601 57.0457 21.4093 56.8944 21.2584 56.7431C21.1076 56.4405 21.2584 55.8352 21.4093 55.5326C21.5601 55.0786 21.711 54.776 21.711 54.776Z" fill="#F5EFDB"/>
<path d="M17.4884 58.2569C17.4884 58.2569 17.4884 58.2569 17.3376 58.1056C17.1869 58.1056 17.0361 57.9543 16.8853 57.8029C16.5838 57.5003 16.1315 57.1977 15.6792 56.7437C15.5285 56.5924 15.2269 56.2898 15.0762 56.1385C14.9254 55.9872 14.6239 55.6845 14.4731 55.5332C14.3224 55.3819 14.1716 55.2306 14.0208 55.0793C13.8701 54.928 13.8701 54.928 13.8701 54.928L13.7193 54.7766C13.7193 54.7766 13.5685 54.6253 13.267 54.1714C12.9655 53.8688 12.5132 53.4148 12.2117 52.9609C12.0609 52.6582 11.9101 52.5069 11.6086 52.2043C11.4579 52.053 11.4579 52.053 11.3071 51.9017C11.3071 51.7504 11.1563 51.7503 11.1563 51.599C10.8548 51.2964 10.704 50.9938 10.704 50.9938L10.5533 50.6911C10.5533 50.6911 10.4025 50.3885 10.101 50.0859C9.95022 49.9346 9.79945 49.6319 9.64869 49.4806C9.49793 49.178 9.34716 49.0267 9.1964 48.7241C9.1964 48.5727 9.04564 48.4214 9.04564 48.2701C9.04564 48.1188 8.89487 47.9675 8.89487 47.8162C8.74411 47.5135 8.59334 47.3622 8.59334 47.0596C8.44258 46.9083 8.44258 46.757 8.44258 46.6057C8.44258 46.4543 8.29182 46.4543 8.29182 46.4543L8.14105 46.1517C8.14105 46.1517 8.14105 46.0004 7.99029 45.8491C7.83952 45.6978 7.83953 45.3952 7.68876 45.2438C7.538 44.9412 7.538 44.7899 7.38723 44.6385C7.38723 44.4872 7.23647 44.3359 7.23647 44.3359L6.78418 44.4873C6.78418 44.4873 6.78418 44.6385 6.93494 44.7899C6.93494 44.9412 7.08571 45.2438 7.23647 45.5464C7.38723 45.8491 7.38723 46.0004 7.538 46.1517C7.68876 46.303 7.68876 46.4543 7.68876 46.4543L7.83952 46.757C7.83952 46.757 7.83952 46.7569 7.99029 46.9083C7.99029 47.0596 8.14105 47.2109 8.29182 47.3622C8.44258 47.5135 8.44258 47.8162 8.59334 48.1188C8.59334 48.2701 8.74411 48.4214 8.74411 48.5727C8.74411 48.724 8.89487 48.8754 8.89487 49.0267C9.04563 49.3293 9.1964 49.632 9.34716 49.7833C9.49793 50.0859 9.64869 50.2372 9.79945 50.3885C9.95022 50.5398 9.95022 50.6911 10.101 50.8425C10.101 50.9938 10.2517 50.9938 10.2517 50.9938L10.4025 51.2964C10.4025 51.2964 10.5533 51.599 10.8548 51.9017C11.0056 52.053 11.1563 52.3556 11.3071 52.5069C11.4579 52.8096 11.6086 52.9609 11.9101 53.2635C12.3624 53.7174 12.664 54.1714 12.9655 54.6253C13.267 54.928 13.4178 55.2306 13.4178 55.2306L13.5685 55.3819C13.5685 55.3819 13.5685 55.3819 13.7193 55.5332C13.8701 55.6845 14.0208 55.8358 14.1716 55.9871C14.3224 56.1385 14.4731 56.2898 14.7747 56.5924C14.9254 56.7438 15.2269 57.0464 15.3777 57.1977C15.83 57.6516 16.2823 57.9542 16.7346 58.2569C16.8854 58.4082 17.0361 58.5595 17.1869 58.5595C17.3376 58.7108 17.3376 58.7108 17.3376 58.7108L17.6392 58.8622C17.6392 58.8622 17.7899 59.0135 17.9407 59.1648C18.0915 59.3161 18.393 59.4674 18.6945 59.77C19.2976 60.224 19.9006 60.5266 19.9006 60.5266L20.2022 60.0727C20.2022 60.0727 19.5991 59.77 18.996 59.3161C18.6945 59.1648 18.393 59.0135 18.2422 58.7108C18.0915 58.5595 17.9407 58.4082 17.9407 58.4082L17.4884 58.2569Z" fill="#F5EFDB"/>
<path d="M4.37215 25.7238C5.12597 26.1778 5.27673 25.8751 6.33208 26.6317L6.48284 26.3291C6.33208 26.1778 6.18132 26.0265 5.87979 25.8751C5.72903 25.7238 5.57826 25.5725 5.4275 25.1186C5.4275 24.8159 5.4275 24.2106 5.72903 23.6054L4.22139 23.0001C4.07063 23.4541 3.91986 23.908 3.91986 24.5133C3.7691 24.9672 3.91986 25.4212 4.37215 25.7238Z" fill="#F5EFDB"/>
<path d="M7.538 26.4807C7.23647 26.4807 7.08571 26.4807 6.93494 26.4807L6.78418 26.7833C7.83952 26.7833 7.83952 27.086 8.74411 27.086C9.1964 27.086 9.64869 26.9346 9.79945 26.632C10.101 26.3294 10.2517 26.0267 10.4025 25.5728L8.89487 24.9675C8.74411 25.5728 8.44258 25.8754 8.29182 26.1781C8.14105 26.3294 7.83952 26.4807 7.538 26.4807Z" fill="#F5EFDB"/>
<path d="M4.07095 28.902C4.22171 28.448 4.07095 28.1454 3.92019 27.6915C3.76943 27.3888 3.4679 27.0862 3.16637 26.7836C2.56332 26.3296 1.65873 26.1783 0.75415 26.4809C0.75415 26.4809 1.05568 26.4809 1.50797 26.7836C1.96026 26.9349 2.26179 27.2375 2.41255 27.8428C2.41255 28.1454 2.41255 28.2967 2.41255 28.5993C2.41255 28.902 2.41255 29.2046 2.41255 29.5072C2.41255 30.1125 2.56331 30.7177 3.31713 30.869C4.22171 31.1717 4.22172 30.8691 5.42783 31.323V31.0204C5.27706 31.0204 5.1263 30.8691 4.67401 30.7177C4.37248 30.7177 4.22171 30.4151 4.22171 30.1125C4.07095 30.1125 3.92019 29.5072 4.07095 28.902Z" fill="#F5EFDB"/>
<path d="M7.83932 31.6255C8.44238 31.6255 8.7439 31.1716 9.04543 30.7176C9.1962 30.415 9.19619 30.2637 9.34696 29.961C9.49772 29.6584 9.49772 29.5071 9.64849 29.3557C9.95001 29.0531 10.4023 29.0531 10.8546 29.0531C11.3069 29.0531 11.6084 29.2044 11.6084 29.2044C10.8546 28.5992 10.1008 28.2965 9.1962 28.4479C8.7439 28.4479 8.44238 28.5992 8.14085 28.7505C7.83932 28.9018 7.68856 29.2044 7.5378 29.6584C7.38703 30.2636 7.23627 30.5663 7.0855 30.8689C6.93474 31.1715 6.63321 31.3229 6.48245 31.3229C6.18092 31.3229 6.03016 31.3229 5.87939 31.3229C5.87939 31.3229 5.87939 31.3229 5.87939 31.4742V31.6255C6.93474 31.4742 6.93474 31.7768 7.83932 31.6255Z" fill="#F5EFDB"/>
<path d="M3.61833 34.3491C3.61833 33.5926 3.16604 32.836 2.41222 32.5334C1.6584 32.2307 0.753818 32.0794 0 32.6847C0 32.6847 0.301527 32.6847 0.753818 32.836C1.20611 32.9873 1.6584 33.1386 1.80916 33.7439C1.95993 33.8952 1.95993 34.1978 1.95993 34.5004C1.95993 34.8031 2.11069 35.1057 2.11069 35.4083C2.26145 36.0136 2.56298 36.6188 3.16604 36.6188C4.07062 36.7701 4.07062 36.4675 5.27673 36.7701V36.4675C5.12596 36.4675 4.82444 36.3162 4.52291 36.3162C4.22138 36.3162 4.07062 36.1649 3.91986 35.7109C3.61833 35.5596 3.61833 35.1057 3.61833 34.3491Z" fill="#F5EFDB"/>
<path d="M7.68882 36.4668C8.29187 36.3155 8.5934 35.8615 8.74416 35.4076C8.74416 35.105 8.89493 34.9537 8.89493 34.651C8.89493 34.3484 9.04569 34.1971 9.04569 34.0458C9.19646 33.7431 9.79951 33.5918 10.101 33.4405C10.5533 33.4405 10.8549 33.4405 10.8549 33.4405C10.101 32.9865 9.19646 32.8352 8.44264 32.9866C7.68882 33.1379 7.23653 33.7431 7.08576 34.4997C7.08576 35.105 6.935 35.5589 6.78424 35.8616C6.63347 36.1642 6.48271 36.3155 6.18118 36.4668C5.87965 36.4668 5.72889 36.6181 5.57812 36.6181V36.9208C6.78423 36.3155 6.935 36.6181 7.68882 36.4668Z" fill="#F5EFDB"/>
<path d="M3.91997 39.7954C3.91997 39.3415 3.61844 39.0388 3.46768 38.7362C3.16615 38.4336 2.86462 38.2823 2.5631 38.131C1.80928 37.9796 0.904697 37.9796 0.150879 38.7362C0.150879 38.7362 0.452406 38.7362 0.904697 38.7362C1.35699 38.7362 1.80928 38.8875 2.11081 39.3415C2.41233 39.7954 2.41233 40.4007 2.71386 41.0059C3.01539 41.6112 3.31692 42.0651 3.91997 42.0651C4.82455 42.0651 4.82455 41.7625 6.03066 41.9138C6.03066 41.9138 6.03066 41.9138 6.03066 41.7625V41.6112C5.8799 41.6112 5.57837 41.6112 5.27684 41.6112C4.97532 41.6112 4.82455 41.4599 4.52303 41.1573C4.37226 41.0059 4.37226 40.8546 4.2215 40.552C4.07073 40.4007 4.07073 40.0981 3.91997 39.7954Z" fill="#F5EFDB"/>
<path d="M8.44258 41.1576C9.04564 40.8549 9.1964 40.401 9.1964 39.947C9.1964 39.4931 9.1964 38.8878 9.34716 38.5852C9.49792 38.1312 9.95022 37.9799 10.4025 37.8286C10.8548 37.6773 11.1563 37.6773 11.1563 37.6773C10.2517 37.3747 9.34716 37.3747 8.74411 37.6773C8.44258 37.8286 8.14105 38.1313 7.99029 38.2826C7.83952 38.5852 7.68876 38.8878 7.83952 39.3418C7.83952 39.6444 7.83952 39.947 7.83952 40.0983C7.83952 40.2497 7.83952 40.5523 7.83952 40.7036C7.68876 41.0062 7.538 41.3089 7.38723 41.3089C7.08571 41.4602 6.93494 41.4602 6.78418 41.6115C6.78418 41.6115 6.78418 41.6115 6.78418 41.7628V41.9141C7.538 41.3089 7.68876 41.4602 8.44258 41.1576Z" fill="#F5EFDB"/>
<path d="M1.35767 44.7895C1.35767 44.7895 1.65919 44.6382 2.11148 44.6382C2.56378 44.6382 3.01607 44.6382 3.46836 45.0922C3.61912 45.2435 3.76989 45.3948 3.92065 45.6974L5.42829 45.0922C5.27753 44.6382 5.12676 44.3356 4.82523 44.1843C4.67447 44.033 4.52371 44.0329 4.37294 43.8816C4.22218 43.8816 4.07141 43.7303 3.76989 43.7303C2.8653 43.7303 1.96072 44.033 1.35767 44.7895Z" fill="#F5EFDB"/>
<path d="M11.9105 41.6131C11.0059 41.4618 10.1013 41.6131 9.49824 42.0671C9.34747 42.2184 9.19671 42.3697 9.04595 42.3697C8.89519 42.521 8.89518 42.6723 8.74442 42.8237C8.59366 43.1263 8.59366 43.4289 8.74442 43.8828L10.2521 43.2776C10.2521 43.1263 10.2521 42.8237 10.2521 42.6723C10.4028 42.2184 10.7043 41.9158 11.1566 41.7644C11.6089 41.7644 11.9105 41.6131 11.9105 41.6131Z" fill="#F5EFDB"/>
<path d="M6.48308 41.4601C6.48308 41.4601 6.48308 41.1575 6.33231 40.7035C6.18155 40.2496 6.18155 39.6443 6.03079 39.0391C6.03079 38.7364 5.88002 38.4338 5.88002 38.1312C5.88002 37.8285 5.88002 37.5259 5.72926 37.3746C5.72926 37.2233 5.72926 36.9207 5.72926 36.7693C5.72926 36.618 5.72926 36.618 5.72926 36.618V36.3154C5.72926 36.3154 5.72926 36.3154 5.72926 36.1641C5.72926 36.0128 5.72926 35.8615 5.72926 35.5588C5.72926 35.4075 5.72926 35.1049 5.72926 34.8023C5.72926 34.4996 5.72926 34.197 5.72926 33.8944C5.72926 33.2891 5.72926 32.6838 5.88002 32.2299C5.88002 31.776 5.88002 31.4733 5.88002 31.4733C5.88002 31.4733 5.88002 31.4733 5.88002 31.322V31.1707C5.88002 31.1707 5.88002 30.868 6.03079 30.4141C6.03079 30.2628 6.03079 29.9602 6.18155 29.6575C6.18155 29.3549 6.33231 29.0523 6.33231 28.7497C6.33231 28.5983 6.33231 28.447 6.48308 28.2957C6.48308 28.1444 6.48308 27.9931 6.63384 27.8418C6.63384 27.5391 6.78461 27.2365 6.78461 27.0852C6.78461 26.9339 6.93537 26.6312 6.93537 26.6312C6.93537 26.4799 6.93537 26.4799 6.93537 26.4799L7.08613 26.1773C7.08613 26.1773 7.08613 26.026 7.2369 25.8747C7.2369 25.7233 7.2369 25.7233 7.38766 25.572C7.38766 25.4207 7.53842 25.2694 7.53842 25.2694C7.68919 24.8155 7.83995 24.3615 7.83995 24.3615L7.38766 24.2102C7.38766 24.2102 7.2369 24.6641 7.08613 25.2694C6.93537 25.572 6.93537 25.7233 6.93537 26.026C6.93537 26.1773 6.78461 26.3286 6.78461 26.3286L6.63384 26.6312C6.63384 26.6312 6.63384 26.6312 6.63384 26.7826C6.63384 26.9339 6.48308 27.0852 6.48308 27.3878C6.48308 27.5391 6.33231 27.8417 6.33231 28.1444C6.33231 28.2957 6.33232 28.447 6.18155 28.5983C6.18155 28.7496 6.18155 28.901 6.03079 29.0523C6.03079 29.3549 5.88002 29.6575 5.88002 29.9602C5.88002 30.2628 5.72926 30.5654 5.72926 30.7168C5.72926 31.1707 5.5785 31.4733 5.5785 31.4733V31.776C5.5785 31.776 5.5785 32.0786 5.5785 32.5325C5.5785 32.9865 5.5785 33.5917 5.42773 34.197C5.42773 34.4996 5.42773 34.8022 5.42773 35.1049C5.42773 35.4075 5.42773 35.7101 5.42773 35.8615C5.42773 36.1641 5.42773 36.3154 5.42773 36.4667C5.42773 36.618 5.42773 36.618 5.42773 36.618V36.9207V37.072C5.42773 37.2233 5.42773 37.3746 5.42773 37.6772C5.42773 37.8285 5.42773 38.1312 5.5785 38.4338C5.5785 38.7364 5.5785 39.0391 5.72926 39.3417C5.88002 39.947 5.88002 40.5522 6.03079 41.0061C6.18155 41.4601 6.18155 41.7627 6.18155 41.7627C6.18155 41.7627 6.18155 41.7627 6.18155 41.914V42.0654C6.18155 42.0654 6.33231 42.6706 6.48308 43.4272C6.63384 44.0325 6.93537 44.789 6.93537 44.789L7.38766 44.6377C7.38766 44.6377 7.2369 44.0324 6.93537 43.2759C6.78461 42.6706 6.63384 41.914 6.63384 41.914C6.63384 41.914 6.48308 41.7627 6.48308 41.4601C6.48308 41.6114 6.48308 41.4601 6.48308 41.4601Z" fill="#F5EFDB"/>
<path d="M17.3379 8.17113C17.6394 8.9277 17.9409 8.92771 18.2424 10.1382L18.544 9.9869C18.544 9.83558 18.3932 9.53295 18.2424 9.23032C18.0917 8.9277 18.2424 8.77638 18.3932 8.47375C18.544 8.17112 18.9963 7.86851 19.5993 7.56588L18.8455 6.05273C18.6947 6.20405 18.3932 6.35537 18.2424 6.50668C18.0917 6.658 17.9409 6.80929 17.7901 6.96061C17.3379 7.26324 17.1871 7.71718 17.3379 8.17113Z" fill="#F5EFDB"/>
<path d="M19.2983 10.7441C19.1475 10.5928 18.9967 10.4415 18.846 10.2902L18.5444 10.4415C19.2983 11.198 19.1475 11.3494 19.7505 11.9546C20.0521 12.2572 20.5044 12.4086 20.8059 12.2572C20.9567 12.2572 21.2582 12.1059 21.4089 12.1059C21.5597 12.1059 21.7105 11.9546 22.012 11.9546L21.2582 10.4415C20.8059 10.7441 20.3536 10.8954 20.0521 10.8954C19.7505 11.0467 19.449 10.8954 19.2983 10.7441Z" fill="#F5EFDB"/>
<path d="M15.0765 10.4405C15.6796 9.83526 15.9811 9.07869 15.6796 8.32212C15.5288 7.86818 15.3781 7.56555 15.0765 7.26292C14.775 6.96029 14.4735 6.65766 13.8704 6.50635C13.8704 6.50635 14.1719 6.80898 14.3227 7.26292C14.4735 7.71687 14.6242 8.1708 14.3227 8.62475C14.0212 9.07869 13.5689 9.53263 13.1166 9.98657C12.6643 10.4405 12.5135 11.0458 12.8151 11.651C13.2674 12.4076 13.4181 12.2563 14.0212 13.3155L14.172 13.1642C14.172 13.0129 14.0212 12.8616 13.7197 12.5589C13.8704 11.9537 14.0212 11.3484 15.0765 10.4405Z" fill="#F5EFDB"/>
<path d="M16.1318 14.979C16.7348 15.4329 17.1871 15.2816 17.6394 14.979C18.0917 14.8276 18.544 14.3737 18.8455 14.3737C19.2978 14.3737 19.5993 14.525 20.0516 14.8277C20.3532 15.1303 20.5039 15.4329 20.5039 15.4329C20.3532 14.979 20.2024 14.525 20.0516 14.2224C19.9009 13.9197 19.5993 13.6171 19.2978 13.3145C18.9963 13.1632 18.6948 13.0118 18.2425 13.0118C17.9409 13.0118 17.4886 13.0119 17.3379 13.3145C16.8856 13.6171 16.4333 13.9197 16.1318 13.9197C15.8302 14.0711 15.5287 13.9197 15.378 13.7684C15.2272 13.6171 14.9257 13.4658 14.9257 13.4658L14.7749 13.6171C15.5287 14.2224 15.5287 14.3737 16.1318 14.979Z" fill="#F5EFDB"/>
<path d="M11.1566 14.2235C11.4581 13.9208 11.6089 13.6182 11.6089 13.1643C11.6089 12.8616 11.6089 12.4077 11.4581 12.1051C11.1566 11.3485 10.4028 10.7432 9.49819 10.5919C9.49819 10.5919 9.79972 10.8945 9.95048 11.1972C10.252 11.4998 10.4028 12.1051 10.252 12.559C10.252 12.7103 10.1012 13.013 9.79972 13.3156C9.64895 13.6182 9.49819 13.9209 9.34742 14.0722C9.19666 14.3748 9.0459 14.6774 9.0459 14.98C9.0459 15.2827 9.0459 15.5853 9.34742 15.7366C9.95048 16.3419 10.1012 16.1906 10.8551 17.2498L11.0058 16.9471C10.8551 16.7958 10.7043 16.6445 10.5535 16.3419C10.1012 16.0393 10.252 15.2827 11.1566 14.2235Z" fill="#F5EFDB"/>
<path d="M12.9659 18.4602C13.2674 18.6115 13.569 18.6115 13.7197 18.6115C14.0212 18.6115 14.172 18.4602 14.3228 18.3089C14.4735 18.1576 14.7751 18.0063 14.9258 17.855C15.0766 17.7037 15.2274 17.5523 15.5289 17.5523C15.9812 17.401 16.4335 17.5524 16.735 17.855C17.0365 18.1576 17.338 18.3089 17.338 18.3089C17.0365 17.401 16.4335 16.7958 15.6796 16.4932C15.3781 16.3418 14.9258 16.1905 14.6243 16.3419C14.3228 16.3419 14.0212 16.4931 13.7197 16.7958C12.9659 17.7037 12.3628 17.855 11.9106 17.7037C11.609 17.5523 11.4583 17.5524 11.3075 17.401L11.1567 17.7037C12.3628 17.855 12.2121 18.1576 12.9659 18.4602Z" fill="#F5EFDB"/>
<path d="M7.99046 18.7631C8.14122 18.4605 8.29199 18.0066 8.29199 17.7039C8.29199 17.4013 8.14122 16.9474 7.99046 16.6447C7.53817 16.0395 6.78435 15.4342 5.729 15.5855C5.729 15.5855 6.03053 15.7368 6.33206 16.0395C6.63358 16.3421 6.93511 16.796 6.78435 17.25C6.78435 17.7039 6.33206 18.3092 6.1813 18.9145C6.03053 19.5197 6.03053 20.125 6.48282 20.5789C7.23664 21.1842 7.23664 20.8815 8.29199 21.7894C8.29199 21.7894 8.29199 21.7894 8.29199 21.6381V21.4868C8.14122 21.3355 7.99046 21.1842 7.68893 21.0329C7.53817 20.8815 7.3874 20.5789 7.3874 20.2763C7.3874 20.125 7.3874 19.8223 7.53817 19.671C7.68893 19.2171 7.83969 19.0658 7.99046 18.7631Z" fill="#F5EFDB"/>
<path d="M10.5538 22.5455C11.1568 22.6969 11.6091 22.3942 11.9107 22.0916C12.2122 21.7889 12.5137 21.1837 12.8152 21.0324C13.1168 20.881 13.7198 20.8811 14.0214 21.1837C14.4737 21.335 14.7752 21.6376 14.7752 21.6376C14.3229 20.8811 13.5691 20.2758 12.8152 20.1245C12.5137 19.9732 12.0614 19.9732 11.7599 20.1245C11.4584 20.2758 11.1568 20.4271 11.0061 20.7297C10.8553 21.0324 10.7046 21.1837 10.5538 21.335C10.403 21.4863 10.2523 21.6376 10.1015 21.7889C9.79997 21.9403 9.49845 22.0916 9.34768 21.9403C9.04616 21.789 8.89539 21.7889 8.74463 21.7889C8.74463 21.7889 8.74463 21.789 8.74463 21.9403V22.0916C9.79997 22.0916 9.64921 22.2429 10.5538 22.5455Z" fill="#F5EFDB"/>
<path d="M2.71387 20.8818C2.71387 20.8818 3.0154 21.0331 3.46769 21.3357C3.76921 21.6383 4.22151 21.941 4.22151 22.5462C4.22151 22.6975 4.22151 23.0002 4.07074 23.3028L5.57838 23.9081C5.87991 23.1515 5.57838 22.3949 5.12609 21.7897C4.52303 21.0331 3.76921 20.5792 2.71387 20.8818Z" fill="#F5EFDB"/>
<path d="M12.815 25.2697C12.2119 24.5132 11.4581 24.2105 10.7043 24.0592C9.95048 24.0592 9.19666 24.3618 9.0459 24.9671L10.5535 25.5724C10.7043 25.4211 10.8551 25.2697 10.8551 25.1184C11.1566 24.8158 11.6089 24.8158 12.0612 24.9671C12.5135 25.1184 12.815 25.2697 12.815 25.2697Z" fill="#F5EFDB"/>
<path d="M8.74445 21.6381C8.74445 21.6381 8.89522 21.3355 9.04598 21.0329C9.19675 20.5789 9.49827 20.125 9.7998 19.5197C10.1013 19.0658 10.4029 18.4605 10.7044 18.1579C11.0059 17.8553 11.1567 17.5526 11.1567 17.5526L11.3074 17.25C11.3074 17.25 11.3074 17.25 11.4582 17.0987C11.4582 16.9474 11.609 16.7961 11.7597 16.6447C12.0613 16.3421 12.3628 15.8882 12.8151 15.4342C12.9658 15.2829 13.2674 14.9803 13.4181 14.829C13.5689 14.6777 13.8704 14.375 14.0212 14.2237C14.1719 14.0724 14.3227 13.9211 14.4735 13.7697C14.6242 13.6184 14.6242 13.6184 14.6242 13.6184L14.775 13.4671C14.775 13.4671 14.9258 13.3158 15.3781 13.0132C15.6796 12.7105 16.1319 12.2566 16.5842 11.954C16.8857 11.8027 17.0365 11.6513 17.338 11.3487C17.4887 11.1974 17.4887 11.1974 17.6395 11.0461C17.7903 11.0461 17.7903 10.8948 17.941 10.8948C18.2426 10.5921 18.5441 10.4408 18.5441 10.4408L18.8456 10.2895C18.8456 10.2895 19.2979 9.98687 19.7502 9.68424C19.901 9.68424 19.901 9.53294 20.0517 9.53294C20.2025 9.53294 20.2025 9.38162 20.3533 9.38162C20.504 9.2303 20.6548 9.23029 20.6548 9.23029L20.3533 8.77637C20.3533 8.77637 20.2025 8.77635 20.0517 8.92767C19.901 8.92767 19.901 9.07899 19.7502 9.07899C19.5994 9.07899 19.5994 9.23029 19.4487 9.23029C19.2979 9.38161 18.9964 9.53293 18.8456 9.68424C18.6949 9.83556 18.5441 9.83557 18.5441 9.83557L18.2426 9.98687C18.2426 9.98687 17.941 10.1382 17.6395 10.4408C17.4887 10.5921 17.1872 10.7435 17.0365 10.8948C16.7349 11.0461 16.5842 11.1974 16.2826 11.5C15.8303 11.954 15.3781 12.2566 15.0765 12.5592C14.775 12.8619 14.4735 13.0132 14.4735 13.0132L14.3227 13.1645C14.3227 13.1645 14.3227 13.1645 14.1719 13.3158C14.0212 13.4671 13.8704 13.6184 13.7197 13.7697C13.5689 13.9211 13.4181 14.0724 13.1166 14.375C12.9658 14.5263 12.6643 14.829 12.5135 14.9803C12.0613 15.4342 11.7597 15.8882 11.4582 16.3421C11.3074 16.4934 11.1567 16.6447 11.1567 16.796C11.0059 16.9474 11.0059 16.9474 11.0059 16.9474L10.8551 17.25C10.8551 17.25 10.7044 17.5526 10.4029 17.8553C10.2521 18.0066 10.1013 18.3092 9.95056 18.4605C9.7998 18.7631 9.64904 18.9145 9.49827 19.2171C9.19674 19.671 8.89522 20.2763 8.59369 20.7302C8.44293 21.1842 8.29216 21.3355 8.29216 21.3355C8.29216 21.3355 8.29216 21.3355 8.29216 21.4868V21.6381C8.29216 21.6381 8.29216 21.7894 8.1414 22.0921C7.99064 22.3947 7.83987 22.6973 7.68911 23C7.53835 23.3026 7.38758 23.6052 7.38758 23.9079C7.38758 24.0592 7.23682 24.0592 7.23682 24.2105V24.3618L7.68911 24.5131C7.68911 24.5131 7.68911 24.5131 7.68911 24.3618C7.68911 24.3618 7.68911 24.2105 7.83987 24.0592C7.99063 23.7565 8.1414 23.4539 8.1414 23.1513C8.29216 22.8487 8.44293 22.546 8.59369 22.2434C8.74445 21.9408 8.74445 21.7894 8.74445 21.7894C8.74445 21.7894 8.74445 21.7895 8.74445 21.6381Z" fill="#F5EFDB"/>
<path d="M29.8511 3.78287C30.3034 3.63155 30.6049 3.48023 30.9065 3.32892C31.208 3.02629 31.3588 2.72365 31.5095 2.42102C31.6603 1.66445 31.6603 0.756574 30.9065 0C30.9065 0 30.9065 0.302629 30.9065 0.756574C30.9065 1.21052 30.7557 1.66447 30.3034 1.9671C29.8511 2.26973 29.2481 2.26972 28.645 2.57235C28.0419 2.87498 27.5897 3.17761 27.5897 3.78287C27.5897 4.69076 27.8912 4.69075 27.7404 5.90127C27.7404 5.90127 27.7404 5.90127 27.8912 5.90127H28.042C28.042 5.74995 28.042 5.44732 28.042 5.14469C28.042 4.84206 28.1927 4.69075 28.4942 4.38812C28.645 4.2368 28.7958 4.23681 29.0973 4.08549C29.2481 3.93418 29.5496 3.78287 29.8511 3.78287Z" fill="#F5EFDB"/>
<path d="M28.4941 8.1708C28.7956 8.77607 29.2479 8.92738 29.7002 8.92738C30.1525 8.92738 30.7555 8.92739 31.057 9.07871C31.5093 9.23002 31.6601 9.68397 31.8109 10.1379C31.9616 10.5919 31.9616 10.8945 31.9616 10.8945C32.2631 9.9866 32.2631 9.07869 31.9616 8.47343C31.8109 8.1708 31.5093 7.86817 31.3586 7.71685C31.057 7.56554 30.7555 7.41424 30.3032 7.56555C30.0017 7.56555 29.7002 7.56555 29.5494 7.56555C29.3986 7.56555 29.0971 7.56555 28.9463 7.56555C28.6448 7.41424 28.3433 7.26292 28.3433 7.1116C28.1925 6.80897 28.1925 6.65766 28.0418 6.50635C28.0418 6.50635 28.0418 6.50635 27.891 6.50635H27.7402C28.3433 7.26293 28.1925 7.41423 28.4941 8.1708Z" fill="#F5EFDB"/>
<path d="M24.5747 5.14414C25.027 4.99283 25.3285 4.84152 25.4792 4.53889C25.63 4.38757 25.63 4.23625 25.7808 4.08494C25.7808 3.93362 25.9315 3.78232 25.9315 3.47969C26.0823 2.72311 25.7808 1.81522 24.8762 1.20996C24.8762 1.20996 25.027 1.51259 25.027 1.96654C25.027 2.42048 25.027 2.87442 24.5747 3.32836C24.4239 3.47968 24.1224 3.631 23.8208 3.78231C23.5193 3.93363 23.2178 4.08495 22.9163 4.23626C22.3132 4.53889 22.0117 4.99284 22.1624 5.74942C22.3132 6.65731 22.6147 6.50597 22.7655 7.71649L23.067 7.56519C23.067 7.41388 23.067 7.11125 22.9163 6.80862C22.9163 6.50599 22.9163 6.35467 23.2178 6.05204C23.5193 5.5981 23.9716 5.29546 24.5747 5.14414Z" fill="#F5EFDB"/>
<path d="M23.9714 9.68503C24.2729 10.2903 24.8759 10.2903 25.3282 10.2903C25.6298 10.2903 25.7805 10.139 26.0821 10.139C26.3836 10.139 26.5343 10.139 26.6851 10.139C27.1374 10.2903 27.4389 10.5929 27.5897 11.0469C27.7405 11.5008 27.8912 11.8035 27.8912 11.8035C28.042 10.8956 27.8912 9.98766 27.4389 9.3824C27.2882 9.23109 27.1374 9.07977 27.1374 8.92845C26.9866 8.77714 26.8359 8.77714 26.6851 8.62583C26.3836 8.47451 26.0821 8.47451 25.6298 8.62583C25.0267 8.77714 24.7252 8.92845 24.2729 8.92845C23.9714 8.92845 23.6698 8.77714 23.5191 8.62583C23.3683 8.32319 23.2175 8.17188 23.2175 8.17188L22.916 8.3232C23.6698 8.92846 23.5191 9.07977 23.9714 9.68503Z" fill="#F5EFDB"/>
<path d="M19.1466 3.3291C19.1466 3.3291 19.2974 3.63173 19.4482 4.08568C19.5989 4.53963 19.5989 4.99357 19.2974 5.44752C19.1466 5.59883 18.9959 5.75015 18.6943 5.90147L19.4482 7.41463C20.202 6.96068 20.5035 6.2041 20.5035 5.44752C20.5035 4.69094 20.0512 3.78305 19.1466 3.3291Z" fill="#F5EFDB"/>
<path d="M24.1223 13.317C24.1223 12.4091 23.8208 11.5012 23.2177 11.0473C22.6147 10.442 22.0116 10.2907 21.2578 10.5933L22.0116 12.1065C22.1624 12.1065 22.4639 11.9551 22.6147 11.9551C23.067 11.9551 23.3685 12.2578 23.67 12.7117C23.9716 12.863 24.1223 13.317 24.1223 13.317Z" fill="#F5EFDB"/>
<path d="M32.5649 63.855C32.1126 63.855 31.8111 63.855 31.8111 63.855C31.8111 63.855 31.8111 63.855 31.6603 63.855H31.5096C31.5096 63.855 31.208 63.855 30.7557 63.7037C30.605 63.7037 30.3035 63.7037 30.0019 63.5524C29.7004 63.5524 29.3989 63.4011 29.0974 63.4011C28.9466 63.4011 28.7958 63.4011 28.6451 63.2498C28.4943 63.2498 28.3435 63.2497 28.1928 63.0984C27.8912 63.0984 27.5897 62.9471 27.4389 62.9471C27.2882 62.9471 26.9867 62.7958 26.9867 62.7958C26.8359 62.7958 26.8359 62.7958 26.8359 62.7958L26.5344 62.6445C26.5344 62.6445 26.5344 62.6445 26.3836 62.6445C26.2328 62.6445 26.0821 62.4932 25.9313 62.4932C25.7805 62.4932 25.479 62.3418 25.1775 62.1905C24.876 62.0392 24.5744 62.0392 24.4237 61.8879C23.8206 61.5853 23.3683 61.434 22.916 61.2826C22.4637 61.1313 22.1622 60.98 22.1622 60.98C22.1622 60.98 22.1622 60.98 22.0115 60.98H21.8607C21.8607 60.98 21.4084 60.6774 20.9561 60.5261C20.6546 60.3748 20.5038 60.2235 20.3531 60.2235C20.2023 60.0722 20.0515 60.0721 20.0515 60.0721L19.75 60.5261C19.75 60.5261 19.9008 60.5261 20.0515 60.6774C20.2023 60.8287 20.5038 60.98 20.6546 60.98C21.1069 61.2827 21.5592 61.434 21.5592 61.434C21.5592 61.434 21.5592 61.434 21.7099 61.434H21.8607C21.8607 61.434 22.1622 61.5853 22.6145 61.7366C23.0668 61.8879 23.6699 62.1905 24.1221 62.3419C24.4237 62.4932 24.7252 62.4932 25.0267 62.6445C25.3283 62.7958 25.479 62.7958 25.7805 62.9471C26.2328 63.0984 26.5344 63.0984 26.5344 63.0984L26.8359 63.2498C26.8359 63.2498 26.8359 63.2498 26.9867 63.2498C27.1374 63.2498 27.2882 63.4011 27.5897 63.4011C27.7405 63.4011 28.042 63.5524 28.3435 63.5524C28.4943 63.5524 28.6451 63.5524 28.7958 63.7037C28.9466 63.7037 29.0973 63.7037 29.2481 63.855C29.5496 63.855 29.8512 64.0063 30.1527 64.0063C30.4542 64.0063 30.7557 64.1576 30.9065 64.1576C31.3588 64.1576 31.6603 64.3089 31.6603 64.3089H31.9619C31.9619 64.3089 32.2634 64.3089 32.7157 64.3089H32.8664V63.7037C32.7157 63.855 32.5649 63.855 32.5649 63.855Z" fill="#F5EFDB"/>
<path d="M32.1129 5.14495C31.8113 5.14495 31.6606 5.14496 31.359 5.29628C31.0575 5.29628 30.756 5.29626 30.4544 5.44758C29.8514 5.59889 29.2483 5.59891 28.7961 5.75022C28.3438 5.90154 28.0422 5.90152 28.0422 5.90152C28.0422 5.90152 28.0422 5.90152 27.8915 5.90152H27.7407C27.7407 5.90152 27.4392 6.05285 26.9869 6.05285C26.8361 6.05285 26.5346 6.20415 26.2331 6.20415C25.9315 6.35546 25.63 6.35548 25.3285 6.5068C25.027 6.65811 24.7254 6.65811 24.4239 6.80942C24.1224 6.96073 23.9716 6.96073 23.6701 7.11204C23.5193 7.26336 23.2178 7.26337 23.2178 7.26337C23.067 7.26337 23.067 7.41467 23.067 7.41467L22.7655 7.56599C22.7655 7.56599 22.6147 7.56598 22.3132 7.71729C22.0117 7.86861 21.7102 8.01992 21.4086 8.17124C21.1071 8.32255 20.8056 8.47387 20.504 8.62519C20.2025 8.7765 20.0518 8.77651 20.0518 8.77651L20.3533 9.23043C20.3533 9.23043 20.504 9.07913 20.6548 9.07913C20.8056 8.92782 21.2579 8.7765 21.5594 8.62519C21.8609 8.47387 22.1624 8.32255 22.464 8.17124C22.7655 8.01992 22.9163 8.01994 22.9163 8.01994L23.2178 7.86861C23.2178 7.86861 23.2178 7.86861 23.3686 7.71729C23.5193 7.71729 23.6701 7.56599 23.8208 7.56599C23.9716 7.41468 24.2731 7.41468 24.5747 7.26337C24.7254 7.26337 24.8762 7.11204 25.027 7.11204C25.1777 7.11204 25.3285 6.96072 25.4792 6.96072C25.7808 6.80941 26.0823 6.80941 26.3838 6.6581C26.6854 6.50678 26.8361 6.5068 27.1376 6.5068C27.5899 6.35548 27.8915 6.35547 27.8915 6.35547C27.8915 6.35547 27.8915 6.35547 28.0422 6.35547H28.193C28.193 6.35547 28.4945 6.35546 28.9468 6.20415C29.3991 6.05283 30.0022 6.05284 30.6052 5.90152C30.9067 5.90152 31.2083 5.75022 31.5098 5.75022C31.8113 5.75022 32.1129 5.75021 32.2636 5.5989H32.4144L32.2636 4.99365C32.1129 5.14497 32.1129 5.14495 32.1129 5.14495Z" fill="#F5EFDB"/>
<path d="M31.208 5.44727C31.208 5.44727 31.9618 4.08545 34.0725 4.08545C36.1832 4.08545 37.5401 4.6907 37.9924 4.6907C38.4447 4.6907 36.0325 4.84202 34.8263 5.5986C33.9218 6.20386 31.3588 6.50648 31.208 5.44727Z" fill="#F5EFDB"/>
<path d="M58.3458 63.2498C57.7428 62.4932 58.0443 62.4932 57.1397 61.434C57.1397 61.434 57.1397 61.434 57.2905 61.434H57.4413C57.592 61.5853 57.7428 61.7366 57.8936 62.0392C58.0443 62.1905 58.3458 62.3419 58.6474 62.3419C58.7981 62.3419 59.0997 62.3419 59.2504 62.1905C59.552 62.0392 59.7027 62.0392 60.0042 61.8879L60.9088 63.2498C60.0042 63.5524 58.9489 64.1577 58.3458 63.2498Z" fill="#F5EFDB"/>
<path d="M56.9885 60.2234C57.1393 60.526 57.1393 60.6773 57.1393 60.8286C57.1393 60.8286 57.1393 60.8286 56.9885 60.8286H56.8377C56.687 59.7694 56.3855 59.7694 56.2347 59.0128C55.9332 57.9536 56.8377 57.4997 57.29 57.0458L58.1946 58.4076C57.8931 58.5589 57.7423 58.7103 57.5916 58.8616C57.4408 59.0129 57.29 59.1642 57.1393 59.3155C56.9885 59.7694 56.9885 60.0721 56.9885 60.2234Z" fill="#F5EFDB"/>
<path d="M55.1799 64.1577C55.9337 63.8551 56.6875 64.1577 57.2906 64.6117C57.8937 65.2169 58.1952 65.9735 58.0444 67.0327C58.0444 67.0327 57.8937 66.7301 57.5921 66.2761C57.2906 65.9735 56.9891 65.5196 56.386 65.5196C55.4814 65.5196 53.6723 66.4274 53.0692 65.2169C52.6169 64.4603 52.9185 64.309 52.1646 63.2498L52.4662 63.0985C52.6169 63.2498 52.7677 63.4011 52.9185 63.7038C53.0692 64.0064 53.22 64.0064 53.6723 64.1577C53.9738 64.4604 54.5769 64.309 55.1799 64.1577Z" fill="#F5EFDB"/>
<path d="M51.8629 60.9799C51.8629 60.3746 52.1644 59.9207 52.6167 59.618C52.7675 59.4667 53.069 59.3154 53.2198 59.1641C53.3705 59.0128 53.672 58.8615 53.672 58.7102C53.9736 58.4075 53.9736 57.9536 53.8228 57.4996C53.672 57.0457 53.5213 56.743 53.5213 56.743C54.2751 57.3483 54.5766 58.1049 54.7274 58.8615C54.7274 59.618 54.4259 60.3746 53.8228 60.5259C53.2198 60.6772 52.9182 60.9799 52.6167 61.1312C52.3152 61.4338 52.3152 61.5851 52.3152 61.8878C52.3152 62.1904 52.3152 62.3417 52.3152 62.493L52.0136 62.6443C52.1644 61.7364 51.8629 61.7364 51.8629 60.9799Z" fill="#F5EFDB"/>
<path d="M49.903 65.6713C50.3553 65.52 50.6568 65.6713 51.1091 65.8226C51.4107 65.9739 51.7122 66.2765 52.0137 66.5792C52.466 67.1844 52.6168 68.0923 52.3152 69.0002C52.3152 69.0002 52.3152 68.6976 52.0137 68.2436C51.863 67.7897 51.5614 67.487 50.9584 67.3357C50.6568 67.3357 50.5061 67.3357 50.2046 67.3357C49.903 67.3357 49.6015 67.3357 49.3 67.3357C48.6969 67.3357 48.0939 67.1845 47.9431 66.4279C47.6416 65.52 47.9431 65.52 47.4908 64.3094H47.7923C47.7923 64.4608 47.9431 64.6121 48.0939 65.066C48.0939 65.3686 48.3954 65.52 48.6969 65.6713C48.6969 65.6713 49.3 65.6713 49.903 65.6713Z" fill="#F5EFDB"/>
<path d="M47.1895 61.8887C47.1895 61.2835 47.6418 60.9808 48.0941 60.6782C48.3956 60.5269 48.5464 60.5269 48.8479 60.3756C49.1495 60.2243 49.3002 60.2242 49.451 60.0729C49.7525 59.7703 49.7525 59.3164 49.7525 58.8624C49.7525 58.4085 49.6018 58.1058 49.6018 58.1058C50.2048 58.8624 50.5063 59.7703 50.3556 60.5269C50.3556 60.8295 50.2048 61.2835 50.054 61.5861C49.9033 61.8887 49.6018 62.04 49.1495 62.1913C48.5464 62.3427 48.2449 62.494 47.9434 62.6453C47.6418 62.7966 47.4911 63.0993 47.4911 63.2506C47.4911 63.5532 47.4911 63.7045 47.4911 63.8558C47.4911 63.8558 47.4911 63.8558 47.3403 63.8558H47.1895C47.3403 62.7966 47.1895 62.6453 47.1895 61.8887Z" fill="#F5EFDB"/>
<path d="M73.271 47.5123C72.3665 47.361 72.5172 47.0584 71.3111 46.907L71.4619 46.6044C71.6126 46.6044 71.9142 46.6045 72.2157 46.7558C72.5172 46.7558 72.668 46.7557 72.9695 46.4531C73.271 46.1505 73.4218 45.6966 73.7233 45.0913L75.231 45.6966C75.0802 46.1505 74.7787 46.6044 74.4772 46.907C74.1756 47.361 73.7233 47.5123 73.271 47.5123Z" fill="#F5EFDB"/>
<path d="M70.4062 45.9993C70.7077 46.1507 70.8585 46.302 70.8585 46.302L70.7077 46.6046C69.8031 45.848 69.6524 46.1506 69.0493 45.5454C68.597 45.2427 68.4463 44.9401 68.4463 44.4862C68.4463 44.0322 68.597 43.7296 68.597 43.2756L70.1046 43.8809C69.9539 44.4862 69.8031 44.7888 69.8031 45.2428C69.9539 45.5454 70.1047 45.848 70.4062 45.9993Z" fill="#F5EFDB"/>
<path d="M71.311 50.0852C71.7633 49.3286 72.5171 49.026 73.2709 49.026C74.0247 49.026 74.9293 49.4799 75.3816 50.3878C75.3816 50.3878 75.0801 50.2365 74.6278 50.0852C74.1755 49.9339 73.7232 49.9339 73.2709 50.2365C73.1202 50.3878 72.9694 50.5391 72.6679 50.8418C72.5171 51.1444 72.3663 51.2957 72.0648 51.5984C71.6125 52.0523 71.1602 52.3549 70.5572 52.2036C69.8034 51.901 69.8034 51.5984 68.5973 51.2957L68.748 50.9931C68.8988 50.9931 69.2003 51.1444 69.5018 51.2957C69.8034 51.4471 69.9541 51.2957 70.2557 51.1444C70.7079 51.1444 71.0095 50.6905 71.311 50.0852Z" fill="#F5EFDB"/>
<path d="M66.7881 49.7832C66.3358 49.3293 66.3358 48.8753 66.4866 48.2701C66.6373 47.9674 66.6374 47.8161 66.7881 47.5135C66.9389 47.2108 66.9389 47.0595 66.9389 46.9082C66.9389 46.4542 66.6373 46.1516 66.1851 45.849C65.8835 45.5464 65.4312 45.395 65.4312 45.395C66.3358 45.395 67.2404 45.6977 67.6927 46.3029C68.2957 46.9082 68.4465 47.5135 68.145 48.2701C67.8435 48.724 67.6927 49.1779 67.6927 49.4806C67.6927 49.7832 67.6927 50.0858 67.9942 50.2371C68.145 50.3885 68.2957 50.5398 68.4465 50.6911L68.2958 50.9937C67.5419 50.2371 67.3912 50.3885 66.7881 49.7832Z" fill="#F5EFDB"/>
<path d="M68.2958 54.6241C68.8988 54.0189 69.6526 53.7162 70.4065 54.0189C70.8587 54.1702 71.1603 54.3215 71.4618 54.6241C71.7633 54.9268 72.0648 55.2294 72.2156 55.8347C72.2156 55.8347 71.9141 55.532 71.4618 55.3807C71.0095 55.2294 70.5572 55.0781 70.1049 55.3807C69.6526 55.6833 69.2003 56.1373 68.748 56.5913C68.2957 57.0452 67.6927 57.1965 67.0896 56.8939C66.3358 56.4399 66.4866 56.2886 65.4312 55.6834L65.582 55.532C65.7328 55.532 65.8835 55.6833 66.3358 55.986C66.7881 55.8347 67.3912 55.6833 68.2958 54.6241Z" fill="#F5EFDB"/>
<path d="M63.7727 53.566C63.3204 52.9608 63.4712 52.5068 63.7727 52.0529C63.9235 51.5989 64.3758 51.145 64.3758 50.8423C64.3758 50.3884 64.225 49.9345 63.9235 49.6318C63.6219 49.3292 63.3204 49.1779 63.3204 49.1779C63.7727 49.3292 64.225 49.4805 64.5265 49.6318C64.828 49.7831 65.1296 50.0858 65.4311 50.3884C65.5819 50.691 65.7326 50.9936 65.7326 51.4476C65.7326 51.7502 65.7326 52.2042 65.4311 52.3555C65.1296 52.8094 64.828 53.2634 64.828 53.566C64.6773 53.8687 64.828 54.1713 64.9788 54.3226C65.1296 54.4739 65.2803 54.7765 65.2803 54.7765L65.1296 54.9278C64.5265 54.02 64.3758 54.1713 63.7727 53.566Z" fill="#F5EFDB"/>
<path d="M64.5266 58.558C64.8281 58.2554 65.1296 58.1041 65.5819 58.1041C65.8835 58.1041 66.3358 58.1041 66.6373 58.2554C67.3911 58.558 67.9942 59.3146 68.1449 60.2225C68.1449 60.2225 67.8434 59.9198 67.5419 59.7685C67.2403 59.4659 66.6373 59.3146 66.185 59.4659C66.0342 59.4659 65.7327 59.6172 65.4312 59.9198C65.1296 60.0712 64.8281 60.2225 64.6774 60.3738C64.3758 60.5251 64.0743 60.6764 63.7728 60.6764C63.4712 60.6764 63.1697 60.6764 63.019 60.3738C62.4159 59.7686 62.5667 59.6172 61.5113 58.8607L61.8128 58.7094C61.9636 58.8607 62.1144 59.012 62.4159 59.1633C62.7174 59.4659 63.4712 59.4659 64.5266 58.558Z" fill="#F5EFDB"/>
<path d="M60.3051 56.7432C60.1544 56.4406 60.1544 56.138 60.1544 55.9867C60.1544 55.684 60.3052 55.5327 60.4559 55.3814C60.6067 55.2301 60.7574 54.9275 60.9082 54.7762C61.059 54.6248 61.2097 54.4735 61.2097 54.1709C61.3605 53.717 61.2097 53.263 60.9082 52.9604C60.6067 52.6577 60.4559 52.3551 60.4559 52.3551C61.3605 52.6577 61.9636 53.263 62.2651 54.0196C62.4159 54.3222 62.5666 54.7762 62.4159 55.0788C62.4159 55.3814 62.2651 55.684 61.9636 55.9867C61.059 56.7432 60.9082 57.3485 61.059 57.8024C61.2097 58.1051 61.2097 58.2564 61.3605 58.4077L61.059 58.559C60.9082 57.3485 60.6067 57.4998 60.3051 56.7432Z" fill="#F5EFDB"/>
<path d="M63.3208 64.1574C63.3208 64.1574 63.17 63.8548 62.8685 63.5522C62.567 63.2495 62.1147 62.9469 61.6624 63.0982C61.5116 63.0982 61.2101 63.2496 60.9086 63.2496L60.004 61.8877C60.3055 61.7364 60.7578 61.5851 61.0593 61.5851C61.3609 61.5851 61.8132 61.7364 62.1147 61.8877C62.8685 62.3417 63.3208 63.0982 63.3208 64.1574Z" fill="#F5EFDB"/>
<path d="M57.2901 54.776C58.0444 55.2299 58.6478 55.9865 58.7986 56.7431C58.9495 57.0457 58.9495 57.4997 58.7986 57.8023C58.6478 58.105 58.4969 58.4076 58.1952 58.5589L57.2901 57.1971C57.441 57.0457 57.5918 56.8944 57.7427 56.7431C57.8935 56.4405 57.8935 55.8352 57.5918 55.5326C57.441 55.0786 57.2901 54.776 57.2901 54.776Z" fill="#F5EFDB"/>
<path d="M61.5122 58.2569C61.5122 58.2569 61.5122 58.2569 61.6629 58.1056C61.8137 58.1056 61.9645 57.9543 62.1152 57.8029C62.4168 57.5003 62.869 57.1977 63.3213 56.7437C63.4721 56.5924 63.7736 56.2898 63.9244 56.1385C64.0752 55.9872 64.3767 55.6845 64.5275 55.5332C64.6782 55.3819 64.829 55.2306 64.9797 55.0793C65.1305 54.928 65.1305 54.928 65.1305 54.928L65.2813 54.7766C65.2813 54.7766 65.432 54.6253 65.7336 54.1714C66.0351 53.8688 66.4874 53.4148 66.7889 52.9609C66.9397 52.6582 67.0904 52.5069 67.392 52.2043C67.5427 52.053 67.5427 52.053 67.6935 51.9017C67.6935 51.7504 67.8442 51.7503 67.8442 51.599C68.1458 51.2964 68.2965 50.9938 68.2965 50.9938L68.4473 50.6911C68.4473 50.6911 68.5981 50.3885 68.8996 50.0859C69.0504 49.9346 69.2011 49.6319 69.3519 49.4806C69.5026 49.178 69.6534 49.0267 69.8042 48.7241C69.8042 48.5727 69.9549 48.4214 69.9549 48.2701C69.9549 48.1188 70.1057 47.9675 70.1057 47.8162C70.2565 47.5135 70.4072 47.3622 70.4072 47.0596C70.558 46.9083 70.558 46.757 70.558 46.6057C70.558 46.4543 70.7088 46.4543 70.7088 46.4543L70.8595 46.1517C70.8595 46.1517 70.8595 46.0004 71.0103 45.8491C71.161 45.6978 71.1611 45.3952 71.3118 45.2438C71.4626 44.9412 71.4626 44.7899 71.6133 44.6385C71.6133 44.4872 71.7641 44.3359 71.7641 44.3359L72.2164 44.4873C72.2164 44.4873 72.2164 44.6385 72.0656 44.7899C72.0656 44.9412 71.9149 45.2438 71.7641 45.5464C71.6133 45.8491 71.6133 46.0004 71.4626 46.1517C71.3118 46.303 71.3118 46.4543 71.3118 46.4543L71.1611 46.757C71.1611 46.757 71.161 46.7569 71.0103 46.9083C71.0103 47.0596 70.8595 47.2109 70.7088 47.3622C70.558 47.5135 70.558 47.8162 70.4072 48.1188C70.4072 48.2701 70.2565 48.4214 70.2565 48.5727C70.2565 48.724 70.1057 48.8754 70.1057 49.0267C69.9549 49.3293 69.8042 49.632 69.6534 49.7833C69.5027 50.0859 69.3519 50.2372 69.2011 50.3885C69.0504 50.5398 69.0504 50.6911 68.8996 50.8425C68.8996 50.9938 68.7488 50.9938 68.7488 50.9938L68.5981 51.2964C68.5981 51.2964 68.4473 51.599 68.1458 51.9017C67.995 52.053 67.8443 52.3556 67.6935 52.5069C67.5427 52.8096 67.392 52.9609 67.0904 53.2635C66.6381 53.7174 66.3366 54.1714 66.0351 54.6253C65.7336 54.928 65.5828 55.2306 65.5828 55.2306L65.432 55.3819C65.432 55.3819 65.432 55.3819 65.2813 55.5332C65.1305 55.6845 64.9797 55.8358 64.829 55.9871C64.6782 56.1385 64.5274 56.2898 64.2259 56.5924C64.0752 56.7438 63.7736 57.0464 63.6229 57.1977C63.1706 57.6516 62.7183 57.9542 62.266 58.2569C62.1152 58.4082 61.9645 58.5595 61.8137 58.5595C61.6629 58.7108 61.6629 58.7108 61.6629 58.7108L61.3614 58.8622C61.3614 58.8622 61.2106 59.0135 61.0599 59.1648C60.9091 59.3161 60.6076 59.4674 60.3061 59.77C59.703 60.224 59.1 60.5266 59.1 60.5266L58.7984 60.0727C58.7984 60.0727 59.4015 59.77 60.0045 59.3161C60.3061 59.1648 60.6076 59.0135 60.7584 58.7108C60.9091 58.5595 61.0599 58.4082 61.0599 58.4082L61.5122 58.2569Z" fill="#F5EFDB"/>
<path d="M74.4771 25.7238C73.7233 26.1778 73.5725 25.8751 72.5172 26.6317L72.3664 26.3291C72.5172 26.1778 72.668 26.0265 72.9695 25.8751C73.1203 25.7238 73.271 25.5725 73.4218 25.1186C73.4218 24.8159 73.4218 24.2106 73.1203 23.6054L74.6279 23.0001C74.7787 23.4541 74.9294 23.908 74.9294 24.5133C75.231 24.9672 74.9294 25.4212 74.4771 25.7238Z" fill="#F5EFDB"/>
<path d="M71.3119 26.4807C71.6134 26.4807 71.7642 26.4807 71.9149 26.4807L72.0657 26.7833C71.0103 26.7833 71.0103 27.086 70.1058 27.086C69.6535 27.086 69.2012 26.9346 69.0504 26.632C68.7489 26.3294 68.5981 26.0267 68.4474 25.5728L69.955 24.9675C70.1058 25.5728 70.4073 25.8754 70.5581 26.1781C70.8596 26.3294 71.1611 26.4807 71.3119 26.4807Z" fill="#F5EFDB"/>
<path d="M74.7788 28.902C74.6281 28.448 74.7788 28.1454 74.9296 27.6915C75.0804 27.3888 75.3819 27.0862 75.6834 26.7836C76.2865 26.3296 77.1911 26.1783 78.0956 26.4809C78.0956 26.4809 77.7941 26.4809 77.3418 26.7836C76.8895 26.9349 76.588 27.2375 76.4372 27.8428C76.4372 28.1454 76.4372 28.2967 76.4372 28.5993C76.4372 28.902 76.4372 29.2046 76.4372 29.5072C76.4372 30.1125 76.2865 30.7177 75.5326 30.869C74.6281 31.1717 74.6281 30.8691 73.422 31.323V31.0204C73.5727 31.0204 73.7235 30.8691 74.1758 30.7177C74.4773 30.7177 74.6281 30.4151 74.6281 30.1125C74.9296 30.1125 74.9296 29.5072 74.7788 28.902Z" fill="#F5EFDB"/>
<path d="M71.1608 31.6255C70.5577 31.6255 70.2562 31.1716 69.9547 30.7176C69.8039 30.415 69.8039 30.2637 69.6531 29.961C69.5024 29.6584 69.5024 29.5071 69.3516 29.3557C69.0501 29.0531 68.5978 29.0531 68.1455 29.0531C67.6932 29.0531 67.3917 29.2044 67.3917 29.2044C68.1455 28.5992 69.0501 28.2965 69.8039 28.4479C70.2562 28.4479 70.5577 28.5992 70.8593 28.7505C71.1608 28.9018 71.3115 29.2044 71.4623 29.6584C71.6131 30.2636 71.7638 30.5663 71.9146 30.8689C72.0654 31.1715 72.3669 31.3229 72.5177 31.3229C72.8192 31.3229 72.9699 31.3229 73.1207 31.3229C73.1207 31.3229 73.1207 31.3229 73.1207 31.4742V31.6255C71.9146 31.4742 71.9146 31.7768 71.1608 31.6255Z" fill="#F5EFDB"/>
<path d="M75.3816 34.3491C75.3816 33.5926 75.8339 32.836 76.5877 32.5334C77.3416 32.2307 78.2461 32.0794 79 32.6847C79 32.6847 78.6984 32.6847 78.2461 32.836C77.7938 32.9873 77.3416 33.1386 77.1908 33.7439C77.04 33.8952 77.04 34.1978 77.04 34.5004C77.04 34.8031 76.8893 35.1057 76.8893 35.4083C76.7385 36.0136 76.437 36.6188 75.8339 36.6188C74.9293 36.7701 74.9293 36.4675 73.7232 36.7701V36.4675C73.874 36.4675 74.1755 36.3162 74.477 36.3162C74.7786 36.3162 74.9293 36.1649 75.0801 35.7109C75.2309 35.5596 75.3816 35.1057 75.3816 34.3491Z" fill="#F5EFDB"/>
<path d="M71.1613 36.4668C70.5582 36.3155 70.2567 35.8615 70.1059 35.4076C70.1059 35.105 69.9551 34.9537 69.9551 34.651C69.9551 34.3484 69.8044 34.1971 69.8044 34.0458C69.6536 33.7431 69.0506 33.5918 68.749 33.4405C68.2967 33.4405 67.9952 33.4405 67.9952 33.4405C68.749 32.9865 69.6536 32.8352 70.4074 32.9866C71.1613 33.1379 71.6135 33.7431 71.7643 34.4997C71.7643 35.105 71.9151 35.5589 72.0658 35.8616C72.2166 36.1642 72.3674 36.3155 72.6689 36.4668C72.9704 36.4668 73.1212 36.6181 73.272 36.6181V36.9208C72.0658 36.3155 72.0659 36.6181 71.1613 36.4668Z" fill="#F5EFDB"/>
<path d="M74.9296 39.7954C74.9296 39.3415 75.2311 39.0388 75.3819 38.7362C75.6834 38.4336 75.985 38.2823 76.2865 38.131C77.0403 37.9796 77.9449 37.9796 78.6987 38.7362C78.6987 38.7362 78.3972 38.7362 77.9449 38.7362C77.4926 38.7362 77.0403 38.8875 76.7388 39.3415C76.4373 39.7954 76.4373 40.4007 76.1357 41.0059C75.8342 41.6112 75.5327 42.0651 74.9296 42.0651C74.025 42.0651 74.025 41.7625 72.8189 41.9138C72.8189 41.9138 72.8189 41.9138 72.8189 41.7625V41.6112C72.9697 41.6112 73.2712 41.6112 73.5728 41.6112C73.8743 41.6112 74.025 41.4599 74.3266 41.1573C74.4773 41.0059 74.4773 40.8546 74.6281 40.552C74.7789 40.4007 74.9296 40.0981 74.9296 39.7954Z" fill="#F5EFDB"/>
<path d="M70.5581 41.1576C69.955 40.8549 69.8043 40.401 69.8043 39.947C69.8043 39.4931 69.8043 38.8878 69.6535 38.5852C69.5027 38.1312 69.0504 37.9799 68.5981 37.8286C68.1459 37.6773 67.8443 37.6773 67.8443 37.6773C68.7489 37.3747 69.6535 37.3747 70.2565 37.6773C70.5581 37.8286 70.8596 38.1313 71.0104 38.2826C71.1611 38.5852 71.3119 38.8878 71.1611 39.3418C71.1611 39.6444 71.1611 39.947 71.1611 40.0983C71.1611 40.2497 71.1611 40.5523 71.1611 40.7036C71.3119 41.0062 71.4627 41.3089 71.6134 41.3089C71.9149 41.4602 72.0657 41.4602 72.2165 41.6115C72.2165 41.6115 72.2165 41.6115 72.2165 41.7628V41.9141C71.4627 41.3089 71.3119 41.4602 70.5581 41.1576Z" fill="#F5EFDB"/>
<path d="M77.6431 44.7895C77.6431 44.7895 77.3416 44.6382 76.8893 44.6382C76.437 44.6382 75.9847 44.6382 75.5324 45.0922C75.3816 45.2435 75.2309 45.3948 75.2309 45.6974L73.7232 45.0922C73.874 44.6382 74.0248 44.3356 74.3263 44.1843C74.4771 44.033 74.6278 44.0329 74.7786 43.8816C74.9293 43.8816 75.0801 43.7303 75.3816 43.7303C76.1354 43.7303 77.04 44.033 77.6431 44.7895Z" fill="#F5EFDB"/>
<path d="M67.0899 41.6131C67.9945 41.4618 68.8991 41.6131 69.5021 42.0671C69.6529 42.2184 69.8037 42.3697 69.9544 42.3697C70.1052 42.521 70.1052 42.6723 70.256 42.8237C70.4067 43.1263 70.4067 43.4289 70.256 43.8828L68.7483 43.2776C68.7483 43.1263 68.7483 42.8237 68.7483 42.6723C68.5976 42.2184 68.296 41.9158 67.8438 41.7644C67.3915 41.7644 67.0899 41.6131 67.0899 41.6131Z" fill="#F5EFDB"/>
<path d="M72.5176 41.4601C72.5176 41.4601 72.5176 41.1575 72.6684 40.7035C72.8191 40.2496 72.8191 39.6443 72.9699 39.0391C72.9699 38.7364 73.1207 38.4338 73.1207 38.1312C73.1207 37.8285 73.1207 37.5259 73.2714 37.3746C73.2714 37.2233 73.2714 36.9207 73.2714 36.7693C73.2714 36.618 73.2714 36.618 73.2714 36.618V36.3154C73.2714 36.3154 73.2714 36.3154 73.2714 36.1641C73.2714 36.0128 73.2714 35.8615 73.2714 35.5588C73.2714 35.4075 73.2714 35.1049 73.2714 34.8023C73.2714 34.4996 73.2714 34.197 73.2714 33.8944C73.2714 33.2891 73.2714 32.6838 73.1207 32.2299C73.1207 31.776 73.1207 31.4733 73.1207 31.4733C73.1207 31.4733 73.1207 31.4733 73.1207 31.322V31.1707C73.1207 31.1707 73.1207 30.868 72.9699 30.4141C72.9699 30.2628 72.9699 29.9602 72.8191 29.6575C72.8191 29.3549 72.6684 29.0523 72.6684 28.7497C72.6684 28.5983 72.6684 28.447 72.5176 28.2957C72.5176 28.1444 72.5176 27.9931 72.3668 27.8418C72.3668 27.5391 72.2161 27.2365 72.2161 27.0852C72.2161 26.9339 72.0653 26.6312 72.0653 26.6312C72.0653 26.4799 72.0653 26.4799 72.0653 26.4799L71.9146 26.1773C71.9146 26.1773 71.9145 26.026 71.7638 25.8747C71.7638 25.7233 71.7638 25.7233 71.613 25.572C71.613 25.4207 71.4623 25.2694 71.4623 25.2694C71.3115 24.8155 71.1607 24.3615 71.1607 24.3615L71.613 24.2102C71.613 24.2102 71.7638 24.6641 71.9146 25.2694C72.0653 25.572 72.0653 25.7233 72.0653 26.026C72.0653 26.1773 72.2161 26.3286 72.2161 26.3286L72.3668 26.6312C72.3668 26.6312 72.3668 26.6312 72.3668 26.7826C72.3668 26.9339 72.5176 27.0852 72.5176 27.3878C72.5176 27.5391 72.6684 27.8417 72.6684 28.1444C72.6684 28.2957 72.6684 28.447 72.8191 28.5983C72.8191 28.7496 72.8191 28.901 72.9699 29.0523C72.9699 29.3549 73.1207 29.6575 73.1207 29.9602C73.1207 30.2628 73.2714 30.5654 73.2714 30.7168C73.2714 31.1707 73.4222 31.4733 73.4222 31.4733V31.776C73.4222 31.776 73.4222 32.0786 73.4222 32.5325C73.4222 32.9865 73.4222 33.5917 73.573 34.197C73.573 34.4996 73.573 34.8022 73.573 35.1049C73.573 35.4075 73.573 35.7101 73.573 35.8615C73.573 36.1641 73.573 36.3154 73.573 36.4667C73.573 36.618 73.573 36.618 73.573 36.618V36.9207V37.072C73.573 37.2233 73.573 37.3746 73.573 37.6772C73.573 37.8285 73.573 38.1312 73.4222 38.4338C73.4222 38.7364 73.4222 39.0391 73.2714 39.3417C73.1207 39.947 73.1207 40.5522 72.9699 41.0061C72.8191 41.4601 72.8191 41.7627 72.8191 41.7627C72.8191 41.7627 72.8191 41.7627 72.8191 41.914V42.0654C72.8191 42.0654 72.6684 42.6706 72.5176 43.4272C72.3668 44.0325 72.0653 44.789 72.0653 44.789L71.613 44.6377C71.613 44.6377 71.7638 44.0324 72.0653 43.2759C72.2161 42.6706 72.3668 41.914 72.3668 41.914C72.3668 41.914 72.3668 41.7627 72.5176 41.4601C72.5176 41.4601 72.3668 41.6114 72.5176 41.4601Z" fill="#F5EFDB"/>
<path d="M61.6631 8.17113C61.3615 8.9277 61.06 8.92771 60.7585 10.1382L60.457 9.9869C60.457 9.83558 60.6077 9.53295 60.7585 9.23032C60.9092 8.9277 60.7585 8.77638 60.6077 8.47375C60.457 8.17112 60.0047 7.86851 59.4016 7.56588L60.1554 6.05273C60.3062 6.20405 60.6077 6.35537 60.7585 6.50668C60.9092 6.658 61.06 6.80929 61.2108 6.96061C61.6631 7.26324 61.8138 7.71718 61.6631 8.17113Z" fill="#F5EFDB"/>
<path d="M59.703 10.7441C59.8537 10.5928 60.0045 10.4415 60.1553 10.2902L60.4568 10.4415C59.703 11.198 59.8537 11.3494 59.2507 11.9546C58.9492 12.2572 58.4969 12.4086 58.0446 12.2572C57.8938 12.2572 57.5923 12.1059 57.4415 12.1059C57.2908 12.1059 57.14 11.9546 56.8385 11.9546L57.5923 10.4415C58.0446 10.7441 58.4969 10.8954 58.7984 10.8954C59.2507 11.0467 59.5522 10.8954 59.703 10.7441Z" fill="#F5EFDB"/>
<path d="M63.9246 10.4405C63.3215 9.83526 63.02 9.07869 63.3215 8.32212C63.4723 7.86818 63.623 7.56555 63.9246 7.26292C64.2261 6.96029 64.5276 6.65766 65.1307 6.50635C65.1307 6.50635 64.8291 6.80898 64.6784 7.26292C64.5276 7.71687 64.3769 8.1708 64.6784 8.62475C64.9799 9.07869 65.4322 9.53263 65.8845 9.98657C66.3368 10.4405 66.4875 11.0458 66.186 11.651C65.7337 12.4076 65.583 12.2563 64.9799 13.3155L64.8291 13.1642C64.8291 13.0129 64.9799 12.8616 65.2814 12.5589C65.1307 11.9537 64.9799 11.3484 63.9246 10.4405Z" fill="#F5EFDB"/>
<path d="M62.7189 14.979C62.1159 15.4329 61.6636 15.2816 61.2113 14.979C60.759 14.8276 60.3067 14.3737 60.0052 14.3737C59.5529 14.3737 59.2513 14.525 58.7991 14.8277C58.4975 15.1303 58.3468 15.4329 58.3468 15.4329C58.4975 14.979 58.6483 14.525 58.7991 14.2224C58.9498 13.9197 59.2513 13.6171 59.5529 13.3145C59.8544 13.1632 60.1559 13.0118 60.6082 13.0118C60.9098 13.0118 61.362 13.0119 61.5128 13.3145C61.9651 13.6171 62.4174 13.9197 62.7189 13.9197C63.0204 14.0711 63.322 13.9197 63.4727 13.7684C63.6235 13.6171 63.925 13.4658 63.925 13.4658L64.0758 13.6171C63.322 14.2224 63.4727 14.3737 62.7189 14.979Z" fill="#F5EFDB"/>
<path d="M67.844 14.2235C67.5424 13.9208 67.3917 13.6182 67.3917 13.1643C67.3917 12.8616 67.3917 12.4077 67.5425 12.1051C67.844 11.3485 68.5978 10.7432 69.5024 10.5919C69.5024 10.5919 69.2008 10.8945 69.0501 11.1972C68.7486 11.4998 68.5978 12.1051 68.7486 12.559C68.7486 12.7103 68.8993 13.013 69.2008 13.3156C69.3516 13.6182 69.5024 13.9209 69.6531 14.0722C69.8039 14.3748 69.9547 14.6774 69.9547 14.98C69.9547 15.2827 69.9547 15.5853 69.6531 15.7366C69.0501 16.3419 68.8993 16.1906 68.1455 17.2498L67.9947 16.9471C68.1455 16.7958 68.2963 16.6445 68.447 16.3419C68.7486 16.0393 68.5978 15.2827 67.844 14.2235Z" fill="#F5EFDB"/>
<path d="M65.8844 18.4602C65.5829 18.6115 65.2814 18.6115 65.1306 18.6115C64.8291 18.6115 64.6783 18.4602 64.5276 18.3089C64.3768 18.1576 64.0753 18.0063 63.9245 17.855C63.7737 17.7037 63.623 17.5523 63.3215 17.5523C62.8692 17.401 62.4169 17.5524 62.1154 17.855C61.8138 18.1576 61.5123 18.3089 61.5123 18.3089C61.8138 17.401 62.4169 16.7958 63.1707 16.4932C63.4722 16.3418 63.9245 16.1905 64.226 16.3419C64.5276 16.3419 64.8291 16.4931 65.1306 16.7958C65.8844 17.7037 66.4875 17.855 66.9398 17.7037C67.2413 17.5523 67.3921 17.5524 67.5428 17.401L67.6936 17.7037C66.6382 17.855 66.6383 18.1576 65.8844 18.4602Z" fill="#F5EFDB"/>
<path d="M71.0106 18.7631C70.8598 18.4605 70.7091 18.0066 70.7091 17.7039C70.7091 17.4013 70.8598 16.9474 71.0106 16.6447C71.4629 16.0395 72.2167 15.4342 73.2721 15.5855C73.2721 15.5855 72.9705 15.7368 72.669 16.0395C72.3675 16.3421 72.0659 16.796 72.2167 17.25C72.2167 17.7039 72.669 18.3092 72.8198 18.9145C72.9705 19.5197 72.9705 20.125 72.5182 20.5789C71.7644 21.1842 71.7644 20.8815 70.7091 21.7894C70.7091 21.7894 70.7091 21.7894 70.7091 21.6381V21.4868C70.8598 21.3355 71.0106 21.1842 71.3121 21.0329C71.4629 20.8815 71.6137 20.5789 71.6137 20.2763C71.6137 20.125 71.6137 19.8223 71.4629 19.671C71.3121 19.2171 71.1614 19.0658 71.0106 18.7631Z" fill="#F5EFDB"/>
<path d="M68.4471 22.5455C67.844 22.6969 67.3917 22.3942 67.0902 22.0916C66.7887 21.7889 66.4871 21.1837 66.1856 21.0324C65.8841 20.881 65.281 20.8811 64.9795 21.1837C64.5272 21.335 64.2257 21.6376 64.2257 21.6376C64.678 20.8811 65.4318 20.2758 66.1856 20.1245C66.4871 19.9732 66.9394 19.9732 67.2409 20.1245C67.5425 20.2758 67.844 20.4271 67.9948 20.7297C68.1455 21.0324 68.2963 21.1837 68.4471 21.335C68.5978 21.4863 68.7486 21.6376 68.8994 21.7889C69.2009 21.9403 69.5024 22.0916 69.6532 21.9403C69.9547 21.789 70.1055 21.7889 70.2562 21.7889C70.2562 21.7889 70.2562 21.789 70.2562 21.9403V22.0916C69.2009 22.0916 69.2009 22.2429 68.4471 22.5455Z" fill="#F5EFDB"/>
<path d="M76.2868 20.8818C76.2868 20.8818 75.9852 21.0331 75.5329 21.3357C75.2314 21.6383 74.7791 21.941 74.7791 22.5462C74.7791 22.6975 74.7791 23.0002 74.9299 23.3028L73.4222 23.9081C73.1207 23.1515 73.4222 22.3949 73.8745 21.7897C74.3268 21.0331 75.2314 20.5792 76.2868 20.8818Z" fill="#F5EFDB"/>
<path d="M66.0352 25.2697C66.6383 24.5132 67.3921 24.2105 68.1459 24.0592C68.8998 24.0592 69.6536 24.3618 69.8043 24.9671L68.2967 25.5724C68.1459 25.4211 67.9952 25.2697 67.9952 25.1184C67.6936 24.8158 67.2414 24.8158 66.7891 24.9671C66.4875 25.1184 66.0352 25.2697 66.0352 25.2697Z" fill="#F5EFDB"/>
<path d="M70.1062 21.6381C70.1062 21.6381 69.9555 21.3355 69.8047 21.0329C69.6539 20.5789 69.3524 20.125 69.0509 19.5197C68.7493 19.0658 68.4478 18.4605 68.1463 18.1579C67.8448 17.8553 67.694 17.5526 67.694 17.5526L67.5432 17.25C67.5432 17.25 67.5432 17.25 67.3925 17.0987C67.2417 16.9474 67.2417 16.7961 67.0909 16.6447C66.7894 16.3421 66.4879 15.8882 66.0356 15.4342C65.8848 15.2829 65.5833 14.9803 65.4325 14.829C65.2818 14.6777 64.9802 14.375 64.8295 14.2237C64.6787 14.0724 64.528 13.9211 64.3772 13.7697C64.2264 13.6184 64.2264 13.6184 64.2264 13.6184L64.0757 13.4671C64.0757 13.4671 63.9249 13.3158 63.4726 13.0132C63.1711 12.7105 62.7188 12.2566 62.2665 11.954C61.965 11.8027 61.8142 11.6513 61.5127 11.3487C61.3619 11.1974 61.3619 11.1974 61.2112 11.0461C61.0604 11.0461 61.0604 10.8948 60.9096 10.8948C60.6081 10.5921 60.3066 10.4408 60.3066 10.4408L60.0051 10.2895C60.0051 10.2895 59.5528 9.98687 59.1005 9.68424C58.9497 9.68424 58.9497 9.53294 58.7989 9.53294C58.6482 9.53294 58.6482 9.38162 58.4974 9.38162C58.3467 9.2303 58.1959 9.23029 58.1959 9.23029L58.4974 8.77637C58.4974 8.77637 58.6482 8.77635 58.7989 8.92767C58.9497 8.92767 58.9497 9.07899 59.1005 9.07899C59.2512 9.07899 59.2512 9.23029 59.402 9.23029C59.5528 9.38161 59.8543 9.53293 60.0051 9.68424C60.1558 9.83556 60.3066 9.83557 60.3066 9.83557L60.6081 9.98687C60.6081 9.98687 60.9096 10.1382 61.2112 10.4408C61.3619 10.5921 61.6634 10.7435 61.8142 10.8948C62.1157 11.0461 62.2665 11.1974 62.568 11.5C63.0203 11.954 63.4726 12.2566 63.7741 12.5592C64.0757 12.8619 64.3772 13.0132 64.3772 13.0132L64.528 13.1645C64.528 13.1645 64.528 13.1645 64.6787 13.3158C64.8295 13.4671 64.9803 13.6184 65.131 13.7697C65.2818 13.9211 65.4325 14.0724 65.7341 14.375C65.8848 14.5263 66.1864 14.829 66.3371 14.9803C66.7894 15.4342 67.0909 15.8882 67.3925 16.3421C67.5432 16.4934 67.694 16.6447 67.694 16.796C67.8448 16.9474 67.8448 16.9474 67.8448 16.9474L67.9955 17.25C67.9955 17.25 68.1463 17.5526 68.4478 17.8553C68.5986 18.0066 68.7493 18.3092 68.9001 18.4605C69.0509 18.7631 69.2016 18.9145 69.3524 19.2171C69.6539 19.671 69.9554 20.2763 70.257 20.7302C70.4077 21.1842 70.5585 21.3355 70.5585 21.3355C70.5585 21.3355 70.5585 21.3355 70.5585 21.4868V21.6381C70.5585 21.6381 70.5585 21.7894 70.7093 22.0921C70.86 22.3947 71.0108 22.6973 71.1616 23C71.3123 23.3026 71.4631 23.6052 71.4631 23.9079C71.4631 24.0592 71.6138 24.0592 71.6138 24.2105V24.3618L71.1616 24.5131C71.1616 24.5131 71.1616 24.5131 71.1616 24.3618C71.1616 24.3618 71.1616 24.2105 71.0108 24.0592C70.86 23.7565 70.7093 23.4539 70.7093 23.1513C70.5585 22.8487 70.4077 22.546 70.257 22.2434C70.1062 21.9408 70.1062 21.7894 70.1062 21.7894C70.1062 21.7894 70.257 21.7895 70.1062 21.6381Z" fill="#F5EFDB"/>
<path d="M49.1491 3.78287C48.6968 3.63155 48.3953 3.48023 48.0938 3.32892C47.7922 3.02629 47.6415 2.72365 47.4907 2.42102C47.3399 1.66445 47.3399 0.756574 48.0938 0C48.0938 0 48.0938 0.302629 48.0938 0.756574C48.0938 1.21052 48.2445 1.66447 48.6968 1.9671C49.1491 2.26973 49.7522 2.26972 50.3552 2.57235C50.9583 2.87498 51.4106 3.17761 51.4106 3.78287C51.4106 4.69076 51.109 4.69075 51.2598 5.90127C51.2598 5.90127 51.2598 5.90127 51.109 5.90127H50.9583C50.9583 5.74995 50.9583 5.44732 50.9583 5.14469C50.9583 4.84206 50.8075 4.69075 50.506 4.38812C50.3552 4.2368 50.2045 4.23681 49.9029 4.08549C49.7522 3.93418 49.4506 3.78287 49.1491 3.78287Z" fill="#F5EFDB"/>
<path d="M50.3554 8.1708C50.0539 8.77607 49.6016 8.92738 49.1493 8.92738C48.697 8.92738 48.094 8.92739 47.7924 9.07871C47.3401 9.23002 47.1894 9.68397 47.0386 10.1379C46.8879 10.5919 46.8879 10.8945 46.8879 10.8945C46.5863 9.9866 46.5863 9.07869 46.8879 8.47343C47.0386 8.1708 47.3401 7.86817 47.4909 7.71685C47.7924 7.56554 48.094 7.41424 48.5463 7.56555C48.8478 7.56555 49.1493 7.56555 49.3001 7.56555C49.4508 7.56555 49.7524 7.56555 49.9031 7.56555C50.2047 7.41424 50.5062 7.26292 50.5062 7.1116C50.6569 6.80897 50.6569 6.65766 50.8077 6.50635C50.8077 6.50635 50.8077 6.50635 50.9585 6.50635H51.1092C50.5062 7.26293 50.8077 7.41423 50.3554 8.1708Z" fill="#F5EFDB"/>
<path d="M54.4257 5.14414C53.9734 4.99283 53.6719 4.84152 53.5211 4.53889C53.3704 4.38757 53.3704 4.23625 53.2196 4.08494C53.2196 3.93362 53.0688 3.78232 53.0688 3.47969C52.9181 2.72311 53.2196 1.81522 54.1242 1.20996C54.1242 1.20996 53.9734 1.51259 53.9734 1.96654C53.9734 2.42048 53.9734 2.87442 54.4257 3.32836C54.5765 3.47968 54.878 3.631 55.1795 3.78231C55.4811 3.93363 55.7826 4.08495 56.0841 4.23626C56.6872 4.53889 56.9887 4.99284 56.8379 5.74942C56.6872 6.65731 56.3857 6.50597 56.2349 7.71649L55.9334 7.56519C55.9334 7.41388 55.9334 7.11125 56.0841 6.80862C56.0841 6.50599 56.0841 6.35467 55.7826 6.05204C55.4811 5.5981 55.0288 5.29546 54.4257 5.14414Z" fill="#F5EFDB"/>
<path d="M54.8783 9.68503C54.5768 10.2903 53.9737 10.2903 53.5215 10.2903C53.2199 10.2903 53.0692 10.139 52.7676 10.139C52.4661 10.139 52.3153 10.139 52.1646 10.139C51.7123 10.2903 51.4108 10.5929 51.26 11.0469C51.1092 11.5008 50.9585 11.8035 50.9585 11.8035C50.8077 10.8956 50.9585 9.98766 51.4108 9.3824C51.5615 9.23109 51.7123 9.07977 51.7123 8.92845C51.8631 8.77714 52.0138 8.77714 52.1646 8.62583C52.4661 8.47451 52.7676 8.47451 53.2199 8.62583C53.823 8.77714 54.1245 8.92845 54.5768 8.92845C54.8783 8.92845 55.1799 8.77714 55.3306 8.62583C55.4814 8.32319 55.6321 8.17188 55.6321 8.17188L55.9337 8.3232C55.1799 8.92846 55.3306 9.07977 54.8783 9.68503Z" fill="#F5EFDB"/>
<path d="M59.8534 3.3291C59.8534 3.3291 59.7027 3.63173 59.5519 4.08568C59.4011 4.53963 59.4011 4.99357 59.7027 5.44752C59.8534 5.59883 60.0042 5.75015 60.1549 5.90147L59.4011 7.41463C58.6473 6.96068 58.3458 6.2041 58.3458 5.44752C58.4966 4.69094 58.9488 3.78305 59.8534 3.3291Z" fill="#F5EFDB"/>
<path d="M54.8785 13.317C54.8785 12.4091 55.18 11.5012 55.7831 11.0473C56.3861 10.442 56.9892 10.2907 57.743 10.5933L56.9892 12.1065C56.8384 12.1065 56.5369 11.9551 56.3861 11.9551C55.9339 11.9551 55.6323 12.2578 55.3308 12.7117C55.0293 12.863 54.8785 13.317 54.8785 13.317Z" fill="#F5EFDB"/>
<path d="M46.4354 63.855C46.8877 63.855 47.1892 63.855 47.1892 63.855C47.1892 63.855 47.1892 63.855 47.34 63.855H47.4907C47.4907 63.855 47.7923 63.855 48.2446 63.7037C48.3953 63.7037 48.6969 63.7037 48.9984 63.5524C49.2999 63.5524 49.6014 63.4011 49.903 63.4011C50.0537 63.4011 50.2045 63.4011 50.3553 63.2498C50.506 63.2498 50.6568 63.2497 50.8076 63.0984C51.1091 63.0984 51.4106 62.9471 51.5614 62.9471C51.7121 62.9471 52.0137 62.7958 52.0137 62.7958C52.1644 62.7958 52.1644 62.7958 52.1644 62.7958L52.466 62.6445C52.466 62.6445 52.466 62.6445 52.6167 62.6445C52.7675 62.6445 52.9182 62.4932 53.069 62.4932C53.2198 62.4932 53.5213 62.3418 53.8228 62.1905C54.1244 62.0392 54.4259 62.0392 54.5766 61.8879C55.1797 61.5853 55.632 61.434 56.0843 61.2826C56.5366 61.1313 56.8381 60.98 56.8381 60.98C56.8381 60.98 56.8381 60.98 56.9889 60.98H57.1396C57.1396 60.98 57.5919 60.6774 58.0442 60.5261C58.3457 60.3748 58.4965 60.2235 58.6473 60.2235C58.798 60.0722 58.9488 60.0721 58.9488 60.0721L59.2503 60.5261C59.2503 60.5261 59.0996 60.5261 58.9488 60.6774C58.798 60.8287 58.4965 60.98 58.3457 60.98C57.8934 61.2827 57.4412 61.434 57.4412 61.434C57.4412 61.434 57.4412 61.434 57.2904 61.434H57.1396C57.1396 61.434 56.8381 61.5853 56.3858 61.7366C55.9335 61.8879 55.3305 62.1905 54.8782 62.3419C54.5766 62.4932 54.2751 62.4932 53.9736 62.6445C53.6721 62.7958 53.5213 62.7958 53.2198 62.9471C52.7675 63.0984 52.466 63.0984 52.466 63.0984L52.1644 63.2498C52.1644 63.2498 52.1644 63.2498 52.0137 63.2498C51.8629 63.2498 51.7121 63.4011 51.4106 63.4011C51.2598 63.4011 50.9583 63.5524 50.6568 63.5524C50.506 63.5524 50.3553 63.5524 50.2045 63.7037C50.0537 63.7037 49.903 63.7037 49.7522 63.855C49.4507 63.855 49.1492 64.0063 48.8476 64.0063C48.5461 64.0063 48.2446 64.1576 48.0938 64.1576C47.6415 64.1576 47.34 64.3089 47.34 64.3089H47.0385C47.0385 64.3089 46.7369 64.3089 46.2846 64.3089H46.1339V63.7037C46.2846 63.855 46.4354 63.855 46.4354 63.855Z" fill="#F5EFDB"/>
<path d="M46.888 5.14495C47.1896 5.14495 47.3403 5.14496 47.6419 5.29628C47.9434 5.29628 48.2449 5.29626 48.5464 5.44758C49.1495 5.59889 49.7526 5.59891 50.2048 5.75022C50.6571 5.90154 50.9587 5.90152 50.9587 5.90152C50.9587 5.90152 50.9587 5.90152 51.1094 5.90152H51.2602C51.2602 5.90152 51.5617 6.05285 52.014 6.05285C52.1648 6.05285 52.4663 6.20415 52.7678 6.20415C53.0694 6.35546 53.3709 6.35548 53.6724 6.5068C53.9739 6.65811 54.2755 6.65811 54.577 6.80942C54.8785 6.96073 55.0293 6.96073 55.3308 7.11204C55.4816 7.26336 55.7831 7.26337 55.7831 7.26337C55.9339 7.26337 55.9339 7.41467 55.9339 7.41467L56.2354 7.56599C56.2354 7.56599 56.3862 7.56598 56.6877 7.71729C56.9892 7.86861 57.2907 8.01992 57.5923 8.17124C57.8938 8.32255 58.1953 8.47387 58.4969 8.62519C58.7984 8.7765 58.9491 8.77651 58.9491 8.77651L58.6476 9.23043C58.6476 9.23043 58.4968 9.07913 58.3461 9.07913C58.1953 8.92782 57.743 8.7765 57.4415 8.62519C57.14 8.47387 56.8384 8.32255 56.5369 8.17124C56.2354 8.01992 56.0846 8.01994 56.0846 8.01994L55.7831 7.86861C55.7831 7.86861 55.7831 7.86861 55.6323 7.71729C55.4816 7.71729 55.3308 7.56599 55.18 7.56599C55.0293 7.41468 54.7278 7.41468 54.4262 7.26337C54.2755 7.26337 54.1247 7.11204 53.9739 7.11204C53.8232 7.11204 53.6724 6.96072 53.5216 6.96072C53.2201 6.80941 52.9186 6.80941 52.6171 6.6581C52.3155 6.50678 52.1648 6.5068 51.8632 6.5068C51.411 6.35548 51.1094 6.35547 51.1094 6.35547C51.1094 6.35547 51.1094 6.35547 50.9587 6.35547H50.8079C50.8079 6.35547 50.5064 6.35546 50.0541 6.20415C49.6018 6.05283 48.9987 6.05284 48.3957 5.90152C48.0942 5.90152 47.7926 5.75022 47.4911 5.75022C47.1896 5.75022 46.888 5.75021 46.7373 5.5989H46.5865L46.7373 4.99365C46.7373 5.14497 46.888 5.14495 46.888 5.14495Z" fill="#F5EFDB"/>
<path d="M47.7924 5.44727C47.7924 5.44727 47.0385 4.08545 44.9278 4.08545C42.8172 4.08545 41.4603 4.6907 41.008 4.6907C40.5557 4.6907 42.9679 4.84202 44.174 5.5986C45.0786 6.20386 47.6416 6.50648 47.7924 5.44727Z" fill="#F5EFDB"/>
<path d="M39.3495 64.4596C36.1835 64.4596 33.4697 64.0056 30.3037 63.703V64.157C33.1682 64.6109 36.1835 64.9135 39.3495 64.9135C42.3648 64.9135 45.2293 64.6109 48.0938 64.157L46.2847 63.8543C43.4201 64.4596 42.3648 64.4596 39.3495 64.4596Z" fill="#F5EFDB"/>
<path d="M38.2 31.165C40.93 31.165 43.075 31.93 44.635 33.46C46.225 34.96 47.02 37.105 47.02 39.895C47.02 41.845 46.615 43.51 45.805 44.89C45.025 46.24 43.945 47.275 42.565 47.995C41.185 48.685 39.64 49.03 37.93 49.03C36.52 49.03 35.26 48.76 34.15 48.22C33.04 47.65 32.005 46.795 31.045 45.655L31 45.565C31 45.445 31.06 45.355 31.18 45.295C31.3 45.205 31.39 45.205 31.45 45.295C32.08 45.985 32.845 46.51 33.745 46.87C34.675 47.23 35.635 47.41 36.625 47.41C38.635 47.41 40.135 46.78 41.125 45.52C42.115 44.23 42.61 42.52 42.61 40.39C42.61 38.05 42.07 36.175 40.99 34.765C39.91 33.355 38.29 32.65 36.13 32.65C35.2 32.65 34.375 32.74 33.655 32.92C32.935 33.1 32.53 33.205 32.44 33.235C32.29 33.235 32.17 33.19 32.08 33.1C31.99 32.98 31.96 32.845 31.99 32.695L33.43 20.905C33.46 20.695 33.505 20.56 33.565 20.5C33.625 20.41 33.775 20.365 34.015 20.365C38.095 20.365 40.795 20.35 42.115 20.32C43.465 20.26 44.35 20.155 44.77 20.005C45.19 19.855 45.52 19.54 45.76 19.06C45.79 19 45.88 18.985 46.03 19.015C46.18 19.015 46.24 19.075 46.21 19.195L45.535 23.515C45.445 23.875 45.325 24.115 45.175 24.235C45.055 24.325 44.8 24.37 44.41 24.37L34.96 24.145C34.57 24.145 34.33 24.355 34.24 24.775L33.385 31.975C35.005 31.435 36.61 31.165 38.2 31.165Z" fill="#AAAAAA"/>
</svg>
