<svg width="53" height="45" viewBox="0 0 53 45" fill="none" xmlns="http://www.w3.org/2000/svg">
<path d="M14.5623 25.7143C17.2716 25.7143 19.4164 26.6165 20.9968 28.4211C22.6901 30.1128 23.5367 32.3684 23.5367 35.188C23.5367 38.2331 22.5208 40.6579 20.4888 42.4624C18.5698 44.1541 15.9169 45 12.5304 45C8.57934 45 5.47497 43.4774 3.21725 40.4323C1.07242 37.3872 0 33.0451 0 27.406C0 22.3308 1.12886 17.6504 3.38658 13.3647C5.6443 8.96616 9.03088 4.56766 13.5463 0.169171C13.6592 0.0563902 13.8285 0 14.0543 0C14.393 0 14.6752 0.169171 14.901 0.507512C15.1267 0.845861 15.1267 1.12782 14.901 1.35338C9.36954 6.99248 6.60383 13.6466 6.60383 21.3158C6.60383 24.4737 7.16827 26.7857 8.29713 28.2519C9.3131 26.5602 11.4015 25.7143 14.5623 25.7143ZM44.0256 25.7143C46.7348 25.7143 48.8797 26.6165 50.4601 28.4211C52.1534 30.1128 53 32.3684 53 35.188C53 38.2331 51.984 40.6579 49.9521 42.4624C48.033 44.1541 45.3802 45 41.9936 45C38.0426 45 34.9382 43.4774 32.6805 40.4323C30.5357 37.3872 29.4633 33.0451 29.4633 27.406C29.4633 22.3308 30.5921 17.6504 32.8498 13.3647C35.1076 8.96616 38.4941 4.56766 43.0096 0.169171C43.1225 0.0563902 43.2918 0 43.5176 0C43.8562 0 44.1384 0.169171 44.3642 0.507512C44.59 0.845861 44.59 1.12782 44.3642 1.35338C38.8328 6.99248 36.0671 13.6466 36.0671 21.3158C36.0671 24.4737 36.6315 26.7857 37.7604 28.2519C38.7764 26.5602 40.8647 25.7143 44.0256 25.7143Z" fill="#AAAAAA"/>
</svg>
