<svg width="393" height="417" viewBox="0 0 393 417" fill="none" xmlns="http://www.w3.org/2000/svg">
<path d="M357.771 114.997C357.77 115.965 357.463 116.792 356.822 117.432C356.194 118.06 355.288 118.465 354.164 118.689C351.927 119.137 350.178 118.714 349.165 117.195L349.136 117.152L349.116 117.104C336.33 85.1547 318.014 60.4724 294.179 43.0312C270.351 25.5951 242.263 16.8702 209.893 16.8701C164.733 16.8701 129.64 31.767 104.547 61.5225C79.4395 91.295 66.8594 131.517 66.8594 182.242C66.8594 225.73 74.7503 264.294 90.5195 297.946L91.2627 299.498C106.971 331.978 128.452 357.218 155.702 375.235C183.383 393.537 214.684 402.691 249.62 402.691C266.25 402.691 278.979 400.559 287.852 396.336C296.686 392.131 303.012 384.771 306.819 374.202C310.634 363.61 312.557 348.095 312.557 327.62C312.557 306.279 310.631 291.212 306.83 282.347L306.824 282.334L306.82 282.32C303.458 273.08 296.96 267 287.28 264.056C277.531 261.09 261.363 259.594 238.727 259.594C237.499 259.594 236.532 259.088 235.9 258.078C235.293 257.107 235.023 255.714 235.023 253.971C235.023 252.237 235.237 250.863 235.717 249.904C235.96 249.418 236.279 249.023 236.688 248.751C237.099 248.477 237.571 248.348 238.086 248.348H238.103L238.118 248.349C271.432 250.483 299.614 251.55 322.668 251.55C344.017 251.55 366.222 250.909 389.281 249.629L389.295 249.628H389.309C390.344 249.628 391.15 250.1 391.665 251.001C392.152 251.854 392.368 253.065 392.371 254.573C392.583 256.077 392.544 257.3 392.171 258.171C391.978 258.621 391.691 258.986 391.299 259.235C390.908 259.484 390.45 259.594 389.949 259.594H389.933L389.916 259.593C383.548 259.168 379.252 260.246 376.847 262.65L376.831 262.666L376.813 262.681C374.404 264.688 372.714 268.789 371.862 275.171C371.013 281.539 370.586 292.397 370.586 307.767V334.024C370.586 353.238 371.227 366.65 372.501 374.29C373.782 381.972 374.431 387.347 374.431 390.383C374.431 391.688 374.322 392.799 374.095 393.706C373.876 394.579 373.538 395.293 373.053 395.804C372.758 396.333 372.194 396.8 371.455 397.222C370.668 397.671 369.619 398.11 368.321 398.542L368.298 398.55L368.273 398.556C315.279 410.516 269.105 416.5 229.756 416.5C182.7 416.5 141.821 407.308 107.134 388.903L107.132 388.902C72.8811 370.502 46.5393 345.462 28.1211 313.782L28.1191 313.779C9.70379 281.676 0.500031 245.725 0.5 205.938C0.5 166.566 10.7785 131.246 31.3398 99.9922L31.3418 99.9883C52.325 68.7442 80.5881 44.3512 116.118 26.8096L116.12 26.8086C152.078 9.26686 192.096 0.5 236.164 0.5C256.27 0.500013 276.163 2.424 295.842 6.27148L297.675 6.5957C315.899 9.87771 330.765 14.2912 342.259 19.8467L343.396 20.4062L343.418 20.417L343.438 20.4297C346.864 22.57 349.107 24.5526 350.028 26.3936C350.871 28.078 351.491 30.8813 351.918 34.7461L352.001 35.5332L352.002 35.5469L357.769 114.961L357.771 114.979V114.997Z" fill="#272727" stroke="black"/>
</svg>
